Hubballi-Regular-44_5-LatinOnly-Decomp-105.ufo
<glyph name="exclam" format="1">
  <advance width="323"/>
  <unicode hex="0021"/>
  <outline>
    <contour>
      <point x="160" y="130" type="curve" smooth="yes"/>
      <point x="196" y="130"/>
      <point x="231" y="103"/>
      <point x="231" y="55" type="curve" smooth="yes"/>
      <point x="231" y="-5"/>
      <point x="198" y="-19"/>
      <point x="161" y="-19" type="curve" smooth="yes"/>
      <point x="131" y="-19"/>
      <point x="90" y="-3"/>
      <point x="90" y="55" type="curve"/>
      <point x="90" y="105"/>
      <point x="121" y="130"/>
    </contour>
    <contour>
      <point x="111" y="285" type="curve" smooth="yes"/>
      <point x="118" y="577" type="line" smooth="yes"/>
      <point x="119" y="601"/>
      <point x="144" y="621"/>
      <point x="168" y="620" type="curve" smooth="yes"/>
      <point x="192" y="619"/>
      <point x="217" y="599"/>
      <point x="216" y="575" type="curve" smooth="yes"/>
      <point x="209" y="283" type="line" smooth="yes"/>
      <point x="208" y="259"/>
      <point x="183" y="239"/>
      <point x="159" y="240" type="curve" smooth="yes"/>
      <point x="135" y="241"/>
      <point x="110" y="261"/>
    </contour>
  </outline>
</glyph>
<glyph name="quotedbl" format="1">
  <advance width="404"/>
  <unicode hex="0022"/>
  <outline>
    <contour>
      <point x="182" y="581" type="curve" smooth="yes"/>
      <point x="140" y="397" type="line" smooth="yes"/>
      <point x="135" y="374"/>
      <point x="106" y="360"/>
      <point x="83" y="365" type="curve" smooth="yes"/>
      <point x="60" y="370"/>
      <point x="41" y="396"/>
      <point x="46" y="419" type="curve" smooth="yes"/>
      <point x="88" y="603" type="line" smooth="yes"/>
      <point x="93" y="626"/>
      <point x="122" y="640"/>
      <point x="145" y="635" type="curve" smooth="yes"/>
      <point x="168" y="630"/>
      <point x="187" y="604"/>
    </contour>
    <contour>
      <point x="349" y="581" type="curve" smooth="yes"/>
      <point x="307" y="397" type="line" smooth="yes"/>
      <point x="302" y="374"/>
      <point x="273" y="360"/>
      <point x="250" y="365" type="curve" smooth="yes"/>
      <point x="227" y="370"/>
      <point x="208" y="396"/>
      <point x="213" y="419" type="curve" smooth="yes"/>
      <point x="255" y="603" type="line" smooth="yes"/>
      <point x="260" y="626"/>
      <point x="289" y="640"/>
      <point x="312" y="635" type="curve" smooth="yes"/>
      <point x="335" y="630"/>
      <point x="354" y="604"/>
    </contour>
  </outline>
</glyph>
<glyph name="numbersign" format="1">
  <advance width="606"/>
  <unicode hex="0023"/>
  <outline>
    <contour>
      <point x="540" y="523" type="curve" smooth="yes"/>
      <point x="355" y="15" type="line" smooth="yes"/>
      <point x="347" y="-8"/>
      <point x="317" y="-18"/>
      <point x="295" y="-10" type="curve" smooth="yes"/>
      <point x="273" y="-2"/>
      <point x="257" y="25"/>
      <point x="265" y="47" type="curve" smooth="yes"/>
      <point x="450" y="555" type="line" smooth="yes"/>
      <point x="458" y="578"/>
      <point x="488" y="588"/>
      <point x="510" y="580" type="curve" smooth="yes"/>
      <point x="532" y="572"/>
      <point x="548" y="545"/>
    </contour>
    <contour>
      <point x="330" y="523" type="curve" smooth="yes"/>
      <point x="145" y="15" type="line" smooth="yes"/>
      <point x="137" y="-8"/>
      <point x="107" y="-18"/>
      <point x="85" y="-10" type="curve" smooth="yes"/>
      <point x="63" y="-2"/>
      <point x="47" y="25"/>
      <point x="55" y="47" type="curve" smooth="yes"/>
      <point x="240" y="555" type="line" smooth="yes"/>
      <point x="248" y="578"/>
      <point x="278" y="588"/>
      <point x="300" y="580" type="curve" smooth="yes"/>
      <point x="322" y="572"/>
      <point x="338" y="545"/>
    </contour>
    <contour>
      <point x="549" y="360" type="curve" smooth="yes"/>
      <point x="124" y="360" type="line" smooth="yes"/>
      <point x="100" y="360"/>
      <point x="80" y="380"/>
      <point x="80" y="404" type="curve" smooth="yes"/>
      <point x="80" y="428"/>
      <point x="100" y="448"/>
      <point x="124" y="448" type="curve" smooth="yes"/>
      <point x="549" y="448" type="line" smooth="yes"/>
      <point x="573" y="448"/>
      <point x="593" y="428"/>
      <point x="593" y="404" type="curve" smooth="yes"/>
      <point x="593" y="380"/>
      <point x="573" y="360"/>
    </contour>
    <contour>
      <point x="476" y="150" type="curve" smooth="yes"/>
      <point x="52" y="150" type="line" smooth="yes"/>
      <point x="28" y="150"/>
      <point x="8" y="170"/>
      <point x="8" y="194" type="curve" smooth="yes"/>
      <point x="8" y="218"/>
      <point x="28" y="238"/>
      <point x="52" y="238" type="curve" smooth="yes"/>
      <point x="476" y="238" type="line" smooth="yes"/>
      <point x="500" y="238"/>
      <point x="520" y="218"/>
      <point x="520" y="194" type="curve" smooth="yes"/>
      <point x="520" y="170"/>
      <point x="500" y="150"/>
    </contour>
  </outline>
</glyph>
<glyph name="dollar" format="1">
  <advance width="583"/>
  <unicode hex="0024"/>
  <outline>
    <contour>
      <point x="434" y="473" type="curve" smooth="yes"/>
      <point x="382" y="492"/>
      <point x="344" y="503"/>
      <point x="268" y="503" type="curve" smooth="yes"/>
      <point x="206" y="503"/>
      <point x="153" y="476"/>
      <point x="153" y="437" type="curve" smooth="yes"/>
      <point x="153" y="397"/>
      <point x="190" y="361"/>
      <point x="300" y="342" type="curve" smooth="yes"/>
      <point x="491" y="306"/>
      <point x="539" y="232"/>
      <point x="539" y="150" type="curve" smooth="yes"/>
      <point x="539" y="66"/>
      <point x="477" y="-22"/>
      <point x="292" y="-22" type="curve" smooth="yes"/>
      <point x="213" y="-22"/>
      <point x="139" y="-7"/>
      <point x="70" y="27" type="curve" smooth="yes"/>
      <point x="48" y="38"/>
      <point x="39" y="65"/>
      <point x="50" y="86" type="curve" smooth="yes"/>
      <point x="60" y="108"/>
      <point x="87" y="117"/>
      <point x="108" y="107" type="curve" smooth="yes"/>
      <point x="165" y="79"/>
      <point x="227" y="66"/>
      <point x="292" y="66" type="curve" smooth="yes"/>
      <point x="383" y="66"/>
      <point x="441" y="100"/>
      <point x="441" y="150" type="curve" smooth="yes"/>
      <point x="441" y="202"/>
      <point x="389" y="236"/>
      <point x="286" y="256" type="curve" smooth="yes"/>
      <point x="74" y="291"/>
      <point x="55" y="373"/>
      <point x="55" y="437" type="curve"/>
      <point x="55" y="510"/>
      <point x="124" y="591"/>
      <point x="268" y="591" type="curve" smooth="yes"/>
      <point x="358" y="591"/>
      <point x="402" y="578"/>
      <point x="464" y="557" type="curve" smooth="yes"/>
      <point x="486" y="549"/>
      <point x="498" y="523"/>
      <point x="491" y="500" type="curve" smooth="yes"/>
      <point x="483" y="478"/>
      <point x="457" y="466"/>
    </contour>
    <contour>
      <point x="337" y="643" type="curve" smooth="yes"/>
      <point x="337" y="-81" type="line" smooth="yes"/>
      <point x="337" y="-105"/>
      <point x="312" y="-125"/>
      <point x="288" y="-125" type="curve" smooth="yes"/>
      <point x="264" y="-125"/>
      <point x="239" y="-105"/>
      <point x="239" y="-81" type="curve" smooth="yes"/>
      <point x="239" y="643" type="line" smooth="yes"/>
      <point x="239" y="667"/>
      <point x="264" y="687"/>
      <point x="288" y="687" type="curve" smooth="yes"/>
      <point x="312" y="687"/>
      <point x="337" y="667"/>
    </contour>
  </outline>
</glyph>
<glyph name="percent" format="1">
  <advance width="835"/>
  <unicode hex="0025"/>
  <outline>
    <contour>
      <point x="203" y="592" type="curve" smooth="yes"/>
      <point x="285" y="592"/>
      <point x="366" y="524"/>
      <point x="366" y="405" type="curve" smooth="yes"/>
      <point x="366" y="293"/>
      <point x="298" y="218"/>
      <point x="203" y="218" type="curve" smooth="yes"/>
      <point x="117" y="218"/>
      <point x="40" y="294"/>
      <point x="40" y="404" type="curve"/>
      <point x="40" y="524"/>
      <point x="116" y="592"/>
    </contour>
    <contour>
      <point x="633" y="350" type="curve" smooth="yes"/>
      <point x="715" y="350"/>
      <point x="795" y="282"/>
      <point x="795" y="163" type="curve" smooth="yes"/>
      <point x="795" y="53"/>
      <point x="727" y="-24"/>
      <point x="633" y="-24" type="curve" smooth="yes"/>
      <point x="545" y="-24"/>
      <point x="469" y="54"/>
      <point x="469" y="162" type="curve" smooth="yes"/>
      <point x="469" y="282"/>
      <point x="544" y="350"/>
    </contour>
    <contour>
      <point x="608" y="517" type="curve" smooth="yes"/>
      <point x="310" y="8" type="line" smooth="yes"/>
      <point x="298" y="-13"/>
      <point x="268" y="-19"/>
      <point x="248" y="-7" type="curve" smooth="yes"/>
      <point x="227" y="5"/>
      <point x="218" y="34"/>
      <point x="230" y="54" type="curve" smooth="yes"/>
      <point x="528" y="563" type="line" smooth="yes"/>
      <point x="540" y="584"/>
      <point x="570" y="590"/>
      <point x="590" y="578" type="curve" smooth="yes"/>
      <point x="611" y="566"/>
      <point x="620" y="537"/>
    </contour>
    <contour>
      <point x="203" y="504" type="curve" smooth="yes"/>
      <point x="156" y="504"/>
      <point x="138" y="452"/>
      <point x="138" y="404" type="curve" smooth="yes"/>
      <point x="138" y="360"/>
      <point x="157" y="306"/>
      <point x="203" y="306" type="curve" smooth="yes"/>
      <point x="254" y="306"/>
      <point x="268" y="361"/>
      <point x="268" y="405" type="curve" smooth="yes"/>
      <point x="268" y="452"/>
      <point x="247" y="504"/>
    </contour>
    <contour>
      <point x="633" y="262" type="curve" smooth="yes"/>
      <point x="586" y="262"/>
      <point x="567" y="210"/>
      <point x="567" y="162" type="curve" smooth="yes"/>
      <point x="567" y="118"/>
      <point x="587" y="64"/>
      <point x="633" y="64" type="curve" smooth="yes"/>
      <point x="683" y="64"/>
      <point x="697" y="119"/>
      <point x="697" y="163" type="curve" smooth="yes"/>
      <point x="697" y="210"/>
      <point x="677" y="262"/>
    </contour>
  </outline>
</glyph>
<glyph name="ampersand" format="1">
  <advance width="646"/>
  <unicode hex="0026"/>
  <outline>
    <contour>
      <point x="573" y="272" type="curve" smooth="yes"/>
      <point x="483" y="144" type="line" smooth="yes"/>
      <point x="392" y="13"/>
      <point x="322" y="-21"/>
      <point x="235" y="-21" type="curve" smooth="yes"/>
      <point x="117" y="-21"/>
      <point x="38" y="53"/>
      <point x="38" y="146" type="curve" smooth="yes"/>
      <point x="38" y="228"/>
      <point x="71" y="295"/>
      <point x="259" y="372" type="curve" smooth="yes"/>
      <point x="302" y="390"/>
      <point x="323" y="414"/>
      <point x="323" y="447" type="curve" smooth="yes"/>
      <point x="323" y="478"/>
      <point x="297" y="504"/>
      <point x="261" y="504" type="curve" smooth="yes"/>
      <point x="225" y="504"/>
      <point x="202" y="477"/>
      <point x="202" y="443" type="curve" smooth="yes"/>
      <point x="202" y="398"/>
      <point x="238" y="365"/>
      <point x="287" y="321" type="curve" smooth="yes"/>
      <point x="581" y="65" type="line" smooth="yes"/>
      <point x="599" y="49"/>
      <point x="601" y="20"/>
      <point x="585" y="2" type="curve" smooth="yes"/>
      <point x="570" y="-16"/>
      <point x="541" y="-18"/>
      <point x="523" y="-3" type="curve" smooth="yes"/>
      <point x="227" y="255" type="line" smooth="yes"/>
      <point x="152" y="321"/>
      <point x="104" y="374"/>
      <point x="104" y="443" type="curve"/>
      <point x="104" y="535"/>
      <point x="173" y="592"/>
      <point x="261" y="592" type="curve" smooth="yes"/>
      <point x="351" y="592"/>
      <point x="421" y="528"/>
      <point x="421" y="447" type="curve" smooth="yes"/>
      <point x="421" y="380"/>
      <point x="382" y="328"/>
      <point x="293" y="290" type="curve" smooth="yes"/>
      <point x="173" y="241"/>
      <point x="136" y="202"/>
      <point x="136" y="146" type="curve" smooth="yes"/>
      <point x="136" y="99"/>
      <point x="179" y="67"/>
      <point x="235" y="67" type="curve" smooth="yes"/>
      <point x="300" y="67"/>
      <point x="344" y="105"/>
      <point x="409" y="196" type="curve" smooth="yes"/>
      <point x="499" y="324" type="line" smooth="yes"/>
      <point x="512" y="344"/>
      <point x="542" y="348"/>
      <point x="561" y="334" type="curve" smooth="yes"/>
      <point x="581" y="320"/>
      <point x="587" y="291"/>
    </contour>
  </outline>
</glyph>
<glyph name="quotesingle" format="1">
  <advance width="237"/>
  <unicode hex="0027"/>
  <outline>
    <contour>
      <point x="182" y="581" type="curve" smooth="yes"/>
      <point x="140" y="397" type="line" smooth="yes"/>
      <point x="135" y="374"/>
      <point x="106" y="360"/>
      <point x="83" y="365" type="curve" smooth="yes"/>
      <point x="60" y="370"/>
      <point x="41" y="396"/>
      <point x="46" y="419" type="curve" smooth="yes"/>
      <point x="88" y="603" type="line" smooth="yes"/>
      <point x="93" y="626"/>
      <point x="122" y="640"/>
      <point x="145" y="635" type="curve" smooth="yes"/>
      <point x="168" y="630"/>
      <point x="187" y="604"/>
    </contour>
  </outline>
</glyph>
<glyph name="parenleft" format="1">
  <advance width="332"/>
  <unicode hex="0028"/>
  <outline>
    <contour>
      <point x="268" y="610" type="curve" smooth="yes"/>
      <point x="196" y="530"/>
      <point x="141" y="406"/>
      <point x="141" y="279" type="curve" smooth="yes"/>
      <point x="141" y="153"/>
      <point x="192" y="37"/>
      <point x="267" y="-42" type="curve" smooth="yes"/>
      <point x="284" y="-59"/>
      <point x="283" y="-88"/>
      <point x="266" y="-105" type="curve" smooth="yes"/>
      <point x="248" y="-121"/>
      <point x="219" y="-121"/>
      <point x="203" y="-104" type="curve" smooth="yes"/>
      <point x="112" y="-11"/>
      <point x="43" y="127"/>
      <point x="43" y="279" type="curve"/>
      <point x="43" y="432"/>
      <point x="116" y="576"/>
      <point x="202" y="670" type="curve" smooth="yes"/>
      <point x="218" y="688"/>
      <point x="247" y="689"/>
      <point x="265" y="673" type="curve" smooth="yes"/>
      <point x="282" y="657"/>
      <point x="284" y="627"/>
    </contour>
  </outline>
</glyph>
<glyph name="parenright" format="1">
  <advance width="332"/>
  <unicode hex="0029"/>
  <outline>
    <contour>
      <point x="130" y="670" type="curve" smooth="yes"/>
      <point x="216" y="576"/>
      <point x="289" y="432"/>
      <point x="289" y="279" type="curve" smooth="yes"/>
      <point x="289" y="127"/>
      <point x="220" y="-11"/>
      <point x="129" y="-104" type="curve" smooth="yes"/>
      <point x="113" y="-121"/>
      <point x="84" y="-121"/>
      <point x="66" y="-105" type="curve" smooth="yes"/>
      <point x="49" y="-88"/>
      <point x="48" y="-59"/>
      <point x="65" y="-42" type="curve" smooth="yes"/>
      <point x="140" y="37"/>
      <point x="191" y="153"/>
      <point x="191" y="279" type="curve" smooth="yes"/>
      <point x="191" y="406"/>
      <point x="136" y="530"/>
      <point x="64" y="610" type="curve" smooth="yes"/>
      <point x="48" y="627"/>
      <point x="50" y="657"/>
      <point x="67" y="673" type="curve" smooth="yes"/>
      <point x="85" y="689"/>
      <point x="114" y="688"/>
    </contour>
  </outline>
</glyph>
<glyph name="asterisk" format="1">
  <advance width="433"/>
  <unicode hex="002A"/>
  <outline>
    <contour>
      <point x="259" y="564" type="curve" smooth="yes"/>
      <point x="259" y="304" type="line" smooth="yes"/>
      <point x="259" y="281"/>
      <point x="239" y="261"/>
      <point x="216" y="261" type="curve" smooth="yes"/>
      <point x="193" y="261"/>
      <point x="173" y="281"/>
      <point x="173" y="304" type="curve" smooth="yes"/>
      <point x="173" y="564" type="line" smooth="yes"/>
      <point x="173" y="587"/>
      <point x="193" y="607"/>
      <point x="216" y="607" type="curve" smooth="yes"/>
      <point x="239" y="607"/>
      <point x="259" y="587"/>
    </contour>
    <contour>
      <point x="116" y="540" type="curve" smooth="yes"/>
      <point x="361" y="397" type="line" smooth="yes"/>
      <point x="381" y="385"/>
      <point x="388" y="358"/>
      <point x="376" y="338" type="curve" smooth="yes"/>
      <point x="364" y="318"/>
      <point x="337" y="311"/>
      <point x="317" y="323" type="curve" smooth="yes"/>
      <point x="72" y="466" type="line" smooth="yes"/>
      <point x="52" y="478"/>
      <point x="45" y="505"/>
      <point x="57" y="525" type="curve" smooth="yes"/>
      <point x="69" y="545"/>
      <point x="96" y="552"/>
    </contour>
    <contour>
      <point x="72" y="397" type="curve" smooth="yes"/>
      <point x="317" y="540" type="line" smooth="yes"/>
      <point x="337" y="552"/>
      <point x="364" y="545"/>
      <point x="376" y="525" type="curve" smooth="yes"/>
      <point x="388" y="505"/>
      <point x="381" y="478"/>
      <point x="361" y="466" type="curve" smooth="yes"/>
      <point x="116" y="323" type="line" smooth="yes"/>
      <point x="96" y="311"/>
      <point x="69" y="318"/>
      <point x="57" y="338" type="curve" smooth="yes"/>
      <point x="45" y="358"/>
      <point x="52" y="385"/>
    </contour>
  </outline>
</glyph>
<glyph name="plus" format="1">
  <advance width="537"/>
  <unicode hex="002B"/>
  <outline>
    <contour>
      <point x="91" y="328" type="curve" smooth="yes"/>
      <point x="445" y="328" type="line" smooth="yes"/>
      <point x="469" y="328"/>
      <point x="489" y="308"/>
      <point x="489" y="284" type="curve" smooth="yes"/>
      <point x="489" y="260"/>
      <point x="469" y="240"/>
      <point x="445" y="240" type="curve" smooth="yes"/>
      <point x="91" y="240" type="line" smooth="yes"/>
      <point x="67" y="240"/>
      <point x="47" y="260"/>
      <point x="47" y="284" type="curve" smooth="yes"/>
      <point x="47" y="308"/>
      <point x="67" y="328"/>
    </contour>
    <contour>
      <point x="219" y="112" type="curve" smooth="yes"/>
      <point x="219" y="455" type="line" smooth="yes"/>
      <point x="219" y="479"/>
      <point x="244" y="499"/>
      <point x="268" y="499" type="curve" smooth="yes"/>
      <point x="292" y="499"/>
      <point x="317" y="479"/>
      <point x="317" y="455" type="curve" smooth="yes"/>
      <point x="317" y="112" type="line" smooth="yes"/>
      <point x="317" y="88"/>
      <point x="292" y="68"/>
      <point x="268" y="68" type="curve" smooth="yes"/>
      <point x="244" y="68"/>
      <point x="219" y="88"/>
    </contour>
  </outline>
</glyph>
<glyph name="comma" format="1">
  <advance width="222"/>
  <unicode hex="002C"/>
  <outline>
    <contour>
      <point x="151" y="116" type="curve" smooth="yes"/>
      <point x="157" y="101"/>
      <point x="161" y="76"/>
      <point x="161" y="50" type="curve" smooth="yes"/>
      <point x="161" y="-9"/>
      <point x="137" y="-67"/>
      <point x="105" y="-110" type="curve" smooth="yes"/>
      <point x="90" y="-129"/>
      <point x="61" y="-132"/>
      <point x="42" y="-118" type="curve" smooth="yes"/>
      <point x="23" y="-104"/>
      <point x="17" y="-75"/>
      <point x="31" y="-56" type="curve" smooth="yes"/>
      <point x="53" y="-27"/>
      <point x="63" y="13"/>
      <point x="63" y="50" type="curve"/>
      <point x="63" y="64"/>
      <point x="63" y="77"/>
      <point x="61" y="86" type="curve" smooth="yes"/>
      <point x="53" y="108"/>
      <point x="70" y="135"/>
      <point x="92" y="143" type="curve" smooth="yes"/>
      <point x="115" y="150"/>
      <point x="144" y="139"/>
    </contour>
  </outline>
</glyph>
<glyph name="hyphen" format="1">
  <advance width="421"/>
  <unicode hex="002D"/>
  <outline>
    <contour>
      <point x="104" y="282" type="curve" smooth="yes"/>
      <point x="317" y="282" type="line" smooth="yes"/>
      <point x="341" y="282"/>
      <point x="361" y="262"/>
      <point x="361" y="238" type="curve" smooth="yes"/>
      <point x="361" y="214"/>
      <point x="341" y="194"/>
      <point x="317" y="194" type="curve" smooth="yes"/>
      <point x="104" y="194" type="line" smooth="yes"/>
      <point x="80" y="194"/>
      <point x="60" y="214"/>
      <point x="60" y="238" type="curve" smooth="yes"/>
      <point x="60" y="262"/>
      <point x="80" y="282"/>
    </contour>
  </outline>
</glyph>
<glyph name="period" format="1">
  <advance width="216"/>
  <unicode hex="002E"/>
  <outline>
    <contour>
      <point x="109" y="141" type="curve" smooth="yes"/>
      <point x="144" y="141"/>
      <point x="180" y="115"/>
      <point x="180" y="67" type="curve" smooth="yes"/>
      <point x="180" y="7"/>
      <point x="145" y="-7"/>
      <point x="110" y="-7" type="curve" smooth="yes"/>
      <point x="78" y="-7"/>
      <point x="39" y="9"/>
      <point x="39" y="67" type="curve"/>
      <point x="39" y="117"/>
      <point x="70" y="141"/>
    </contour>
  </outline>
</glyph>
<glyph name="slash" format="1">
  <advance width="395"/>
  <unicode hex="002F"/>
  <outline>
    <contour>
      <point x="370" y="624" type="curve" smooth="yes"/>
      <point x="109" y="-90" type="line" smooth="yes"/>
      <point x="101" y="-113"/>
      <point x="71" y="-123"/>
      <point x="49" y="-115" type="curve" smooth="yes"/>
      <point x="27" y="-107"/>
      <point x="11" y="-80"/>
      <point x="19" y="-58" type="curve" smooth="yes"/>
      <point x="280" y="656" type="line" smooth="yes"/>
      <point x="288" y="679"/>
      <point x="318" y="689"/>
      <point x="340" y="681" type="curve" smooth="yes"/>
      <point x="362" y="673"/>
      <point x="378" y="646"/>
    </contour>
  </outline>
</glyph>
<glyph name="zero" format="1">
  <advance width="574"/>
  <unicode hex="0030"/>
  <outline>
    <contour>
      <point x="288" y="593" type="curve" smooth="yes"/>
      <point x="422" y="593"/>
      <point x="544" y="475"/>
      <point x="544" y="287" type="curve" smooth="yes"/>
      <point x="544" y="109"/>
      <point x="443" y="-22"/>
      <point x="288" y="-22" type="curve" smooth="yes"/>
      <point x="146" y="-22"/>
      <point x="29" y="110"/>
      <point x="29" y="285" type="curve"/>
      <point x="29" y="475"/>
      <point x="143" y="593"/>
    </contour>
    <contour>
      <point x="288" y="505" type="curve" smooth="yes"/>
      <point x="185" y="505"/>
      <point x="127" y="403"/>
      <point x="127" y="285" type="curve" smooth="yes"/>
      <point x="127" y="176"/>
      <point x="186" y="66"/>
      <point x="288" y="66" type="curve" smooth="yes"/>
      <point x="399" y="66"/>
      <point x="446" y="177"/>
      <point x="446" y="287" type="curve" smooth="yes"/>
      <point x="446" y="403"/>
      <point x="384" y="505"/>
    </contour>
  </outline>
</glyph>
<glyph name="one" format="1">
  <advance width="324"/>
  <unicode hex="0031"/>
  <outline>
    <contour>
      <point x="254" y="533" type="curve" smooth="yes"/>
      <point x="254" y="31" type="line" smooth="yes"/>
      <point x="254" y="7"/>
      <point x="229" y="-13"/>
      <point x="205" y="-13" type="curve" smooth="yes"/>
      <point x="181" y="-13"/>
      <point x="156" y="7"/>
      <point x="156" y="31" type="curve" smooth="yes"/>
      <point x="156" y="533" type="line" smooth="yes"/>
      <point x="156" y="557"/>
      <point x="181" y="577"/>
      <point x="205" y="577" type="curve" smooth="yes"/>
      <point x="229" y="577"/>
      <point x="254" y="557"/>
    </contour>
    <contour>
      <point x="226" y="501" type="curve" smooth="yes"/>
      <point x="90" y="427" type="line" smooth="yes"/>
      <point x="69" y="416"/>
      <point x="42" y="424"/>
      <point x="30" y="445" type="curve" smooth="yes"/>
      <point x="19" y="466"/>
      <point x="27" y="493"/>
      <point x="48" y="505" type="curve" smooth="yes"/>
      <point x="184" y="579" type="line" smooth="yes"/>
      <point x="205" y="590"/>
      <point x="232" y="582"/>
      <point x="244" y="561" type="curve" smooth="yes"/>
      <point x="255" y="540"/>
      <point x="247" y="513"/>
    </contour>
  </outline>
</glyph>
<glyph name="two" format="1">
  <advance width="513"/>
  <unicode hex="0032"/>
  <outline>
    <contour>
      <point x="49" y="72" type="curve" smooth="yes"/>
      <point x="224" y="239" type="line" smooth="yes"/>
      <point x="321" y="333"/>
      <point x="356" y="374"/>
      <point x="356" y="430" type="curve" smooth="yes"/>
      <point x="356" y="470"/>
      <point x="322" y="505"/>
      <point x="261" y="505" type="curve" smooth="yes"/>
      <point x="214" y="505"/>
      <point x="168" y="492"/>
      <point x="125" y="465" type="curve" smooth="yes"/>
      <point x="105" y="453"/>
      <point x="77" y="460"/>
      <point x="65" y="480" type="curve" smooth="yes"/>
      <point x="52" y="500"/>
      <point x="59" y="528"/>
      <point x="79" y="541" type="curve" smooth="yes"/>
      <point x="136" y="576"/>
      <point x="198" y="593"/>
      <point x="261" y="593" type="curve" smooth="yes"/>
      <point x="394" y="593"/>
      <point x="454" y="512"/>
      <point x="454" y="430" type="curve" smooth="yes"/>
      <point x="454" y="356"/>
      <point x="417" y="299"/>
      <point x="286" y="175" type="curve" smooth="yes"/>
      <point x="111" y="8" type="line" smooth="yes"/>
      <point x="94" y="-9"/>
      <point x="65" y="-8"/>
      <point x="48" y="10" type="curve" smooth="yes"/>
      <point x="32" y="27"/>
      <point x="32" y="56"/>
    </contour>
    <contour>
      <point x="439" y="-13" type="curve" smooth="yes"/>
      <point x="70" y="-13" type="line" smooth="yes"/>
      <point x="46" y="-13"/>
      <point x="26" y="7"/>
      <point x="26" y="31" type="curve" smooth="yes"/>
      <point x="26" y="55"/>
      <point x="46" y="75"/>
      <point x="70" y="75" type="curve" smooth="yes"/>
      <point x="439" y="75" type="line" smooth="yes"/>
      <point x="463" y="75"/>
      <point x="483" y="55"/>
      <point x="483" y="31" type="curve" smooth="yes"/>
      <point x="483" y="7"/>
      <point x="463" y="-13"/>
    </contour>
  </outline>
</glyph>
<glyph name="three" format="1">
  <advance width="518"/>
  <unicode hex="0033"/>
  <outline>
    <contour>
      <point x="111" y="584" type="curve" smooth="yes"/>
      <point x="423" y="584" type="line" smooth="yes"/>
      <point x="447" y="584"/>
      <point x="467" y="564"/>
      <point x="467" y="540" type="curve" smooth="yes"/>
      <point x="467" y="516"/>
      <point x="447" y="496"/>
      <point x="423" y="496" type="curve" smooth="yes"/>
      <point x="111" y="496" type="line" smooth="yes"/>
      <point x="87" y="496"/>
      <point x="67" y="516"/>
      <point x="67" y="540" type="curve" smooth="yes"/>
      <point x="67" y="564"/>
      <point x="87" y="584"/>
    </contour>
    <contour>
      <point x="110" y="99" type="curve" smooth="yes"/>
      <point x="150" y="82"/>
      <point x="200" y="71"/>
      <point x="258" y="71" type="curve" smooth="yes"/>
      <point x="342" y="71"/>
      <point x="389" y="110"/>
      <point x="389" y="170" type="curve" smooth="yes"/>
      <point x="389" y="227"/>
      <point x="341" y="262"/>
      <point x="269" y="262" type="curve" smooth="yes"/>
      <point x="226" y="262"/>
      <point x="191" y="255"/>
      <point x="171" y="248" type="curve" smooth="yes"/>
      <point x="149" y="241"/>
      <point x="123" y="253"/>
      <point x="115" y="276" type="curve" smooth="yes"/>
      <point x="108" y="298"/>
      <point x="120" y="324"/>
      <point x="143" y="332" type="curve" smooth="yes"/>
      <point x="169" y="341"/>
      <point x="214" y="350"/>
      <point x="269" y="350" type="curve" smooth="yes"/>
      <point x="409" y="350"/>
      <point x="487" y="273"/>
      <point x="487" y="170" type="curve" smooth="yes"/>
      <point x="487" y="66"/>
      <point x="418" y="-17"/>
      <point x="258" y="-17" type="curve" smooth="yes"/>
      <point x="186" y="-17"/>
      <point x="124" y="-2"/>
      <point x="76" y="19" type="curve" smooth="yes"/>
      <point x="54" y="28"/>
      <point x="43" y="55"/>
      <point x="53" y="76" type="curve" smooth="yes"/>
      <point x="62" y="98"/>
      <point x="89" y="109"/>
    </contour>
    <contour>
      <point x="444" y="499" type="curve" smooth="yes"/>
      <point x="193" y="262" type="line" smooth="yes"/>
      <point x="175" y="246"/>
      <point x="146" y="248"/>
      <point x="130" y="265" type="curve" smooth="yes"/>
      <point x="114" y="282"/>
      <point x="114" y="311"/>
      <point x="131" y="328" type="curve" smooth="yes"/>
      <point x="382" y="565" type="line" smooth="yes"/>
      <point x="400" y="581"/>
      <point x="429" y="579"/>
      <point x="445" y="562" type="curve" smooth="yes"/>
      <point x="461" y="545"/>
      <point x="461" y="516"/>
    </contour>
  </outline>
</glyph>
<glyph name="four" format="1">
  <advance width="538"/>
  <unicode hex="0034"/>
  <outline>
    <contour>
      <point x="424" y="550" type="curve" smooth="yes"/>
      <point x="424" y="31" type="line" smooth="yes"/>
      <point x="424" y="7"/>
      <point x="399" y="-13"/>
      <point x="375" y="-13" type="curve" smooth="yes"/>
      <point x="351" y="-13"/>
      <point x="326" y="7"/>
      <point x="326" y="31" type="curve" smooth="yes"/>
      <point x="326" y="550" type="line" smooth="yes"/>
      <point x="326" y="574"/>
      <point x="351" y="594"/>
      <point x="375" y="594" type="curve" smooth="yes"/>
      <point x="399" y="594"/>
      <point x="424" y="574"/>
    </contour>
    <contour>
      <point x="403" y="512" type="curve" smooth="yes"/>
      <point x="89" y="132" type="line" smooth="yes"/>
      <point x="74" y="114"/>
      <point x="44" y="112"/>
      <point x="26" y="127" type="curve" smooth="yes"/>
      <point x="8" y="142"/>
      <point x="4" y="172"/>
      <point x="19" y="190" type="curve" smooth="yes"/>
      <point x="333" y="570" type="line" smooth="yes"/>
      <point x="348" y="588"/>
      <point x="378" y="590"/>
      <point x="396" y="575" type="curve" smooth="yes"/>
      <point x="414" y="560"/>
      <point x="418" y="530"/>
    </contour>
    <contour>
      <point x="65" y="205" type="curve" smooth="yes"/>
      <point x="489" y="205" type="line" smooth="yes"/>
      <point x="513" y="205"/>
      <point x="533" y="185"/>
      <point x="533" y="161" type="curve" smooth="yes"/>
      <point x="533" y="137"/>
      <point x="513" y="117"/>
      <point x="489" y="117" type="curve" smooth="yes"/>
      <point x="65" y="117" type="line" smooth="yes"/>
      <point x="41" y="117"/>
      <point x="21" y="137"/>
      <point x="21" y="161" type="curve" smooth="yes"/>
      <point x="21" y="185"/>
      <point x="41" y="205"/>
    </contour>
  </outline>
</glyph>
<glyph name="five" format="1">
  <advance width="527"/>
  <unicode hex="0035"/>
  <outline>
    <contour>
      <point x="141" y="584" type="curve" smooth="yes"/>
      <point x="411" y="584" type="line" smooth="yes"/>
      <point x="435" y="584"/>
      <point x="455" y="564"/>
      <point x="455" y="540" type="curve" smooth="yes"/>
      <point x="455" y="516"/>
      <point x="435" y="496"/>
      <point x="411" y="496" type="curve" smooth="yes"/>
      <point x="141" y="496" type="line" smooth="yes"/>
      <point x="117" y="496"/>
      <point x="97" y="516"/>
      <point x="97" y="540" type="curve" smooth="yes"/>
      <point x="97" y="564"/>
      <point x="117" y="584"/>
    </contour>
    <contour>
      <point x="110" y="104" type="curve" smooth="yes"/>
      <point x="150" y="85"/>
      <point x="207" y="71"/>
      <point x="269" y="71" type="curve" smooth="yes"/>
      <point x="355" y="71"/>
      <point x="395" y="119"/>
      <point x="395" y="182" type="curve" smooth="yes"/>
      <point x="395" y="240"/>
      <point x="347" y="281"/>
      <point x="274" y="281" type="curve" smooth="yes"/>
      <point x="213" y="281"/>
      <point x="169" y="265"/>
      <point x="139" y="251" type="curve" smooth="yes"/>
      <point x="117" y="241"/>
      <point x="90" y="251"/>
      <point x="80" y="272" type="curve" smooth="yes"/>
      <point x="70" y="294"/>
      <point x="80" y="321"/>
      <point x="101" y="331" type="curve" smooth="yes"/>
      <point x="139" y="349"/>
      <point x="195" y="369"/>
      <point x="274" y="369" type="curve" smooth="yes"/>
      <point x="413" y="369"/>
      <point x="493" y="288"/>
      <point x="493" y="182" type="curve" smooth="yes"/>
      <point x="493" y="71"/>
      <point x="423" y="-17"/>
      <point x="269" y="-17" type="curve" smooth="yes"/>
      <point x="193" y="-17"/>
      <point x="122" y="1"/>
      <point x="72" y="24" type="curve" smooth="yes"/>
      <point x="51" y="34"/>
      <point x="41" y="61"/>
      <point x="51" y="83" type="curve" smooth="yes"/>
      <point x="61" y="104"/>
      <point x="88" y="114"/>
    </contour>
    <contour>
      <point x="189" y="529" type="curve" smooth="yes"/>
      <point x="169" y="293" type="line" smooth="yes"/>
      <point x="167" y="269"/>
      <point x="140" y="251"/>
      <point x="116" y="253" type="curve" smooth="yes"/>
      <point x="93" y="255"/>
      <point x="69" y="277"/>
      <point x="71" y="301" type="curve" smooth="yes"/>
      <point x="91" y="537" type="line" smooth="yes"/>
      <point x="93" y="561"/>
      <point x="120" y="579"/>
      <point x="144" y="577" type="curve" smooth="yes"/>
      <point x="167" y="575"/>
      <point x="191" y="553"/>
    </contour>
  </outline>
</glyph>
<glyph name="six" format="1">
  <advance width="546"/>
  <unicode hex="0036"/>
  <outline>
    <contour>
      <point x="384" y="493" type="curve" smooth="yes"/>
      <point x="360" y="501"/>
      <point x="341" y="505"/>
      <point x="311" y="505" type="curve" smooth="yes"/>
      <point x="195" y="505"/>
      <point x="139" y="403"/>
      <point x="139" y="268" type="curve" smooth="yes"/>
      <point x="139" y="147"/>
      <point x="193" y="71"/>
      <point x="289" y="71" type="curve" smooth="yes"/>
      <point x="379" y="71"/>
      <point x="416" y="130"/>
      <point x="416" y="186" type="curve" smooth="yes"/>
      <point x="416" y="245"/>
      <point x="374" y="287"/>
      <point x="310" y="287" type="curve" smooth="yes"/>
      <point x="234" y="287"/>
      <point x="177" y="228"/>
      <point x="153" y="141" type="curve" smooth="yes"/>
      <point x="147" y="118"/>
      <point x="118" y="105"/>
      <point x="95" y="112" type="curve" smooth="yes"/>
      <point x="72" y="118"/>
      <point x="54" y="144"/>
      <point x="61" y="167" type="curve" smooth="yes"/>
      <point x="99" y="306"/>
      <point x="198" y="375"/>
      <point x="310" y="375" type="curve" smooth="yes"/>
      <point x="430" y="375"/>
      <point x="514" y="299"/>
      <point x="514" y="186" type="curve" smooth="yes"/>
      <point x="514" y="86"/>
      <point x="449" y="-17"/>
      <point x="289" y="-17" type="curve" smooth="yes"/>
      <point x="151" y="-17"/>
      <point x="41" y="67"/>
      <point x="41" y="268" type="curve"/>
      <point x="41" y="481"/>
      <point x="153" y="593"/>
      <point x="311" y="593" type="curve" smooth="yes"/>
      <point x="351" y="593"/>
      <point x="378" y="587"/>
      <point x="410" y="577" type="curve" smooth="yes"/>
      <point x="433" y="570"/>
      <point x="446" y="544"/>
      <point x="439" y="522" type="curve" smooth="yes"/>
      <point x="432" y="499"/>
      <point x="406" y="486"/>
    </contour>
  </outline>
</glyph>
<glyph name="seven" format="1">
  <advance width="469"/>
  <unicode hex="0037"/>
  <outline>
    <contour>
      <point x="463" y="517" type="curve" smooth="yes"/>
      <point x="423" y="443"/>
      <point x="314" y="296"/>
      <point x="283" y="242" type="curve" smooth="yes"/>
      <point x="259" y="198"/>
      <point x="241" y="143"/>
      <point x="241" y="89" type="curve" smooth="yes"/>
      <point x="241" y="31" type="line" smooth="yes"/>
      <point x="241" y="7"/>
      <point x="216" y="-13"/>
      <point x="192" y="-13" type="curve" smooth="yes"/>
      <point x="168" y="-13"/>
      <point x="143" y="7"/>
      <point x="143" y="31" type="curve" smooth="yes"/>
      <point x="143" y="89" type="line" smooth="yes"/>
      <point x="143" y="159"/>
      <point x="171" y="230"/>
      <point x="203" y="288" type="curve" smooth="yes"/>
      <point x="234" y="342"/>
      <point x="341" y="487"/>
      <point x="381" y="561" type="curve" smooth="yes"/>
      <point x="392" y="582"/>
      <point x="422" y="589"/>
      <point x="443" y="578" type="curve" smooth="yes"/>
      <point x="464" y="566"/>
      <point x="474" y="538"/>
    </contour>
    <contour>
      <point x="414" y="496" type="curve" smooth="yes"/>
      <point x="54" y="496" type="line" smooth="yes"/>
      <point x="30" y="496"/>
      <point x="10" y="516"/>
      <point x="10" y="540" type="curve" smooth="yes"/>
      <point x="10" y="564"/>
      <point x="30" y="584"/>
      <point x="54" y="584" type="curve" smooth="yes"/>
      <point x="414" y="584" type="line" smooth="yes"/>
      <point x="438" y="584"/>
      <point x="458" y="564"/>
      <point x="458" y="540" type="curve" smooth="yes"/>
      <point x="458" y="516"/>
      <point x="438" y="496"/>
    </contour>
  </outline>
</glyph>
<glyph name="eight" format="1">
  <advance width="566"/>
  <unicode hex="0038"/>
  <outline>
    <contour>
      <point x="284" y="350" type="curve" smooth="yes"/>
      <point x="437" y="350"/>
      <point x="525" y="271"/>
      <point x="525" y="164" type="curve" smooth="yes"/>
      <point x="525" y="67"/>
      <point x="466" y="-21"/>
      <point x="284" y="-21" type="curve" smooth="yes"/>
      <point x="113" y="-21"/>
      <point x="41" y="68"/>
      <point x="41" y="163" type="curve"/>
      <point x="41" y="271"/>
      <point x="122" y="350"/>
    </contour>
    <contour>
      <point x="284" y="592" type="curve" smooth="yes"/>
      <point x="422" y="592"/>
      <point x="498" y="522"/>
      <point x="498" y="429" type="curve" smooth="yes"/>
      <point x="498" y="341"/>
      <point x="433" y="262"/>
      <point x="284" y="262" type="curve" smooth="yes"/>
      <point x="128" y="262"/>
      <point x="68" y="341"/>
      <point x="68" y="429" type="curve"/>
      <point x="68" y="522"/>
      <point x="139" y="592"/>
    </contour>
    <contour>
      <point x="284" y="262" type="curve" smooth="yes"/>
      <point x="198" y="262"/>
      <point x="139" y="227"/>
      <point x="139" y="163" type="curve" smooth="yes"/>
      <point x="139" y="106"/>
      <point x="195" y="67"/>
      <point x="284" y="67" type="curve" smooth="yes"/>
      <point x="380" y="67"/>
      <point x="427" y="107"/>
      <point x="427" y="164" type="curve" smooth="yes"/>
      <point x="427" y="227"/>
      <point x="365" y="262"/>
    </contour>
    <contour>
      <point x="284" y="504" type="curve" smooth="yes"/>
      <point x="217" y="504"/>
      <point x="166" y="480"/>
      <point x="166" y="429" type="curve" smooth="yes"/>
      <point x="166" y="381"/>
      <point x="210" y="350"/>
      <point x="284" y="350" type="curve" smooth="yes"/>
      <point x="355" y="350"/>
      <point x="400" y="381"/>
      <point x="400" y="429" type="curve" smooth="yes"/>
      <point x="400" y="480"/>
      <point x="348" y="504"/>
    </contour>
  </outline>
</glyph>
<glyph name="nine" format="1">
  <advance width="543"/>
  <unicode hex="0039"/>
  <outline>
    <contour>
      <point x="160" y="84" type="curve" smooth="yes"/>
      <point x="184" y="77"/>
      <point x="204" y="72"/>
      <point x="235" y="72" type="curve" smooth="yes"/>
      <point x="356" y="72"/>
      <point x="404" y="159"/>
      <point x="404" y="288" type="curve" smooth="yes"/>
      <point x="404" y="413"/>
      <point x="353" y="505"/>
      <point x="254" y="505" type="curve" smooth="yes"/>
      <point x="170" y="505"/>
      <point x="130" y="448"/>
      <point x="130" y="392" type="curve" smooth="yes"/>
      <point x="130" y="323"/>
      <point x="170" y="283"/>
      <point x="244" y="283" type="curve" smooth="yes"/>
      <point x="324" y="283"/>
      <point x="369" y="329"/>
      <point x="406" y="390" type="curve" smooth="yes"/>
      <point x="419" y="410"/>
      <point x="448" y="416"/>
      <point x="469" y="404" type="curve" smooth="yes"/>
      <point x="489" y="391"/>
      <point x="498" y="362"/>
      <point x="486" y="342" type="curve" smooth="yes"/>
      <point x="431" y="251"/>
      <point x="358" y="195"/>
      <point x="244" y="195" type="curve" smooth="yes"/>
      <point x="110" y="195"/>
      <point x="32" y="265"/>
      <point x="32" y="392" type="curve"/>
      <point x="32" y="492"/>
      <point x="104" y="593"/>
      <point x="254" y="593" type="curve" smooth="yes"/>
      <point x="393" y="593"/>
      <point x="502" y="495"/>
      <point x="502" y="288" type="curve" smooth="yes"/>
      <point x="502" y="85"/>
      <point x="406" y="-16"/>
      <point x="235" y="-16" type="curve" smooth="yes"/>
      <point x="196" y="-16"/>
      <point x="168" y="-9"/>
      <point x="138" y="-2" type="curve" smooth="yes"/>
      <point x="115" y="4"/>
      <point x="100" y="29"/>
      <point x="106" y="52" type="curve" smooth="yes"/>
      <point x="112" y="75"/>
      <point x="137" y="90"/>
    </contour>
  </outline>
</glyph>
<glyph name="colon" format="1">
  <advance width="244"/>
  <unicode hex="003A"/>
  <outline>
    <contour>
      <point x="121" y="115" type="curve" smooth="yes"/>
      <point x="157" y="115"/>
      <point x="192" y="88"/>
      <point x="192" y="40" type="curve" smooth="yes"/>
      <point x="192" y="-20"/>
      <point x="159" y="-34"/>
      <point x="122" y="-34" type="curve" smooth="yes"/>
      <point x="92" y="-34"/>
      <point x="51" y="-18"/>
      <point x="51" y="40" type="curve"/>
      <point x="51" y="90"/>
      <point x="85" y="115"/>
    </contour>
    <contour>
      <point x="121" y="398" type="curve" smooth="yes"/>
      <point x="158" y="398"/>
      <point x="192" y="369"/>
      <point x="192" y="324" type="curve" smooth="yes"/>
      <point x="192" y="264"/>
      <point x="158" y="249"/>
      <point x="122" y="249" type="curve" smooth="yes"/>
      <point x="93" y="249"/>
      <point x="51" y="266"/>
      <point x="51" y="324" type="curve"/>
      <point x="51" y="371"/>
      <point x="84" y="398"/>
    </contour>
  </outline>
</glyph>
<glyph name="semicolon" format="1">
  <advance width="222"/>
  <unicode hex="003B"/>
  <outline>
    <contour>
      <point x="109" y="421" type="curve" smooth="yes"/>
      <point x="144" y="421"/>
      <point x="180" y="392"/>
      <point x="180" y="347" type="curve" smooth="yes"/>
      <point x="180" y="287"/>
      <point x="144" y="272"/>
      <point x="110" y="272" type="curve" smooth="yes"/>
      <point x="79" y="272"/>
      <point x="39" y="289"/>
      <point x="39" y="347" type="curve" smooth="yes"/>
      <point x="39" y="394"/>
      <point x="70" y="421"/>
    </contour>
    <contour>
      <point x="152" y="109" type="curve" smooth="yes"/>
      <point x="157" y="93"/>
      <point x="161" y="69"/>
      <point x="161" y="43" type="curve" smooth="yes"/>
      <point x="161" y="-15"/>
      <point x="137" y="-72"/>
      <point x="105" y="-117" type="curve" smooth="yes"/>
      <point x="91" y="-136"/>
      <point x="61" y="-140"/>
      <point x="42" y="-126" type="curve" smooth="yes"/>
      <point x="23" y="-112"/>
      <point x="17" y="-82"/>
      <point x="31" y="-63" type="curve" smooth="yes"/>
      <point x="53" y="-34"/>
      <point x="63" y="5"/>
      <point x="63" y="43" type="curve"/>
      <point x="63" y="57"/>
      <point x="63" y="71"/>
      <point x="60" y="81" type="curve" smooth="yes"/>
      <point x="53" y="104"/>
      <point x="70" y="130"/>
      <point x="93" y="137" type="curve" smooth="yes"/>
      <point x="116" y="144"/>
      <point x="145" y="132"/>
    </contour>
  </outline>
</glyph>
<glyph name="less" format="1">
  <advance width="537"/>
  <unicode hex="003C"/>
  <outline>
    <contour>
      <point x="81" y="327" type="curve" smooth="yes"/>
      <point x="407" y="474" type="line" smooth="yes"/>
      <point x="429" y="484"/>
      <point x="455" y="474"/>
      <point x="465" y="452" type="curve" smooth="yes"/>
      <point x="475" y="430"/>
      <point x="465" y="404"/>
      <point x="443" y="394" type="curve" smooth="yes"/>
      <point x="117" y="247" type="line" smooth="yes"/>
      <point x="95" y="237"/>
      <point x="69" y="247"/>
      <point x="59" y="269" type="curve" smooth="yes"/>
      <point x="49" y="291"/>
      <point x="59" y="317"/>
    </contour>
    <contour>
      <point x="413" y="90" type="curve" smooth="yes"/>
      <point x="75" y="243" type="line" smooth="yes"/>
      <point x="53" y="253"/>
      <point x="43" y="279"/>
      <point x="53" y="301" type="curve" smooth="yes"/>
      <point x="63" y="323"/>
      <point x="90" y="333"/>
      <point x="111" y="323" type="curve" smooth="yes"/>
      <point x="449" y="170" type="line" smooth="yes"/>
      <point x="471" y="160"/>
      <point x="481" y="134"/>
      <point x="471" y="112" type="curve" smooth="yes"/>
      <point x="461" y="90"/>
      <point x="434" y="80"/>
    </contour>
  </outline>
</glyph>
<glyph name="equal" format="1">
  <advance width="537"/>
  <unicode hex="003D"/>
  <outline>
    <contour>
      <point x="91" y="426" type="curve" smooth="yes"/>
      <point x="445" y="426" type="line" smooth="yes"/>
      <point x="469" y="426"/>
      <point x="489" y="406"/>
      <point x="489" y="382" type="curve" smooth="yes"/>
      <point x="489" y="358"/>
      <point x="469" y="338"/>
      <point x="445" y="338" type="curve" smooth="yes"/>
      <point x="91" y="338" type="line" smooth="yes"/>
      <point x="67" y="338"/>
      <point x="47" y="358"/>
      <point x="47" y="382" type="curve" smooth="yes"/>
      <point x="47" y="406"/>
      <point x="67" y="426"/>
    </contour>
    <contour>
      <point x="91" y="218" type="curve" smooth="yes"/>
      <point x="445" y="218" type="line" smooth="yes"/>
      <point x="469" y="218"/>
      <point x="489" y="198"/>
      <point x="489" y="174" type="curve" smooth="yes"/>
      <point x="489" y="150"/>
      <point x="469" y="130"/>
      <point x="445" y="130" type="curve" smooth="yes"/>
      <point x="91" y="130" type="line" smooth="yes"/>
      <point x="67" y="130"/>
      <point x="47" y="150"/>
      <point x="47" y="174" type="curve" smooth="yes"/>
      <point x="47" y="198"/>
      <point x="67" y="218"/>
    </contour>
  </outline>
</glyph>
<glyph name="greater" format="1">
  <advance width="521"/>
  <unicode hex="003E"/>
  <outline>
    <contour>
      <point x="416" y="247" type="curve" smooth="yes"/>
      <point x="91" y="394" type="line" smooth="yes"/>
      <point x="69" y="404"/>
      <point x="59" y="430"/>
      <point x="69" y="452" type="curve" smooth="yes"/>
      <point x="79" y="474"/>
      <point x="106" y="484"/>
      <point x="127" y="474" type="curve" smooth="yes"/>
      <point x="452" y="327" type="line" smooth="yes"/>
      <point x="474" y="317"/>
      <point x="484" y="291"/>
      <point x="474" y="269" type="curve" smooth="yes"/>
      <point x="464" y="247"/>
      <point x="437" y="237"/>
    </contour>
    <contour>
      <point x="84" y="170" type="curve" smooth="yes"/>
      <point x="422" y="323" type="line" smooth="yes"/>
      <point x="443" y="333"/>
      <point x="470" y="323"/>
      <point x="480" y="301" type="curve" smooth="yes"/>
      <point x="490" y="279"/>
      <point x="480" y="253"/>
      <point x="458" y="243" type="curve" smooth="yes"/>
      <point x="120" y="90" type="line" smooth="yes"/>
      <point x="99" y="80"/>
      <point x="72" y="90"/>
      <point x="62" y="112" type="curve" smooth="yes"/>
      <point x="52" y="134"/>
      <point x="62" y="160"/>
    </contour>
  </outline>
</glyph>
<glyph name="question" format="1">
  <advance width="370"/>
  <unicode hex="003F"/>
  <outline>
    <contour>
      <point x="161" y="130" type="curve" smooth="yes"/>
      <point x="198" y="130"/>
      <point x="232" y="104"/>
      <point x="232" y="56" type="curve" smooth="yes"/>
      <point x="232" y="-4"/>
      <point x="199" y="-18"/>
      <point x="162" y="-18" type="curve" smooth="yes"/>
      <point x="132" y="-18"/>
      <point x="91" y="-2"/>
      <point x="91" y="56" type="curve"/>
      <point x="91" y="106"/>
      <point x="122" y="130"/>
    </contour>
    <contour>
      <point x="39" y="551" type="curve" smooth="yes"/>
      <point x="82" y="578"/>
      <point x="125" y="593"/>
      <point x="194" y="593" type="curve" smooth="yes"/>
      <point x="313" y="593"/>
      <point x="372" y="521"/>
      <point x="372" y="442" type="curve" smooth="yes"/>
      <point x="372" y="373"/>
      <point x="320" y="322"/>
      <point x="252" y="287" type="curve" smooth="yes"/>
      <point x="215" y="267"/>
      <point x="207" y="253"/>
      <point x="205" y="219" type="curve" smooth="yes"/>
      <point x="204" y="196"/>
      <point x="177" y="177"/>
      <point x="154" y="178" type="curve" smooth="yes"/>
      <point x="130" y="179"/>
      <point x="106" y="201"/>
      <point x="107" y="225" type="curve" smooth="yes"/>
      <point x="111" y="297"/>
      <point x="135" y="325"/>
      <point x="212" y="365" type="curve" smooth="yes"/>
      <point x="246" y="382"/>
      <point x="274" y="407"/>
      <point x="274" y="442" type="curve" smooth="yes"/>
      <point x="274" y="477"/>
      <point x="243" y="505"/>
      <point x="194" y="505" type="curve" smooth="yes"/>
      <point x="145" y="505"/>
      <point x="116" y="494"/>
      <point x="85" y="475" type="curve" smooth="yes"/>
      <point x="65" y="463"/>
      <point x="37" y="470"/>
      <point x="25" y="490" type="curve" smooth="yes"/>
      <point x="12" y="510"/>
      <point x="18" y="538"/>
    </contour>
  </outline>
</glyph>
<glyph name="at" format="1">
  <advance width="678"/>
  <unicode hex="0040"/>
  <outline>
    <contour>
      <point x="476" y="406" type="curve" smooth="yes"/>
      <point x="476" y="269" type="line" smooth="yes"/>
      <point x="476" y="237"/>
      <point x="492" y="210"/>
      <point x="519" y="210" type="curve" smooth="yes"/>
      <point x="554" y="210"/>
      <point x="568" y="252"/>
      <point x="568" y="295" type="curve" smooth="yes"/>
      <point x="568" y="407"/>
      <point x="484" y="508"/>
      <point x="343" y="508" type="curve" smooth="yes"/>
      <point x="210" y="508"/>
      <point x="113" y="405"/>
      <point x="113" y="281" type="curve"/>
      <point x="113" y="157"/>
      <point x="209" y="63"/>
      <point x="346" y="63" type="curve" smooth="yes"/>
      <point x="404" y="63"/>
      <point x="453" y="76"/>
      <point x="490" y="92" type="curve" smooth="yes"/>
      <point x="511" y="102"/>
      <point x="537" y="92"/>
      <point x="546" y="70" type="curve" smooth="yes"/>
      <point x="556" y="49"/>
      <point x="546" y="23"/>
      <point x="524" y="14" type="curve" smooth="yes"/>
      <point x="479" y="-6"/>
      <point x="418" y="-23"/>
      <point x="346" y="-23" type="curve" smooth="yes"/>
      <point x="155" y="-23"/>
      <point x="27" y="111"/>
      <point x="27" y="281" type="curve"/>
      <point x="27" y="451"/>
      <point x="160" y="594"/>
      <point x="343" y="594" type="curve" smooth="yes"/>
      <point x="540" y="594"/>
      <point x="654" y="449"/>
      <point x="654" y="295" type="curve" smooth="yes"/>
      <point x="654" y="176"/>
      <point x="590" y="124"/>
      <point x="519" y="124" type="curve" smooth="yes"/>
      <point x="452" y="124"/>
      <point x="390" y="173"/>
      <point x="390" y="269" type="curve" smooth="yes"/>
      <point x="390" y="406" type="line" smooth="yes"/>
      <point x="390" y="429"/>
      <point x="410" y="449"/>
      <point x="433" y="449" type="curve" smooth="yes"/>
      <point x="456" y="449"/>
      <point x="476" y="429"/>
    </contour>
    <contour>
      <point x="409" y="341" type="curve" smooth="yes"/>
      <point x="389" y="355"/>
      <point x="366" y="363"/>
      <point x="338" y="363" type="curve" smooth="yes"/>
      <point x="296" y="363"/>
      <point x="264" y="328"/>
      <point x="264" y="277" type="curve" smooth="yes"/>
      <point x="264" y="238"/>
      <point x="288" y="211"/>
      <point x="319" y="211" type="curve" smooth="yes"/>
      <point x="348" y="211"/>
      <point x="375" y="231"/>
      <point x="395" y="265" type="curve" smooth="yes"/>
      <point x="406" y="285"/>
      <point x="433" y="292"/>
      <point x="454" y="280" type="curve" smooth="yes"/>
      <point x="474" y="269"/>
      <point x="481" y="242"/>
      <point x="469" y="221" type="curve" smooth="yes"/>
      <point x="431" y="155"/>
      <point x="374" y="125"/>
      <point x="319" y="125" type="curve" smooth="yes"/>
      <point x="248" y="125"/>
      <point x="178" y="178"/>
      <point x="178" y="277" type="curve" smooth="yes"/>
      <point x="178" y="386"/>
      <point x="254" y="449"/>
      <point x="338" y="449" type="curve" smooth="yes"/>
      <point x="386" y="449"/>
      <point x="423" y="435"/>
      <point x="457" y="413" type="curve" smooth="yes"/>
      <point x="476" y="400"/>
      <point x="482" y="372"/>
      <point x="469" y="353" type="curve" smooth="yes"/>
      <point x="456" y="334"/>
      <point x="428" y="328"/>
    </contour>
  </outline>
</glyph>
<glyph name="A" format="1">
  <advance width="589"/>
  <unicode hex="0041"/>
  <outline>
    <contour>
      <point x="328" y="510" type="curve" smooth="yes"/>
      <point x="258" y="351"/>
      <point x="159" y="126"/>
      <point x="112" y="-5" type="curve" smooth="yes"/>
      <point x="104" y="-27"/>
      <point x="75" y="-38"/>
      <point x="52" y="-30" type="curve" smooth="yes"/>
      <point x="30" y="-22"/>
      <point x="14" y="5"/>
      <point x="22" y="27" type="curve" smooth="yes"/>
      <point x="69" y="160"/>
      <point x="170" y="387"/>
      <point x="242" y="548" type="curve" smooth="yes"/>
      <point x="252" y="570"/>
      <point x="281" y="579"/>
      <point x="303" y="569" type="curve" smooth="yes"/>
      <point x="325" y="560"/>
      <point x="338" y="532"/>
    </contour>
    <contour>
      <point x="334" y="549" type="curve" smooth="yes"/>
      <point x="410" y="387"/>
      <point x="514" y="158"/>
      <point x="564" y="28" type="curve" smooth="yes"/>
      <point x="573" y="6"/>
      <point x="558" y="-21"/>
      <point x="536" y="-30" type="curve" smooth="yes"/>
      <point x="514" y="-39"/>
      <point x="484" y="-28"/>
      <point x="476" y="-6" type="curve" smooth="yes"/>
      <point x="426" y="122"/>
      <point x="324" y="349"/>
      <point x="248" y="509" type="curve" smooth="yes"/>
      <point x="238" y="530"/>
      <point x="251" y="559"/>
      <point x="272" y="569" type="curve" smooth="yes"/>
      <point x="294" y="579"/>
      <point x="323" y="571"/>
    </contour>
    <contour>
      <point x="139" y="207" type="curve" smooth="yes"/>
      <point x="445" y="207" type="line" smooth="yes"/>
      <point x="469" y="207"/>
      <point x="489" y="187"/>
      <point x="489" y="163" type="curve" smooth="yes"/>
      <point x="489" y="139"/>
      <point x="469" y="119"/>
      <point x="445" y="119" type="curve" smooth="yes"/>
      <point x="139" y="119" type="line" smooth="yes"/>
      <point x="115" y="119"/>
      <point x="95" y="139"/>
      <point x="95" y="163" type="curve" smooth="yes"/>
      <point x="95" y="187"/>
      <point x="115" y="207"/>
    </contour>
  </outline>
</glyph>
<glyph name="B" format="1">
  <advance width="534"/>
  <unicode hex="0042"/>
  <outline>
    <contour>
      <point x="129" y="348" type="curve" smooth="yes"/>
      <point x="285" y="348" type="line" smooth="yes"/>
      <point x="353" y="348"/>
      <point x="414" y="324"/>
      <point x="450" y="288" type="curve" smooth="yes"/>
      <point x="486" y="251"/>
      <point x="506" y="212"/>
      <point x="506" y="164" type="curve" smooth="yes"/>
      <point x="506" y="121"/>
      <point x="486" y="78"/>
      <point x="454" y="45" type="curve" smooth="yes"/>
      <point x="419" y="12"/>
      <point x="368" y="-13"/>
      <point x="282" y="-13" type="curve" smooth="yes"/>
      <point x="119" y="-13" type="line" smooth="yes"/>
      <point x="92" y="-13"/>
      <point x="70" y="7"/>
      <point x="70" y="31" type="curve" smooth="yes"/>
      <point x="70" y="540" type="line" smooth="yes"/>
      <point x="70" y="564"/>
      <point x="92" y="584"/>
      <point x="119" y="584" type="curve" smooth="yes"/>
      <point x="265" y="584" type="line" smooth="yes"/>
      <point x="334" y="584"/>
      <point x="378" y="561"/>
      <point x="407" y="533" type="curve" smooth="yes"/>
      <point x="434" y="506"/>
      <point x="456" y="463"/>
      <point x="456" y="424" type="curve" smooth="yes"/>
      <point x="456" y="379"/>
      <point x="433" y="340"/>
      <point x="407" y="313" type="curve" smooth="yes"/>
      <point x="382" y="289"/>
      <point x="336" y="264"/>
      <point x="280" y="260" type="curve" smooth="yes"/>
      <point x="256" y="258"/>
      <point x="235" y="277"/>
      <point x="233" y="301" type="curve" smooth="yes"/>
      <point x="231" y="325"/>
      <point x="250" y="346"/>
      <point x="274" y="348" type="curve" smooth="yes"/>
      <point x="304" y="350"/>
      <point x="330" y="363"/>
      <point x="343" y="377" type="curve" smooth="yes"/>
      <point x="355" y="388"/>
      <point x="358" y="407"/>
      <point x="358" y="424" type="curve" smooth="yes"/>
      <point x="358" y="439"/>
      <point x="354" y="458"/>
      <point x="343" y="469" type="curve" smooth="yes"/>
      <point x="328" y="485"/>
      <point x="302" y="496"/>
      <point x="265" y="496" type="curve" smooth="yes"/>
      <point x="119" y="496" type="line"/>
      <point x="168" y="540" type="line"/>
      <point x="168" y="31" type="line"/>
      <point x="119" y="75" type="line"/>
      <point x="282" y="75" type="line" smooth="yes"/>
      <point x="336" y="75"/>
      <point x="369" y="88"/>
      <point x="390" y="109" type="curve" smooth="yes"/>
      <point x="406" y="124"/>
      <point x="408" y="145"/>
      <point x="408" y="164" type="curve" smooth="yes"/>
      <point x="408" y="186"/>
      <point x="404" y="207"/>
      <point x="386" y="224" type="curve" smooth="yes"/>
      <point x="364" y="246"/>
      <point x="327" y="260"/>
      <point x="285" y="260" type="curve" smooth="yes"/>
      <point x="129" y="260" type="line" smooth="yes"/>
      <point x="105" y="260"/>
      <point x="85" y="280"/>
      <point x="85" y="304" type="curve" smooth="yes"/>
      <point x="85" y="328"/>
      <point x="105" y="348"/>
    </contour>
  </outline>
</glyph>
<glyph name="C" format="1">
  <advance width="574"/>
  <unicode hex="0043"/>
  <outline>
    <contour>
      <point x="463" y="480" type="curve" smooth="yes"/>
      <point x="433" y="496"/>
      <point x="388" y="506"/>
      <point x="341" y="506" type="curve" smooth="yes"/>
      <point x="224" y="506"/>
      <point x="129" y="412"/>
      <point x="129" y="282" type="curve" smooth="yes"/>
      <point x="129" y="162"/>
      <point x="206" y="65"/>
      <point x="347" y="65" type="curve" smooth="yes"/>
      <point x="394" y="65"/>
      <point x="435" y="75"/>
      <point x="469" y="92" type="curve" smooth="yes"/>
      <point x="490" y="103"/>
      <point x="517" y="94"/>
      <point x="528" y="73" type="curve" smooth="yes"/>
      <point x="539" y="52"/>
      <point x="530" y="25"/>
      <point x="509" y="14" type="curve" smooth="yes"/>
      <point x="465" y="-9"/>
      <point x="410" y="-23"/>
      <point x="347" y="-23" type="curve" smooth="yes"/>
      <point x="150" y="-23"/>
      <point x="31" y="108"/>
      <point x="31" y="282" type="curve"/>
      <point x="31" y="472"/>
      <point x="178" y="594"/>
      <point x="341" y="594" type="curve" smooth="yes"/>
      <point x="404" y="594"/>
      <point x="465" y="580"/>
      <point x="505" y="558" type="curve" smooth="yes"/>
      <point x="526" y="546"/>
      <point x="534" y="519"/>
      <point x="523" y="498" type="curve" smooth="yes"/>
      <point x="511" y="477"/>
      <point x="484" y="469"/>
    </contour>
  </outline>
</glyph>
<glyph name="E" format="1">
  <advance width="491"/>
  <unicode hex="0045"/>
  <outline>
    <contour>
      <point x="168" y="540" type="curve" smooth="yes"/>
      <point x="168" y="31" type="line" smooth="yes"/>
      <point x="168" y="7"/>
      <point x="143" y="-13"/>
      <point x="119" y="-13" type="curve" smooth="yes"/>
      <point x="95" y="-13"/>
      <point x="70" y="7"/>
      <point x="70" y="31" type="curve" smooth="yes"/>
      <point x="70" y="540" type="line" smooth="yes"/>
      <point x="70" y="564"/>
      <point x="95" y="584"/>
      <point x="119" y="584" type="curve" smooth="yes"/>
      <point x="143" y="584"/>
      <point x="168" y="564"/>
    </contour>
    <contour>
      <point x="128" y="75" type="curve" smooth="yes"/>
      <point x="412" y="75" type="line" smooth="yes"/>
      <point x="436" y="75"/>
      <point x="456" y="55"/>
      <point x="456" y="31" type="curve" smooth="yes"/>
      <point x="456" y="7"/>
      <point x="436" y="-13"/>
      <point x="412" y="-13" type="curve" smooth="yes"/>
      <point x="128" y="-13" type="line" smooth="yes"/>
      <point x="104" y="-13"/>
      <point x="84" y="7"/>
      <point x="84" y="31" type="curve" smooth="yes"/>
      <point x="84" y="55"/>
      <point x="104" y="75"/>
    </contour>
    <contour>
      <point x="128" y="584" type="curve" smooth="yes"/>
      <point x="410" y="584" type="line" smooth="yes"/>
      <point x="434" y="584"/>
      <point x="454" y="564"/>
      <point x="454" y="540" type="curve" smooth="yes"/>
      <point x="454" y="516"/>
      <point x="434" y="496"/>
      <point x="410" y="496" type="curve" smooth="yes"/>
      <point x="128" y="496" type="line" smooth="yes"/>
      <point x="104" y="496"/>
      <point x="84" y="516"/>
      <point x="84" y="540" type="curve" smooth="yes"/>
      <point x="84" y="564"/>
      <point x="104" y="584"/>
    </contour>
    <contour>
      <point x="128" y="349" type="curve" smooth="yes"/>
      <point x="365" y="349" type="line" smooth="yes"/>
      <point x="389" y="349"/>
      <point x="409" y="329"/>
      <point x="409" y="305" type="curve" smooth="yes"/>
      <point x="409" y="281"/>
      <point x="389" y="261"/>
      <point x="365" y="261" type="curve" smooth="yes"/>
      <point x="128" y="261" type="line" smooth="yes"/>
      <point x="104" y="261"/>
      <point x="84" y="281"/>
      <point x="84" y="305" type="curve" smooth="yes"/>
      <point x="84" y="329"/>
      <point x="104" y="349"/>
    </contour>
  </outline>
</glyph>
<glyph name="F" format="1">
  <advance width="479"/>
  <unicode hex="0046"/>
  <outline>
    <contour>
      <point x="168" y="540" type="curve" smooth="yes"/>
      <point x="168" y="31" type="line" smooth="yes"/>
      <point x="168" y="7"/>
      <point x="143" y="-13"/>
      <point x="119" y="-13" type="curve" smooth="yes"/>
      <point x="95" y="-13"/>
      <point x="70" y="7"/>
      <point x="70" y="31" type="curve" smooth="yes"/>
      <point x="70" y="540" type="line" smooth="yes"/>
      <point x="70" y="564"/>
      <point x="95" y="584"/>
      <point x="119" y="584" type="curve" smooth="yes"/>
      <point x="143" y="584"/>
      <point x="168" y="564"/>
    </contour>
    <contour>
      <point x="128" y="584" type="curve" smooth="yes"/>
      <point x="418" y="584" type="line" smooth="yes"/>
      <point x="442" y="584"/>
      <point x="462" y="564"/>
      <point x="462" y="540" type="curve" smooth="yes"/>
      <point x="462" y="516"/>
      <point x="442" y="496"/>
      <point x="418" y="496" type="curve" smooth="yes"/>
      <point x="128" y="496" type="line" smooth="yes"/>
      <point x="104" y="496"/>
      <point x="84" y="516"/>
      <point x="84" y="540" type="curve" smooth="yes"/>
      <point x="84" y="564"/>
      <point x="104" y="584"/>
    </contour>
    <contour>
      <point x="128" y="329" type="curve" smooth="yes"/>
      <point x="365" y="329" type="line" smooth="yes"/>
      <point x="389" y="329"/>
      <point x="409" y="309"/>
      <point x="409" y="285" type="curve" smooth="yes"/>
      <point x="409" y="261"/>
      <point x="389" y="241"/>
      <point x="365" y="241" type="curve" smooth="yes"/>
      <point x="128" y="241" type="line" smooth="yes"/>
      <point x="104" y="241"/>
      <point x="84" y="261"/>
      <point x="84" y="285" type="curve" smooth="yes"/>
      <point x="84" y="309"/>
      <point x="104" y="329"/>
    </contour>
  </outline>
</glyph>
<glyph name="G" format="1">
  <advance width="629"/>
  <unicode hex="0047"/>
  <outline>
    <contour>
      <point x="479" y="480" type="curve" smooth="yes"/>
      <point x="440" y="495"/>
      <point x="395" y="506"/>
      <point x="342" y="506" type="curve" smooth="yes"/>
      <point x="216" y="506"/>
      <point x="129" y="412"/>
      <point x="129" y="282" type="curve" smooth="yes"/>
      <point x="129" y="164"/>
      <point x="203" y="65"/>
      <point x="339" y="65" type="curve" smooth="yes"/>
      <point x="409" y="65"/>
      <point x="461" y="83"/>
      <point x="503" y="110" type="curve" smooth="yes"/>
      <point x="523" y="123"/>
      <point x="551" y="117"/>
      <point x="564" y="97" type="curve" smooth="yes"/>
      <point x="577" y="76"/>
      <point x="571" y="48"/>
      <point x="551" y="36" type="curve" smooth="yes"/>
      <point x="495" y="1"/>
      <point x="429" y="-23"/>
      <point x="339" y="-23" type="curve" smooth="yes"/>
      <point x="147" y="-23"/>
      <point x="31" y="110"/>
      <point x="31" y="282" type="curve"/>
      <point x="31" y="472"/>
      <point x="166" y="594"/>
      <point x="342" y="594" type="curve" smooth="yes"/>
      <point x="407" y="594"/>
      <point x="462" y="581"/>
      <point x="511" y="562" type="curve" smooth="yes"/>
      <point x="533" y="554"/>
      <point x="545" y="527"/>
      <point x="536" y="505" type="curve" smooth="yes"/>
      <point x="527" y="483"/>
      <point x="501" y="471"/>
    </contour>
    <contour>
      <point x="479" y="83" type="curve" smooth="yes"/>
      <point x="479" y="266" type="line" smooth="yes"/>
      <point x="479" y="290"/>
      <point x="504" y="310"/>
      <point x="528" y="310" type="curve" smooth="yes"/>
      <point x="552" y="310"/>
      <point x="577" y="290"/>
      <point x="577" y="266" type="curve" smooth="yes"/>
      <point x="577" y="83" type="line" smooth="yes"/>
      <point x="577" y="59"/>
      <point x="552" y="39"/>
      <point x="528" y="39" type="curve" smooth="yes"/>
      <point x="504" y="39"/>
      <point x="479" y="59"/>
    </contour>
    <contour>
      <point x="516" y="222" type="curve" smooth="yes"/>
      <point x="355" y="222" type="line" smooth="yes"/>
      <point x="331" y="222"/>
      <point x="311" y="242"/>
      <point x="311" y="266" type="curve" smooth="yes"/>
      <point x="311" y="290"/>
      <point x="331" y="310"/>
      <point x="355" y="310" type="curve" smooth="yes"/>
      <point x="516" y="310" type="line" smooth="yes"/>
      <point x="540" y="310"/>
      <point x="560" y="290"/>
      <point x="560" y="266" type="curve" smooth="yes"/>
      <point x="560" y="242"/>
      <point x="540" y="222"/>
    </contour>
  </outline>
</glyph>
<glyph name="H" format="1">
  <advance width="643"/>
  <unicode hex="0048"/>
  <outline>
    <contour>
      <point x="168" y="540" type="curve" smooth="yes"/>
      <point x="168" y="31" type="line" smooth="yes"/>
      <point x="168" y="7"/>
      <point x="143" y="-13"/>
      <point x="119" y="-13" type="curve" smooth="yes"/>
      <point x="95" y="-13"/>
      <point x="70" y="7"/>
      <point x="70" y="31" type="curve" smooth="yes"/>
      <point x="70" y="540" type="line" smooth="yes"/>
      <point x="70" y="564"/>
      <point x="95" y="584"/>
      <point x="119" y="584" type="curve" smooth="yes"/>
      <point x="143" y="584"/>
      <point x="168" y="564"/>
    </contour>
    <contour>
      <point x="572" y="540" type="curve" smooth="yes"/>
      <point x="572" y="31" type="line" smooth="yes"/>
      <point x="572" y="7"/>
      <point x="547" y="-13"/>
      <point x="523" y="-13" type="curve" smooth="yes"/>
      <point x="499" y="-13"/>
      <point x="474" y="7"/>
      <point x="474" y="31" type="curve" smooth="yes"/>
      <point x="474" y="540" type="line" smooth="yes"/>
      <point x="474" y="564"/>
      <point x="499" y="584"/>
      <point x="523" y="584" type="curve" smooth="yes"/>
      <point x="547" y="584"/>
      <point x="572" y="564"/>
    </contour>
    <contour>
      <point x="123" y="348" type="curve" smooth="yes"/>
      <point x="522" y="348" type="line" smooth="yes"/>
      <point x="546" y="348"/>
      <point x="566" y="328"/>
      <point x="566" y="304" type="curve" smooth="yes"/>
      <point x="566" y="280"/>
      <point x="546" y="260"/>
      <point x="522" y="260" type="curve" smooth="yes"/>
      <point x="123" y="260" type="line" smooth="yes"/>
      <point x="99" y="260"/>
      <point x="79" y="280"/>
      <point x="79" y="304" type="curve" smooth="yes"/>
      <point x="79" y="328"/>
      <point x="99" y="348"/>
    </contour>
  </outline>
</glyph>
<glyph name="I" format="1">
  <advance width="249"/>
  <unicode hex="0049"/>
  <outline>
    <contour>
      <point x="173" y="540" type="curve" smooth="yes"/>
      <point x="173" y="31" type="line" smooth="yes"/>
      <point x="173" y="7"/>
      <point x="148" y="-13"/>
      <point x="124" y="-13" type="curve" smooth="yes"/>
      <point x="100" y="-13"/>
      <point x="75" y="7"/>
      <point x="75" y="31" type="curve" smooth="yes"/>
      <point x="75" y="540" type="line" smooth="yes"/>
      <point x="75" y="564"/>
      <point x="100" y="584"/>
      <point x="124" y="584" type="curve" smooth="yes"/>
      <point x="148" y="584"/>
      <point x="173" y="564"/>
    </contour>
  </outline>
</glyph>
<glyph name="J" format="1">
  <advance width="388"/>
  <unicode hex="004A"/>
  <outline>
    <contour>
      <point x="84" y="82" type="curve" smooth="yes"/>
      <point x="108" y="71"/>
      <point x="133" y="66"/>
      <point x="158" y="66" type="curve" smooth="yes"/>
      <point x="217" y="66"/>
      <point x="233" y="116"/>
      <point x="233" y="180" type="curve" smooth="yes"/>
      <point x="233" y="540" type="line" smooth="yes"/>
      <point x="233" y="564"/>
      <point x="258" y="584"/>
      <point x="282" y="584" type="curve" smooth="yes"/>
      <point x="306" y="584"/>
      <point x="331" y="564"/>
      <point x="331" y="540" type="curve" smooth="yes"/>
      <point x="331" y="180" type="line" smooth="yes"/>
      <point x="331" y="34"/>
      <point x="263" y="-22"/>
      <point x="158" y="-22" type="curve" smooth="yes"/>
      <point x="121" y="-22"/>
      <point x="82" y="-15"/>
      <point x="46" y="2" type="curve" smooth="yes"/>
      <point x="25" y="12"/>
      <point x="15" y="39"/>
      <point x="25" y="61" type="curve" smooth="yes"/>
      <point x="35" y="82"/>
      <point x="62" y="92"/>
    </contour>
  </outline>
</glyph>
<glyph name="K" format="1">
  <advance width="565"/>
  <unicode hex="004B"/>
  <outline>
    <contour>
      <point x="168" y="540" type="curve" smooth="yes"/>
      <point x="168" y="31" type="line" smooth="yes"/>
      <point x="168" y="7"/>
      <point x="143" y="-13"/>
      <point x="119" y="-13" type="curve" smooth="yes"/>
      <point x="95" y="-13"/>
      <point x="70" y="7"/>
      <point x="70" y="31" type="curve" smooth="yes"/>
      <point x="70" y="540" type="line" smooth="yes"/>
      <point x="70" y="564"/>
      <point x="95" y="584"/>
      <point x="119" y="584" type="curve" smooth="yes"/>
      <point x="143" y="584"/>
      <point x="168" y="564"/>
    </contour>
    <contour>
      <point x="284" y="352" type="curve" smooth="yes"/>
      <point x="344" y="279"/>
      <point x="469" y="127"/>
      <point x="527" y="61" type="curve" smooth="yes"/>
      <point x="543" y="43"/>
      <point x="540" y="14"/>
      <point x="522" y="-2" type="curve" smooth="yes"/>
      <point x="504" y="-18"/>
      <point x="475" y="-17"/>
      <point x="459" y="1" type="curve" smooth="yes"/>
      <point x="401" y="67"/>
      <point x="274" y="221"/>
      <point x="214" y="294" type="curve" smooth="yes"/>
      <point x="199" y="313"/>
      <point x="203" y="342"/>
      <point x="221" y="357" type="curve" smooth="yes"/>
      <point x="239" y="372"/>
      <point x="269" y="370"/>
    </contour>
    <contour>
      <point x="89" y="240" type="curve" smooth="yes"/>
      <point x="140" y="286"/>
      <point x="335" y="462"/>
      <point x="439" y="571" type="curve" smooth="yes"/>
      <point x="456" y="588"/>
      <point x="485" y="588"/>
      <point x="502" y="572" type="curve" smooth="yes"/>
      <point x="520" y="555"/>
      <point x="521" y="526"/>
      <point x="505" y="509" type="curve" smooth="yes"/>
      <point x="399" y="398"/>
      <point x="200" y="220"/>
      <point x="149" y="174" type="curve" smooth="yes"/>
      <point x="131" y="158"/>
      <point x="102" y="160"/>
      <point x="86" y="178" type="curve" smooth="yes"/>
      <point x="70" y="195"/>
      <point x="71" y="224"/>
    </contour>
  </outline>
</glyph>
<glyph name="L" format="1">
  <advance width="462"/>
  <unicode hex="004C"/>
  <outline>
    <contour>
      <point x="168" y="540" type="curve" smooth="yes"/>
      <point x="168" y="31" type="line" smooth="yes"/>
      <point x="168" y="7"/>
      <point x="143" y="-13"/>
      <point x="119" y="-13" type="curve" smooth="yes"/>
      <point x="95" y="-13"/>
      <point x="70" y="7"/>
      <point x="70" y="31" type="curve" smooth="yes"/>
      <point x="70" y="540" type="line" smooth="yes"/>
      <point x="70" y="564"/>
      <point x="95" y="584"/>
      <point x="119" y="584" type="curve" smooth="yes"/>
      <point x="143" y="584"/>
      <point x="168" y="564"/>
    </contour>
    <contour>
      <point x="128" y="75" type="curve" smooth="yes"/>
      <point x="404" y="75" type="line" smooth="yes"/>
      <point x="428" y="75"/>
      <point x="448" y="55"/>
      <point x="448" y="31" type="curve" smooth="yes"/>
      <point x="448" y="7"/>
      <point x="428" y="-13"/>
      <point x="404" y="-13" type="curve" smooth="yes"/>
      <point x="128" y="-13" type="line" smooth="yes"/>
      <point x="104" y="-13"/>
      <point x="84" y="7"/>
      <point x="84" y="31" type="curve" smooth="yes"/>
      <point x="84" y="55"/>
      <point x="104" y="75"/>
    </contour>
  </outline>
</glyph>
<glyph name="M" format="1">
  <advance width="841"/>
  <unicode hex="004D"/>
  <outline>
    <contour>
      <point x="220" y="541" type="curve" smooth="yes"/>
      <point x="194" y="392"/>
      <point x="162" y="144"/>
      <point x="149" y="24" type="curve" smooth="yes"/>
      <point x="146" y="0"/>
      <point x="119" y="-17"/>
      <point x="95" y="-15" type="curve" smooth="yes"/>
      <point x="72" y="-12"/>
      <point x="49" y="11"/>
      <point x="51" y="34" type="curve" smooth="yes"/>
      <point x="64" y="156"/>
      <point x="98" y="406"/>
      <point x="124" y="557" type="curve" smooth="yes"/>
      <point x="128" y="581"/>
      <point x="156" y="596"/>
      <point x="180" y="592" type="curve" smooth="yes"/>
      <point x="203" y="588"/>
      <point x="224" y="564"/>
    </contour>
    <contour>
      <point x="702" y="559" type="curve" smooth="yes"/>
      <point x="734" y="395"/>
      <point x="769" y="176"/>
      <point x="788" y="36" type="curve" smooth="yes"/>
      <point x="792" y="12"/>
      <point x="769" y="-11"/>
      <point x="746" y="-15" type="curve" smooth="yes"/>
      <point x="722" y="-18"/>
      <point x="695" y="-1"/>
      <point x="692" y="22" type="curve" smooth="yes"/>
      <point x="673" y="162"/>
      <point x="638" y="379"/>
      <point x="606" y="541" type="curve" smooth="yes"/>
      <point x="602" y="564"/>
      <point x="622" y="589"/>
      <point x="646" y="593" type="curve" smooth="yes"/>
      <point x="669" y="598"/>
      <point x="697" y="583"/>
    </contour>
    <contour>
      <point x="226" y="556" type="curve" smooth="yes"/>
      <point x="291" y="422"/>
      <point x="390" y="216"/>
      <point x="460" y="69" type="curve" smooth="yes"/>
      <point x="471" y="48"/>
      <point x="458" y="19"/>
      <point x="437" y="9" type="curve" smooth="yes"/>
      <point x="415" y="-1"/>
      <point x="386" y="7"/>
      <point x="376" y="29" type="curve" smooth="yes"/>
      <point x="306" y="176"/>
      <point x="207" y="382"/>
      <point x="142" y="516" type="curve" smooth="yes"/>
      <point x="131" y="537"/>
      <point x="143" y="565"/>
      <point x="165" y="576" type="curve" smooth="yes"/>
      <point x="186" y="586"/>
      <point x="216" y="578"/>
    </contour>
    <contour>
      <point x="379" y="80" type="curve" smooth="yes"/>
      <point x="442" y="224"/>
      <point x="527" y="409"/>
      <point x="604" y="563" type="curve" smooth="yes"/>
      <point x="615" y="584"/>
      <point x="645" y="592"/>
      <point x="666" y="581" type="curve" smooth="yes"/>
      <point x="687" y="571"/>
      <point x="699" y="542"/>
      <point x="688" y="521" type="curve" smooth="yes"/>
      <point x="611" y="369"/>
      <point x="528" y="184"/>
      <point x="465" y="42" type="curve" smooth="yes"/>
      <point x="456" y="20"/>
      <point x="426" y="11"/>
      <point x="404" y="21" type="curve" smooth="yes"/>
      <point x="383" y="30"/>
      <point x="369" y="58"/>
    </contour>
  </outline>
</glyph>
<glyph name="N" format="1">
  <advance width="647"/>
  <unicode hex="004E"/>
  <outline>
    <contour>
      <point x="168" y="540" type="curve" smooth="yes"/>
      <point x="168" y="31" type="line" smooth="yes"/>
      <point x="168" y="7"/>
      <point x="143" y="-13"/>
      <point x="119" y="-13" type="curve" smooth="yes"/>
      <point x="95" y="-13"/>
      <point x="70" y="7"/>
      <point x="70" y="31" type="curve" smooth="yes"/>
      <point x="70" y="540" type="line" smooth="yes"/>
      <point x="70" y="564"/>
      <point x="95" y="584"/>
      <point x="119" y="584" type="curve" smooth="yes"/>
      <point x="143" y="584"/>
      <point x="168" y="564"/>
    </contour>
    <contour>
      <point x="577" y="540" type="curve" smooth="yes"/>
      <point x="577" y="31" type="line" smooth="yes"/>
      <point x="577" y="7"/>
      <point x="552" y="-13"/>
      <point x="528" y="-13" type="curve" smooth="yes"/>
      <point x="504" y="-13"/>
      <point x="479" y="7"/>
      <point x="479" y="31" type="curve" smooth="yes"/>
      <point x="479" y="540" type="line" smooth="yes"/>
      <point x="479" y="564"/>
      <point x="504" y="584"/>
      <point x="528" y="584" type="curve" smooth="yes"/>
      <point x="552" y="584"/>
      <point x="577" y="564"/>
    </contour>
    <contour>
      <point x="161" y="567" type="curve" smooth="yes"/>
      <point x="240" y="462"/>
      <point x="446" y="208"/>
      <point x="558" y="58" type="curve" smooth="yes"/>
      <point x="572" y="39"/>
      <point x="566" y="10"/>
      <point x="547" y="-4" type="curve" smooth="yes"/>
      <point x="528" y="-18"/>
      <point x="499" y="-15"/>
      <point x="484" y="4" type="curve" smooth="yes"/>
      <point x="372" y="154"/>
      <point x="168" y="408"/>
      <point x="89" y="513" type="curve" smooth="yes"/>
      <point x="74" y="532"/>
      <point x="80" y="561"/>
      <point x="99" y="575" type="curve" smooth="yes"/>
      <point x="118" y="589"/>
      <point x="147" y="586"/>
    </contour>
  </outline>
</glyph>
<glyph name="O" format="1">
  <advance width="652"/>
  <unicode hex="004F"/>
  <outline>
    <contour>
      <point x="328" y="594" type="curve" smooth="yes"/>
      <point x="487" y="594"/>
      <point x="621" y="471"/>
      <point x="621" y="285" type="curve" smooth="yes"/>
      <point x="621" y="107"/>
      <point x="508" y="-23"/>
      <point x="328" y="-23" type="curve" smooth="yes"/>
      <point x="157" y="-23"/>
      <point x="31" y="108"/>
      <point x="31" y="282" type="curve"/>
      <point x="31" y="471"/>
      <point x="156" y="594"/>
    </contour>
    <contour>
      <point x="328" y="506" type="curve" smooth="yes"/>
      <point x="204" y="506"/>
      <point x="129" y="409"/>
      <point x="129" y="282" type="curve" smooth="yes"/>
      <point x="129" y="166"/>
      <point x="207" y="65"/>
      <point x="328" y="65" type="curve" smooth="yes"/>
      <point x="456" y="65"/>
      <point x="523" y="167"/>
      <point x="523" y="285" type="curve" smooth="yes"/>
      <point x="523" y="409"/>
      <point x="441" y="506"/>
    </contour>
  </outline>
</glyph>
<glyph name="P" format="1">
  <advance width="516"/>
  <unicode hex="0050"/>
  <outline>
    <contour>
      <point x="146" y="260" type="curve" smooth="yes"/>
      <point x="269" y="260" type="line" smooth="yes"/>
      <point x="356" y="260"/>
      <point x="400" y="313"/>
      <point x="400" y="378" type="curve" smooth="yes"/>
      <point x="400" y="447"/>
      <point x="346" y="496"/>
      <point x="269" y="496" type="curve" smooth="yes"/>
      <point x="119" y="496" type="line"/>
      <point x="168" y="540" type="line"/>
      <point x="168" y="31" type="line" smooth="yes"/>
      <point x="168" y="7"/>
      <point x="143" y="-13"/>
      <point x="119" y="-13" type="curve" smooth="yes"/>
      <point x="95" y="-13"/>
      <point x="70" y="7"/>
      <point x="70" y="31" type="curve" smooth="yes"/>
      <point x="70" y="540" type="line"/>
      <point x="70" y="564"/>
      <point x="92" y="584"/>
      <point x="119" y="584" type="curve" smooth="yes"/>
      <point x="269" y="584" type="line" smooth="yes"/>
      <point x="404" y="584"/>
      <point x="498" y="499"/>
      <point x="498" y="378" type="curve" smooth="yes"/>
      <point x="498" y="265"/>
      <point x="420" y="172"/>
      <point x="269" y="172" type="curve" smooth="yes"/>
      <point x="146" y="172" type="line" smooth="yes"/>
      <point x="122" y="172"/>
      <point x="102" y="192"/>
      <point x="102" y="216" type="curve" smooth="yes"/>
      <point x="102" y="240"/>
      <point x="122" y="260"/>
    </contour>
  </outline>
</glyph>
<glyph name="Q" format="1">
  <advance width="652"/>
  <unicode hex="0051"/>
  <outline>
    <contour>
      <point x="328" y="577" type="curve" smooth="yes"/>
      <point x="487" y="577"/>
      <point x="621" y="455"/>
      <point x="621" y="268" type="curve" smooth="yes"/>
      <point x="621" y="90"/>
      <point x="508" y="-39"/>
      <point x="328" y="-39" type="curve" smooth="yes"/>
      <point x="157" y="-39"/>
      <point x="31" y="91"/>
      <point x="31" y="265" type="curve"/>
      <point x="31" y="455"/>
      <point x="156" y="577"/>
    </contour>
    <contour>
      <point x="371" y="14" type="curve" smooth="yes"/>
      <point x="386" y="-45"/>
      <point x="442" y="-92"/>
      <point x="528" y="-92" type="curve" smooth="yes"/>
      <point x="552" y="-92"/>
      <point x="572" y="-112"/>
      <point x="572" y="-136" type="curve" smooth="yes"/>
      <point x="572" y="-160"/>
      <point x="552" y="-180"/>
      <point x="528" y="-180" type="curve" smooth="yes"/>
      <point x="390" y="-180"/>
      <point x="302" y="-105"/>
      <point x="277" y="-10" type="curve" smooth="yes"/>
      <point x="271" y="13"/>
      <point x="290" y="39"/>
      <point x="313" y="45" type="curve" smooth="yes"/>
      <point x="336" y="51"/>
      <point x="365" y="37"/>
    </contour>
    <contour>
      <point x="328" y="489" type="curve" smooth="yes"/>
      <point x="204" y="489"/>
      <point x="129" y="393"/>
      <point x="129" y="265" type="curve" smooth="yes"/>
      <point x="129" y="149"/>
      <point x="207" y="49"/>
      <point x="328" y="49" type="curve" smooth="yes"/>
      <point x="456" y="49"/>
      <point x="523" y="150"/>
      <point x="523" y="268" type="curve" smooth="yes"/>
      <point x="523" y="393"/>
      <point x="441" y="489"/>
    </contour>
  </outline>
</glyph>
<glyph name="R" format="1">
  <advance width="548"/>
  <unicode hex="0052"/>
  <outline>
    <contour>
      <point x="136" y="284" type="curve" smooth="yes"/>
      <point x="274" y="284" type="line" smooth="yes"/>
      <point x="356" y="284"/>
      <point x="399" y="331"/>
      <point x="399" y="390" type="curve" smooth="yes"/>
      <point x="399" y="453"/>
      <point x="348" y="496"/>
      <point x="274" y="496" type="curve" smooth="yes"/>
      <point x="119" y="496" type="line"/>
      <point x="168" y="540" type="line"/>
      <point x="168" y="31" type="line" smooth="yes"/>
      <point x="168" y="7"/>
      <point x="143" y="-13"/>
      <point x="119" y="-13" type="curve" smooth="yes"/>
      <point x="95" y="-13"/>
      <point x="70" y="7"/>
      <point x="70" y="31" type="curve" smooth="yes"/>
      <point x="70" y="540" type="line"/>
      <point x="70" y="564"/>
      <point x="92" y="584"/>
      <point x="119" y="584" type="curve" smooth="yes"/>
      <point x="274" y="584" type="line" smooth="yes"/>
      <point x="410" y="584"/>
      <point x="497" y="503"/>
      <point x="497" y="390" type="curve" smooth="yes"/>
      <point x="497" y="285"/>
      <point x="424" y="196"/>
      <point x="274" y="196" type="curve" smooth="yes"/>
      <point x="136" y="196" type="line" smooth="yes"/>
      <point x="112" y="196"/>
      <point x="92" y="216"/>
      <point x="92" y="240" type="curve" smooth="yes"/>
      <point x="92" y="264"/>
      <point x="112" y="284"/>
    </contour>
    <contour>
      <point x="338" y="263" type="curve" smooth="yes"/>
      <point x="511" y="60" type="line" smooth="yes"/>
      <point x="527" y="42"/>
      <point x="524" y="13"/>
      <point x="506" y="-2" type="curve" smooth="yes"/>
      <point x="487" y="-18"/>
      <point x="458" y="-16"/>
      <point x="443" y="2" type="curve" smooth="yes"/>
      <point x="270" y="205" type="line" smooth="yes"/>
      <point x="254" y="223"/>
      <point x="257" y="252"/>
      <point x="275" y="267" type="curve" smooth="yes"/>
      <point x="294" y="283"/>
      <point x="323" y="281"/>
    </contour>
  </outline>
</glyph>
<glyph name="S" format="1">
  <advance width="531"/>
  <unicode hex="0053"/>
  <outline>
    <contour>
      <point x="387" y="474" type="curve" smooth="yes"/>
      <point x="342" y="492"/>
      <point x="310" y="503"/>
      <point x="245" y="503" type="curve" smooth="yes"/>
      <point x="192" y="503"/>
      <point x="151" y="474"/>
      <point x="151" y="437" type="curve" smooth="yes"/>
      <point x="151" y="398"/>
      <point x="179" y="361"/>
      <point x="275" y="342" type="curve" smooth="yes"/>
      <point x="442" y="305"/>
      <point x="487" y="233"/>
      <point x="487" y="150" type="curve" smooth="yes"/>
      <point x="487" y="63"/>
      <point x="427" y="-22"/>
      <point x="266" y="-22" type="curve" smooth="yes"/>
      <point x="195" y="-22"/>
      <point x="128" y="-6"/>
      <point x="67" y="29" type="curve" smooth="yes"/>
      <point x="46" y="41"/>
      <point x="39" y="68"/>
      <point x="51" y="89" type="curve" smooth="yes"/>
      <point x="63" y="110"/>
      <point x="90" y="117"/>
      <point x="111" y="105" type="curve" smooth="yes"/>
      <point x="158" y="78"/>
      <point x="211" y="66"/>
      <point x="266" y="66" type="curve" smooth="yes"/>
      <point x="345" y="66"/>
      <point x="389" y="101"/>
      <point x="389" y="150" type="curve" smooth="yes"/>
      <point x="389" y="201"/>
      <point x="348" y="235"/>
      <point x="259" y="256" type="curve" smooth="yes"/>
      <point x="75" y="291"/>
      <point x="53" y="372"/>
      <point x="53" y="437" type="curve"/>
      <point x="53" y="512"/>
      <point x="120" y="591"/>
      <point x="245" y="591" type="curve" smooth="yes"/>
      <point x="326" y="591"/>
      <point x="364" y="578"/>
      <point x="419" y="556" type="curve" smooth="yes"/>
      <point x="441" y="547"/>
      <point x="453" y="521"/>
      <point x="444" y="499" type="curve" smooth="yes"/>
      <point x="435" y="477"/>
      <point x="409" y="465"/>
    </contour>
  </outline>
</glyph>
<glyph name="T" format="1">
  <advance width="553"/>
  <unicode hex="0054"/>
  <outline>
    <contour>
      <point x="324" y="540" type="curve" smooth="yes"/>
      <point x="324" y="31" type="line" smooth="yes"/>
      <point x="324" y="7"/>
      <point x="299" y="-13"/>
      <point x="275" y="-13" type="curve" smooth="yes"/>
      <point x="251" y="-13"/>
      <point x="226" y="7"/>
      <point x="226" y="31" type="curve" smooth="yes"/>
      <point x="226" y="540" type="line" smooth="yes"/>
      <point x="226" y="564"/>
      <point x="251" y="584"/>
      <point x="275" y="584" type="curve" smooth="yes"/>
      <point x="299" y="584"/>
      <point x="324" y="564"/>
    </contour>
    <contour>
      <point x="52" y="584" type="curve" smooth="yes"/>
      <point x="501" y="584" type="line" smooth="yes"/>
      <point x="525" y="584"/>
      <point x="545" y="564"/>
      <point x="545" y="540" type="curve" smooth="yes"/>
      <point x="545" y="516"/>
      <point x="525" y="496"/>
      <point x="501" y="496" type="curve" smooth="yes"/>
      <point x="52" y="496" type="line" smooth="yes"/>
      <point x="28" y="496"/>
      <point x="8" y="516"/>
      <point x="8" y="540" type="curve" smooth="yes"/>
      <point x="8" y="564"/>
      <point x="28" y="584"/>
    </contour>
  </outline>
</glyph>
<glyph name="U" format="1">
  <advance width="627"/>
  <unicode hex="0055"/>
  <outline>
    <contour>
      <point x="156" y="540" type="curve" smooth="yes"/>
      <point x="156" y="230" type="line" smooth="yes"/>
      <point x="156" y="128"/>
      <point x="216" y="66"/>
      <point x="311" y="66" type="curve" smooth="yes"/>
      <point x="417" y="66"/>
      <point x="471" y="128"/>
      <point x="471" y="233" type="curve" smooth="yes"/>
      <point x="471" y="540" type="line" smooth="yes"/>
      <point x="471" y="564"/>
      <point x="496" y="584"/>
      <point x="520" y="584" type="curve" smooth="yes"/>
      <point x="544" y="584"/>
      <point x="569" y="564"/>
      <point x="569" y="540" type="curve" smooth="yes"/>
      <point x="569" y="233" type="line" smooth="yes"/>
      <point x="569" y="64"/>
      <point x="473" y="-22"/>
      <point x="311" y="-22" type="curve" smooth="yes"/>
      <point x="166" y="-22"/>
      <point x="58" y="64"/>
      <point x="58" y="230" type="curve"/>
      <point x="58" y="540" type="line" smooth="yes"/>
      <point x="58" y="564"/>
      <point x="83" y="584"/>
      <point x="107" y="584" type="curve" smooth="yes"/>
      <point x="131" y="584"/>
      <point x="156" y="564"/>
    </contour>
  </outline>
</glyph>
<glyph name="V" format="1">
  <advance width="594"/>
  <unicode hex="0056"/>
  <outline>
    <contour>
      <point x="115" y="556" type="curve" smooth="yes"/>
      <point x="156" y="428"/>
      <point x="295" y="126"/>
      <point x="336" y="49" type="curve" smooth="yes"/>
      <point x="347" y="28"/>
      <point x="337" y="0"/>
      <point x="316" y="-12" type="curve" smooth="yes"/>
      <point x="295" y="-23"/>
      <point x="265" y="-16"/>
      <point x="254" y="5" type="curve" smooth="yes"/>
      <point x="211" y="84"/>
      <point x="66" y="394"/>
      <point x="23" y="526" type="curve" smooth="yes"/>
      <point x="16" y="549"/>
      <point x="33" y="576"/>
      <point x="55" y="583" type="curve" smooth="yes"/>
      <point x="78" y="590"/>
      <point x="107" y="578"/>
    </contour>
    <contour>
      <point x="257" y="43" type="curve" smooth="yes"/>
      <point x="302" y="130"/>
      <point x="430" y="408"/>
      <point x="481" y="556" type="curve" smooth="yes"/>
      <point x="489" y="578"/>
      <point x="518" y="589"/>
      <point x="540" y="582" type="curve" smooth="yes"/>
      <point x="563" y="574"/>
      <point x="579" y="547"/>
      <point x="571" y="524" type="curve" smooth="yes"/>
      <point x="518" y="372"/>
      <point x="386" y="88"/>
      <point x="339" y="-1" type="curve" smooth="yes"/>
      <point x="328" y="-22"/>
      <point x="299" y="-29"/>
      <point x="278" y="-18" type="curve" smooth="yes"/>
      <point x="257" y="-7"/>
      <point x="246" y="22"/>
    </contour>
  </outline>
</glyph>
<glyph name="W" format="1">
  <advance width="922"/>
  <unicode hex="0057"/>
  <outline>
    <contour>
      <point x="133" y="552" type="curve" smooth="yes"/>
      <point x="167" y="424"/>
      <point x="269" y="125"/>
      <point x="305" y="48" type="curve" smooth="yes"/>
      <point x="316" y="27"/>
      <point x="303" y="-2"/>
      <point x="282" y="-12" type="curve" smooth="yes"/>
      <point x="260" y="-22"/>
      <point x="231" y="-14"/>
      <point x="221" y="8" type="curve" smooth="yes"/>
      <point x="183" y="87"/>
      <point x="75" y="394"/>
      <point x="39" y="526" type="curve" smooth="yes"/>
      <point x="33" y="549"/>
      <point x="52" y="575"/>
      <point x="75" y="581" type="curve" smooth="yes"/>
      <point x="98" y="588"/>
      <point x="126" y="574"/>
    </contour>
    <contour>
      <point x="224" y="41" type="curve" smooth="yes"/>
      <point x="262" y="128"/>
      <point x="371" y="404"/>
      <point x="415" y="550" type="curve" smooth="yes"/>
      <point x="422" y="573"/>
      <point x="451" y="585"/>
      <point x="474" y="578" type="curve" smooth="yes"/>
      <point x="497" y="571"/>
      <point x="514" y="545"/>
      <point x="507" y="522" type="curve" smooth="yes"/>
      <point x="461" y="372"/>
      <point x="350" y="92"/>
      <point x="310" y="3" type="curve" smooth="yes"/>
      <point x="301" y="-19"/>
      <point x="271" y="-28"/>
      <point x="249" y="-18" type="curve" smooth="yes"/>
      <point x="227" y="-9"/>
      <point x="214" y="19"/>
    </contour>
    <contour>
      <point x="512" y="538" type="curve" smooth="yes"/>
      <point x="551" y="412"/>
      <point x="657" y="125"/>
      <point x="694" y="48" type="curve" smooth="yes"/>
      <point x="705" y="26"/>
      <point x="693" y="-2"/>
      <point x="671" y="-13" type="curve" smooth="yes"/>
      <point x="650" y="-23"/>
      <point x="620" y="-15"/>
      <point x="610" y="6" type="curve" smooth="yes"/>
      <point x="571" y="85"/>
      <point x="461" y="380"/>
      <point x="420" y="510" type="curve" smooth="yes"/>
      <point x="413" y="532"/>
      <point x="430" y="559"/>
      <point x="453" y="566" type="curve" smooth="yes"/>
      <point x="476" y="573"/>
      <point x="505" y="561"/>
    </contour>
    <contour>
      <point x="613" y="40" type="curve" smooth="yes"/>
      <point x="651" y="127"/>
      <point x="748" y="404"/>
      <point x="791" y="552" type="curve" smooth="yes"/>
      <point x="797" y="575"/>
      <point x="826" y="588"/>
      <point x="849" y="581" type="curve" smooth="yes"/>
      <point x="872" y="575"/>
      <point x="890" y="549"/>
      <point x="883" y="526" type="curve" smooth="yes"/>
      <point x="840" y="374"/>
      <point x="739" y="91"/>
      <point x="699" y="2" type="curve" smooth="yes"/>
      <point x="690" y="-20"/>
      <point x="660" y="-29"/>
      <point x="638" y="-19" type="curve" smooth="yes"/>
      <point x="616" y="-10"/>
      <point x="603" y="18"/>
    </contour>
  </outline>
</glyph>
<glyph name="X" format="1">
  <advance width="571"/>
  <unicode hex="0058"/>
  <outline>
    <contour>
      <point x="131" y="566" type="curve" smooth="yes"/>
      <point x="232" y="419"/>
      <point x="469" y="145"/>
      <point x="530" y="57" type="curve" smooth="yes"/>
      <point x="544" y="38"/>
      <point x="538" y="9"/>
      <point x="518" y="-5" type="curve" smooth="yes"/>
      <point x="499" y="-19"/>
      <point x="469" y="-15"/>
      <point x="456" y="5" type="curve" smooth="yes"/>
      <point x="393" y="93"/>
      <point x="156" y="367"/>
      <point x="55" y="514" type="curve" smooth="yes"/>
      <point x="42" y="534"/>
      <point x="49" y="563"/>
      <point x="68" y="576" type="curve" smooth="yes"/>
      <point x="88" y="590"/>
      <point x="117" y="586"/>
    </contour>
    <contour>
      <point x="42" y="58" type="curve" smooth="yes"/>
      <point x="125" y="170"/>
      <point x="344" y="426"/>
      <point x="433" y="565" type="curve" smooth="yes"/>
      <point x="446" y="585"/>
      <point x="476" y="590"/>
      <point x="496" y="577" type="curve" smooth="yes"/>
      <point x="516" y="564"/>
      <point x="524" y="535"/>
      <point x="511" y="515" type="curve" smooth="yes"/>
      <point x="420" y="374"/>
      <point x="199" y="116"/>
      <point x="116" y="4" type="curve" smooth="yes"/>
      <point x="102" y="-15"/>
      <point x="72" y="-18"/>
      <point x="53" y="-4" type="curve" smooth="yes"/>
      <point x="34" y="10"/>
      <point x="28" y="39"/>
    </contour>
  </outline>
</glyph>
<glyph name="Y" format="1">
  <advance width="568"/>
  <unicode hex="0059"/>
  <outline>
    <contour>
      <point x="335" y="207" type="curve" smooth="yes"/>
      <point x="335" y="31" type="line" smooth="yes"/>
      <point x="335" y="7"/>
      <point x="310" y="-13"/>
      <point x="286" y="-13" type="curve" smooth="yes"/>
      <point x="262" y="-13"/>
      <point x="237" y="7"/>
      <point x="237" y="31" type="curve" smooth="yes"/>
      <point x="237" y="207" type="line" smooth="yes"/>
      <point x="237" y="231"/>
      <point x="262" y="251"/>
      <point x="286" y="251" type="curve" smooth="yes"/>
      <point x="310" y="251"/>
      <point x="335" y="231"/>
    </contour>
    <contour>
      <point x="108" y="564" type="curve" smooth="yes"/>
      <point x="151" y="492"/>
      <point x="275" y="307"/>
      <point x="320" y="247" type="curve" smooth="yes"/>
      <point x="334" y="228"/>
      <point x="328" y="199"/>
      <point x="309" y="185" type="curve" smooth="yes"/>
      <point x="290" y="171"/>
      <point x="261" y="174"/>
      <point x="246" y="193" type="curve" smooth="yes"/>
      <point x="201" y="253"/>
      <point x="73" y="442"/>
      <point x="28" y="516" type="curve" smooth="yes"/>
      <point x="16" y="536"/>
      <point x="25" y="565"/>
      <point x="45" y="578" type="curve" smooth="yes"/>
      <point x="66" y="590"/>
      <point x="95" y="584"/>
    </contour>
    <contour>
      <point x="250" y="241" type="curve" smooth="yes"/>
      <point x="301" y="310"/>
      <point x="418" y="493"/>
      <point x="460" y="564" type="curve" smooth="yes"/>
      <point x="472" y="584"/>
      <point x="502" y="590"/>
      <point x="523" y="578" type="curve" smooth="yes"/>
      <point x="543" y="566"/>
      <point x="552" y="537"/>
      <point x="540" y="516" type="curve" smooth="yes"/>
      <point x="496" y="443"/>
      <point x="375" y="256"/>
      <point x="322" y="187" type="curve" smooth="yes"/>
      <point x="308" y="168"/>
      <point x="278" y="165"/>
      <point x="260" y="179" type="curve" smooth="yes"/>
      <point x="241" y="193"/>
      <point x="235" y="222"/>
    </contour>
  </outline>
</glyph>
<glyph name="Z" format="1">
  <advance width="571"/>
  <unicode hex="005A"/>
  <outline>
    <contour>
      <point x="513" y="515" type="curve" smooth="yes"/>
      <point x="447" y="415"/>
      <point x="182" y="100"/>
      <point x="127" y="14" type="curve" smooth="yes"/>
      <point x="114" y="-6"/>
      <point x="84" y="-11"/>
      <point x="64" y="2" type="curve" smooth="yes"/>
      <point x="44" y="15"/>
      <point x="36" y="44"/>
      <point x="49" y="64" type="curve" smooth="yes"/>
      <point x="104" y="150"/>
      <point x="371" y="465"/>
      <point x="437" y="565" type="curve" smooth="yes"/>
      <point x="450" y="585"/>
      <point x="479" y="590"/>
      <point x="499" y="577" type="curve" smooth="yes"/>
      <point x="519" y="564"/>
      <point x="527" y="534"/>
    </contour>
    <contour>
      <point x="97" y="584" type="curve" smooth="yes"/>
      <point x="464" y="584" type="line" smooth="yes"/>
      <point x="488" y="584"/>
      <point x="508" y="564"/>
      <point x="508" y="540" type="curve" smooth="yes"/>
      <point x="508" y="516"/>
      <point x="488" y="496"/>
      <point x="464" y="496" type="curve" smooth="yes"/>
      <point x="97" y="496" type="line" smooth="yes"/>
      <point x="73" y="496"/>
      <point x="53" y="516"/>
      <point x="53" y="540" type="curve" smooth="yes"/>
      <point x="53" y="564"/>
      <point x="73" y="584"/>
    </contour>
    <contour>
      <point x="83" y="75" type="curve" smooth="yes"/>
      <point x="488" y="75" type="line" smooth="yes"/>
      <point x="512" y="75"/>
      <point x="532" y="55"/>
      <point x="532" y="31" type="curve" smooth="yes"/>
      <point x="532" y="7"/>
      <point x="512" y="-13"/>
      <point x="488" y="-13" type="curve" smooth="yes"/>
      <point x="83" y="-13" type="line" smooth="yes"/>
      <point x="59" y="-13"/>
      <point x="39" y="7"/>
      <point x="39" y="31" type="curve" smooth="yes"/>
      <point x="39" y="55"/>
      <point x="59" y="75"/>
    </contour>
  </outline>
</glyph>
<glyph name="bracketleft" format="1">
  <advance width="332"/>
  <unicode hex="005B"/>
  <outline>
    <contour>
      <point x="235" y="596" type="curve" smooth="yes"/>
      <point x="93" y="596" type="line"/>
      <point x="142" y="640" type="line"/>
      <point x="142" y="-73" type="line"/>
      <point x="93" y="-29" type="line"/>
      <point x="235" y="-29" type="line" smooth="yes"/>
      <point x="259" y="-29"/>
      <point x="279" y="-49"/>
      <point x="279" y="-73" type="curve" smooth="yes"/>
      <point x="279" y="-97"/>
      <point x="259" y="-117"/>
      <point x="235" y="-117" type="curve" smooth="yes"/>
      <point x="93" y="-117" type="line" smooth="yes"/>
      <point x="66" y="-117"/>
      <point x="44" y="-97"/>
      <point x="44" y="-73" type="curve"/>
      <point x="44" y="640" type="line"/>
      <point x="44" y="664"/>
      <point x="66" y="684"/>
      <point x="93" y="684" type="curve" smooth="yes"/>
      <point x="235" y="684" type="line" smooth="yes"/>
      <point x="259" y="684"/>
      <point x="279" y="664"/>
      <point x="279" y="640" type="curve" smooth="yes"/>
      <point x="279" y="616"/>
      <point x="259" y="596"/>
    </contour>
  </outline>
</glyph>
<glyph name="backslash" format="1">
  <advance width="395"/>
  <unicode hex="005C"/>
  <outline>
    <contour>
      <point x="286" y="-70" type="curve" smooth="yes"/>
      <point x="25" y="644" type="line" smooth="yes"/>
      <point x="17" y="666"/>
      <point x="33" y="693"/>
      <point x="55" y="701" type="curve" smooth="yes"/>
      <point x="77" y="709"/>
      <point x="107" y="699"/>
      <point x="115" y="676" type="curve" smooth="yes"/>
      <point x="376" y="-38" type="line" smooth="yes"/>
      <point x="384" y="-60"/>
      <point x="368" y="-87"/>
      <point x="346" y="-95" type="curve" smooth="yes"/>
      <point x="324" y="-103"/>
      <point x="294" y="-93"/>
    </contour>
  </outline>
</glyph>
<glyph name="bracketright" format="1">
  <advance width="332"/>
  <unicode hex="005D"/>
  <outline>
    <contour>
      <point x="97" y="-21" type="curve" smooth="yes"/>
      <point x="239" y="-21" type="line"/>
      <point x="190" y="-65" type="line"/>
      <point x="190" y="648" type="line"/>
      <point x="239" y="604" type="line"/>
      <point x="97" y="604" type="line" smooth="yes"/>
      <point x="73" y="604"/>
      <point x="53" y="624"/>
      <point x="53" y="648" type="curve" smooth="yes"/>
      <point x="53" y="672"/>
      <point x="73" y="692"/>
      <point x="97" y="692" type="curve" smooth="yes"/>
      <point x="239" y="692" type="line" smooth="yes"/>
      <point x="266" y="692"/>
      <point x="288" y="672"/>
      <point x="288" y="648" type="curve" smooth="yes"/>
      <point x="288" y="-65" type="line" smooth="yes"/>
      <point x="288" y="-89"/>
      <point x="266" y="-109"/>
      <point x="239" y="-109" type="curve" smooth="yes"/>
      <point x="97" y="-109" type="line" smooth="yes"/>
      <point x="73" y="-109"/>
      <point x="53" y="-89"/>
      <point x="53" y="-65" type="curve" smooth="yes"/>
      <point x="53" y="-41"/>
      <point x="73" y="-21"/>
    </contour>
  </outline>
</glyph>
<glyph name="asciicircum" format="1">
  <advance width="495"/>
  <unicode hex="005E"/>
  <outline>
    <contour>
      <point x="285" y="522" type="curve" smooth="yes"/>
      <point x="235" y="425"/>
      <point x="181" y="325"/>
      <point x="138" y="241" type="curve" smooth="yes"/>
      <point x="127" y="220"/>
      <point x="97" y="212"/>
      <point x="76" y="223" type="curve" smooth="yes"/>
      <point x="55" y="234"/>
      <point x="44" y="262"/>
      <point x="54" y="283" type="curve" smooth="yes"/>
      <point x="97" y="367"/>
      <point x="151" y="467"/>
      <point x="201" y="564" type="curve" smooth="yes"/>
      <point x="212" y="586"/>
      <point x="242" y="593"/>
      <point x="263" y="582" type="curve" smooth="yes"/>
      <point x="284" y="571"/>
      <point x="295" y="543"/>
    </contour>
    <contour>
      <point x="359" y="240" type="curve" smooth="yes"/>
      <point x="315" y="324"/>
      <point x="264" y="424"/>
      <point x="212" y="521" type="curve" smooth="yes"/>
      <point x="201" y="542"/>
      <point x="211" y="571"/>
      <point x="232" y="582" type="curve" smooth="yes"/>
      <point x="253" y="593"/>
      <point x="283" y="586"/>
      <point x="294" y="565" type="curve" smooth="yes"/>
      <point x="346" y="468"/>
      <point x="397" y="368"/>
      <point x="441" y="284" type="curve" smooth="yes"/>
      <point x="452" y="263"/>
      <point x="441" y="234"/>
      <point x="420" y="223" type="curve" smooth="yes"/>
      <point x="399" y="212"/>
      <point x="370" y="219"/>
    </contour>
  </outline>
</glyph>
<glyph name="a" format="1">
  <advance width="456"/>
  <unicode hex="0061"/>
  <outline>
    <contour>
      <point x="108" y="419" type="curve" smooth="yes"/>
      <point x="133" y="427"/>
      <point x="179" y="438"/>
      <point x="219" y="438" type="curve" smooth="yes"/>
      <point x="344" y="438"/>
      <point x="408" y="365"/>
      <point x="408" y="250" type="curve" smooth="yes"/>
      <point x="408" y="154" type="line" smooth="yes"/>
      <point x="408" y="112"/>
      <point x="413" y="86"/>
      <point x="432" y="65" type="curve" smooth="yes"/>
      <point x="448" y="47"/>
      <point x="445" y="18"/>
      <point x="427" y="2" type="curve" smooth="yes"/>
      <point x="410" y="-14"/>
      <point x="380" y="-13"/>
      <point x="364" y="5" type="curve" smooth="yes"/>
      <point x="333" y="40"/>
      <point x="310" y="80"/>
      <point x="310" y="154" type="curve" smooth="yes"/>
      <point x="310" y="250" type="line" smooth="yes"/>
      <point x="310" y="305"/>
      <point x="286" y="350"/>
      <point x="219" y="350" type="curve" smooth="yes"/>
      <point x="189" y="350"/>
      <point x="153" y="341"/>
      <point x="134" y="335" type="curve" smooth="yes"/>
      <point x="112" y="328"/>
      <point x="86" y="341"/>
      <point x="79" y="364" type="curve" smooth="yes"/>
      <point x="72" y="386"/>
      <point x="85" y="412"/>
    </contour>
    <contour>
      <point x="357" y="194" type="curve" smooth="yes"/>
      <point x="322" y="195"/>
      <point x="291" y="197"/>
      <point x="261" y="197" type="curve" smooth="yes"/>
      <point x="200" y="197"/>
      <point x="158" y="184"/>
      <point x="132" y="159" type="curve" smooth="yes"/>
      <point x="120" y="147"/>
      <point x="121" y="132"/>
      <point x="121" y="119" type="curve" smooth="yes"/>
      <point x="121" y="100"/>
      <point x="138" y="78"/>
      <point x="174" y="78" type="curve" smooth="yes"/>
      <point x="237" y="78"/>
      <point x="282" y="107"/>
      <point x="322" y="161" type="curve" smooth="yes"/>
      <point x="336" y="180"/>
      <point x="366" y="184"/>
      <point x="385" y="169" type="curve" smooth="yes"/>
      <point x="404" y="155"/>
      <point x="410" y="126"/>
      <point x="396" y="107" type="curve" smooth="yes"/>
      <point x="336" y="25"/>
      <point x="265" y="-10"/>
      <point x="174" y="-10" type="curve" smooth="yes"/>
      <point x="60" y="-10"/>
      <point x="23" y="64"/>
      <point x="23" y="119" type="curve" smooth="yes"/>
      <point x="23" y="160"/>
      <point x="38" y="193"/>
      <point x="70" y="223" type="curve" smooth="yes"/>
      <point x="108" y="260"/>
      <point x="168" y="285"/>
      <point x="261" y="285" type="curve" smooth="yes"/>
      <point x="291" y="285"/>
      <point x="324" y="283"/>
      <point x="359" y="282" type="curve" smooth="yes"/>
      <point x="383" y="281"/>
      <point x="403" y="260"/>
      <point x="402" y="237" type="curve" smooth="yes"/>
      <point x="401" y="213"/>
      <point x="380" y="193"/>
    </contour>
  </outline>
</glyph>
<glyph name="b" format="1">
  <advance width="520"/>
  <unicode hex="0062"/>
  <outline>
    <contour>
      <point x="57" y="31" type="curve" smooth="yes"/>
      <point x="57" y="567" type="line" smooth="yes"/>
      <point x="57" y="591"/>
      <point x="82" y="611"/>
      <point x="106" y="611" type="curve" smooth="yes"/>
      <point x="130" y="611"/>
      <point x="155" y="591"/>
      <point x="155" y="567" type="curve" smooth="yes"/>
      <point x="155" y="31" type="line" smooth="yes"/>
      <point x="155" y="7"/>
      <point x="130" y="-13"/>
      <point x="106" y="-13" type="curve" smooth="yes"/>
      <point x="82" y="-13"/>
      <point x="57" y="7"/>
    </contour>
    <contour>
      <point x="127" y="110" type="curve" smooth="yes"/>
      <point x="171" y="86"/>
      <point x="217" y="74"/>
      <point x="271" y="74" type="curve" smooth="yes"/>
      <point x="347" y="74"/>
      <point x="395" y="131"/>
      <point x="395" y="209" type="curve" smooth="yes"/>
      <point x="395" y="284"/>
      <point x="351" y="345"/>
      <point x="285" y="345" type="curve" smooth="yes"/>
      <point x="232" y="345"/>
      <point x="183" y="302"/>
      <point x="146" y="243" type="curve" smooth="yes"/>
      <point x="134" y="223"/>
      <point x="104" y="218"/>
      <point x="84" y="231" type="curve" smooth="yes"/>
      <point x="64" y="243"/>
      <point x="55" y="272"/>
      <point x="68" y="293" type="curve" smooth="yes"/>
      <point x="125" y="384"/>
      <point x="208" y="433"/>
      <point x="285" y="433" type="curve" smooth="yes"/>
      <point x="395" y="433"/>
      <point x="493" y="350"/>
      <point x="493" y="209" type="curve" smooth="yes"/>
      <point x="493" y="69"/>
      <point x="397" y="-14"/>
      <point x="271" y="-14" type="curve" smooth="yes"/>
      <point x="201" y="-14"/>
      <point x="141" y="2"/>
      <point x="85" y="32" type="curve" smooth="yes"/>
      <point x="64" y="43"/>
      <point x="56" y="71"/>
      <point x="67" y="92" type="curve" smooth="yes"/>
      <point x="79" y="113"/>
      <point x="106" y="121"/>
    </contour>
  </outline>
</glyph>
<glyph name="c" format="1">
  <advance width="448"/>
  <unicode hex="0063"/>
  <outline>
    <contour>
      <point x="353" y="336" type="curve" smooth="yes"/>
      <point x="329" y="344"/>
      <point x="299" y="350"/>
      <point x="273" y="350" type="curve" smooth="yes"/>
      <point x="178" y="350"/>
      <point x="127" y="287"/>
      <point x="127" y="205" type="curve"/>
      <point x="127" y="133"/>
      <point x="179" y="78"/>
      <point x="272" y="78" type="curve" smooth="yes"/>
      <point x="309" y="78"/>
      <point x="339" y="86"/>
      <point x="363" y="95" type="curve" smooth="yes"/>
      <point x="386" y="104"/>
      <point x="412" y="92"/>
      <point x="420" y="70" type="curve" smooth="yes"/>
      <point x="429" y="47"/>
      <point x="417" y="21"/>
      <point x="395" y="13" type="curve" smooth="yes"/>
      <point x="361" y="0"/>
      <point x="321" y="-10"/>
      <point x="272" y="-10" type="curve" smooth="yes"/>
      <point x="115" y="-10"/>
      <point x="29" y="85"/>
      <point x="29" y="205" type="curve" smooth="yes"/>
      <point x="29" y="341"/>
      <point x="120" y="438"/>
      <point x="273" y="438" type="curve" smooth="yes"/>
      <point x="307" y="438"/>
      <point x="347" y="430"/>
      <point x="379" y="420" type="curve" smooth="yes"/>
      <point x="402" y="413"/>
      <point x="415" y="387"/>
      <point x="408" y="365" type="curve" smooth="yes"/>
      <point x="401" y="342"/>
      <point x="375" y="329"/>
    </contour>
  </outline>
</glyph>
<glyph name="d" format="1">
  <advance width="520"/>
  <unicode hex="0064"/>
  <outline>
    <contour>
      <point x="387" y="293" type="curve" smooth="yes"/>
      <point x="348" y="325"/>
      <point x="309" y="345"/>
      <point x="257" y="345" type="curve" smooth="yes"/>
      <point x="178" y="345"/>
      <point x="127" y="281"/>
      <point x="127" y="201" type="curve"/>
      <point x="127" y="129"/>
      <point x="169" y="74"/>
      <point x="235" y="74" type="curve" smooth="yes"/>
      <point x="300" y="74"/>
      <point x="342" y="123"/>
      <point x="374" y="177" type="curve" smooth="yes"/>
      <point x="386" y="197"/>
      <point x="416" y="203"/>
      <point x="436" y="191" type="curve" smooth="yes"/>
      <point x="457" y="179"/>
      <point x="466" y="150"/>
      <point x="454" y="129" type="curve" smooth="yes"/>
      <point x="404" y="45"/>
      <point x="330" y="-14"/>
      <point x="235" y="-14" type="curve" smooth="yes"/>
      <point x="123" y="-14"/>
      <point x="29" y="65"/>
      <point x="29" y="201" type="curve" smooth="yes"/>
      <point x="29" y="341"/>
      <point x="130" y="433"/>
      <point x="257" y="433" type="curve" smooth="yes"/>
      <point x="331" y="433"/>
      <point x="388" y="407"/>
      <point x="443" y="361" type="curve" smooth="yes"/>
      <point x="462" y="346"/>
      <point x="464" y="317"/>
      <point x="449" y="299" type="curve" smooth="yes"/>
      <point x="434" y="281"/>
      <point x="405" y="278"/>
    </contour>
    <contour>
      <point x="464" y="567" type="curve" smooth="yes"/>
      <point x="464" y="30" type="line" smooth="yes"/>
      <point x="464" y="6"/>
      <point x="439" y="-14"/>
      <point x="415" y="-14" type="curve" smooth="yes"/>
      <point x="391" y="-14"/>
      <point x="366" y="6"/>
      <point x="366" y="30" type="curve" smooth="yes"/>
      <point x="366" y="567" type="line" smooth="yes"/>
      <point x="366" y="591"/>
      <point x="391" y="611"/>
      <point x="415" y="611" type="curve" smooth="yes"/>
      <point x="439" y="611"/>
      <point x="464" y="591"/>
    </contour>
  </outline>
</glyph>
<glyph name="e" format="1">
  <advance width="483"/>
  <unicode hex="0065"/>
  <outline>
    <contour>
      <point x="91" y="257" type="curve" smooth="yes"/>
      <point x="311" y="257" type="line" smooth="yes"/>
      <point x="331" y="257"/>
      <point x="348" y="261"/>
      <point x="348" y="278" type="curve" smooth="yes"/>
      <point x="348" y="311"/>
      <point x="308" y="350"/>
      <point x="254" y="350" type="curve" smooth="yes"/>
      <point x="179" y="350"/>
      <point x="127" y="288"/>
      <point x="127" y="209" type="curve"/>
      <point x="127" y="123"/>
      <point x="188" y="78"/>
      <point x="275" y="78" type="curve" smooth="yes"/>
      <point x="307" y="78"/>
      <point x="339" y="86"/>
      <point x="362" y="94" type="curve" smooth="yes"/>
      <point x="384" y="103"/>
      <point x="410" y="91"/>
      <point x="418" y="68" type="curve" smooth="yes"/>
      <point x="427" y="46"/>
      <point x="415" y="20"/>
      <point x="392" y="12" type="curve" smooth="yes"/>
      <point x="361" y="0"/>
      <point x="319" y="-10"/>
      <point x="275" y="-10" type="curve" smooth="yes"/>
      <point x="130" y="-10"/>
      <point x="29" y="67"/>
      <point x="29" y="209" type="curve" smooth="yes"/>
      <point x="29" y="350"/>
      <point x="133" y="438"/>
      <point x="254" y="438" type="curve" smooth="yes"/>
      <point x="374" y="438"/>
      <point x="446" y="345"/>
      <point x="446" y="278" type="curve" smooth="yes"/>
      <point x="446" y="215"/>
      <point x="417" y="169"/>
      <point x="311" y="169" type="curve" smooth="yes"/>
      <point x="91" y="169" type="line" smooth="yes"/>
      <point x="67" y="169"/>
      <point x="47" y="189"/>
      <point x="47" y="213" type="curve" smooth="yes"/>
      <point x="47" y="237"/>
      <point x="67" y="257"/>
    </contour>
  </outline>
</glyph>
<glyph name="f" format="1">
  <advance width="314"/>
  <unicode hex="0066"/>
  <outline>
    <contour>
      <point x="276" y="549" type="curve" smooth="yes"/>
      <point x="204" y="545"/>
      <point x="180" y="515"/>
      <point x="180" y="465" type="curve" smooth="yes"/>
      <point x="180" y="30" type="line" smooth="yes"/>
      <point x="180" y="6"/>
      <point x="155" y="-14"/>
      <point x="131" y="-14" type="curve" smooth="yes"/>
      <point x="107" y="-14"/>
      <point x="82" y="6"/>
      <point x="82" y="30" type="curve" smooth="yes"/>
      <point x="82" y="465" type="line" smooth="yes"/>
      <point x="82" y="563"/>
      <point x="124" y="629"/>
      <point x="272" y="637" type="curve" smooth="yes"/>
      <point x="295" y="638"/>
      <point x="317" y="619"/>
      <point x="318" y="595" type="curve" smooth="yes"/>
      <point x="319" y="572"/>
      <point x="300" y="550"/>
    </contour>
    <contour>
      <point x="38" y="433" type="curve" smooth="yes"/>
      <point x="276" y="433" type="line" smooth="yes"/>
      <point x="300" y="433"/>
      <point x="320" y="413"/>
      <point x="320" y="389" type="curve" smooth="yes"/>
      <point x="320" y="365"/>
      <point x="300" y="345"/>
      <point x="276" y="345" type="curve" smooth="yes"/>
      <point x="38" y="345" type="line" smooth="yes"/>
      <point x="14" y="345"/>
      <point x="-6" y="365"/>
      <point x="-6" y="389" type="curve" smooth="yes"/>
      <point x="-6" y="413"/>
      <point x="14" y="433"/>
    </contour>
  </outline>
</glyph>
<glyph name="g" format="1">
  <advance width="518"/>
  <unicode hex="0067"/>
  <outline>
    <contour>
      <point x="394" y="319" type="curve" smooth="yes"/>
      <point x="346" y="342"/>
      <point x="314" y="354"/>
      <point x="263" y="354" type="curve" smooth="yes"/>
      <point x="191" y="354"/>
      <point x="127" y="294"/>
      <point x="127" y="209" type="curve"/>
      <point x="127" y="135"/>
      <point x="173" y="96"/>
      <point x="227" y="96" type="curve" smooth="yes"/>
      <point x="283" y="96"/>
      <point x="336" y="130"/>
      <point x="373" y="189" type="curve" smooth="yes"/>
      <point x="386" y="209"/>
      <point x="416" y="214"/>
      <point x="436" y="201" type="curve" smooth="yes"/>
      <point x="456" y="188"/>
      <point x="464" y="159"/>
      <point x="451" y="139" type="curve" smooth="yes"/>
      <point x="394" y="50"/>
      <point x="309" y="8"/>
      <point x="227" y="8" type="curve" smooth="yes"/>
      <point x="131" y="8"/>
      <point x="29" y="63"/>
      <point x="29" y="209" type="curve" smooth="yes"/>
      <point x="29" y="356"/>
      <point x="147" y="442"/>
      <point x="263" y="442" type="curve" smooth="yes"/>
      <point x="328" y="442"/>
      <point x="370" y="428"/>
      <point x="432" y="399" type="curve" smooth="yes"/>
      <point x="453" y="389"/>
      <point x="463" y="362"/>
      <point x="453" y="340" type="curve" smooth="yes"/>
      <point x="443" y="319"/>
      <point x="416" y="309"/>
    </contour>
    <contour>
      <point x="170" y="-107" type="curve" smooth="yes"/>
      <point x="307" y="-107"/>
      <point x="364" y="-28"/>
      <point x="364" y="87" type="curve" smooth="yes"/>
      <point x="364" y="398" type="line" smooth="yes"/>
      <point x="364" y="422"/>
      <point x="389" y="442"/>
      <point x="413" y="442" type="curve" smooth="yes"/>
      <point x="437" y="442"/>
      <point x="462" y="422"/>
      <point x="462" y="398" type="curve" smooth="yes"/>
      <point x="462" y="87" type="line" smooth="yes"/>
      <point x="462" y="-86"/>
      <point x="369" y="-195"/>
      <point x="170" y="-195" type="curve" smooth="yes"/>
      <point x="146" y="-195"/>
      <point x="126" y="-175"/>
      <point x="126" y="-151" type="curve" smooth="yes"/>
      <point x="126" y="-127"/>
      <point x="146" y="-107"/>
    </contour>
  </outline>
</glyph>
<glyph name="h" format="1">
  <advance width="502"/>
  <unicode hex="0068"/>
  <outline>
    <contour>
      <point x="57" y="10" type="curve" smooth="yes"/>
      <point x="57" y="547" type="line" smooth="yes"/>
      <point x="57" y="571"/>
      <point x="82" y="591"/>
      <point x="106" y="591" type="curve" smooth="yes"/>
      <point x="130" y="591"/>
      <point x="155" y="571"/>
      <point x="155" y="547" type="curve" smooth="yes"/>
      <point x="155" y="10" type="line" smooth="yes"/>
      <point x="155" y="-14"/>
      <point x="130" y="-34"/>
      <point x="106" y="-34" type="curve" smooth="yes"/>
      <point x="82" y="-34"/>
      <point x="57" y="-14"/>
    </contour>
    <contour>
      <point x="358" y="10" type="curve" smooth="yes"/>
      <point x="358" y="220" type="line" smooth="yes"/>
      <point x="358" y="284"/>
      <point x="336" y="325"/>
      <point x="289" y="325" type="curve" smooth="yes"/>
      <point x="234" y="325"/>
      <point x="183" y="287"/>
      <point x="142" y="246" type="curve" smooth="yes"/>
      <point x="125" y="229"/>
      <point x="96" y="230"/>
      <point x="79" y="247" type="curve" smooth="yes"/>
      <point x="62" y="264"/>
      <point x="61" y="293"/>
      <point x="78" y="310" type="curve" smooth="yes"/>
      <point x="137" y="369"/>
      <point x="212" y="413"/>
      <point x="289" y="413" type="curve" smooth="yes"/>
      <point x="376" y="413"/>
      <point x="456" y="376"/>
      <point x="456" y="220" type="curve" smooth="yes"/>
      <point x="456" y="10" type="line" smooth="yes"/>
      <point x="456" y="-14"/>
      <point x="431" y="-34"/>
      <point x="407" y="-34" type="curve" smooth="yes"/>
      <point x="383" y="-34"/>
      <point x="358" y="-14"/>
    </contour>
  </outline>
</glyph>
<glyph name="i" format="1">
  <advance width="224"/>
  <unicode hex="0069"/>
  <outline>
    <contour>
      <point x="112" y="651" type="curve" smooth="yes"/>
      <point x="143" y="651"/>
      <point x="180" y="629"/>
      <point x="180" y="579" type="curve" smooth="yes"/>
      <point x="180" y="531"/>
      <point x="143" y="510"/>
      <point x="113" y="510" type="curve" smooth="yes"/>
      <point x="77" y="510"/>
      <point x="44" y="534"/>
      <point x="44" y="579" type="curve"/>
      <point x="44" y="629"/>
      <point x="79" y="651"/>
    </contour>
    <contour>
      <point x="63" y="29" type="curve" smooth="yes"/>
      <point x="63" y="388" type="line" smooth="yes"/>
      <point x="63" y="412"/>
      <point x="88" y="432"/>
      <point x="112" y="432" type="curve" smooth="yes"/>
      <point x="136" y="432"/>
      <point x="161" y="412"/>
      <point x="161" y="388" type="curve" smooth="yes"/>
      <point x="161" y="29" type="line" smooth="yes"/>
      <point x="161" y="5"/>
      <point x="136" y="-15"/>
      <point x="112" y="-15" type="curve" smooth="yes"/>
      <point x="88" y="-15"/>
      <point x="63" y="5"/>
    </contour>
  </outline>
</glyph>
<glyph name="j" format="1">
  <advance width="224"/>
  <unicode hex="006A"/>
  <outline>
    <contour>
      <point x="112" y="635" type="curve" smooth="yes"/>
      <point x="143" y="635"/>
      <point x="180" y="613"/>
      <point x="180" y="563" type="curve" smooth="yes"/>
      <point x="180" y="515"/>
      <point x="143" y="494"/>
      <point x="113" y="494" type="curve" smooth="yes"/>
      <point x="77" y="494"/>
      <point x="44" y="518"/>
      <point x="44" y="563" type="curve"/>
      <point x="44" y="613"/>
      <point x="79" y="635"/>
    </contour>
    <contour>
      <point x="-20" y="-112" type="curve" smooth="yes"/>
      <point x="38" y="-89"/>
      <point x="63" y="-44"/>
      <point x="63" y="33" type="curve" smooth="yes"/>
      <point x="63" y="372" type="line" smooth="yes"/>
      <point x="63" y="396"/>
      <point x="88" y="416"/>
      <point x="112" y="416" type="curve" smooth="yes"/>
      <point x="136" y="416"/>
      <point x="161" y="396"/>
      <point x="161" y="372" type="curve" smooth="yes"/>
      <point x="161" y="33" type="line" smooth="yes"/>
      <point x="161" y="-98"/>
      <point x="102" y="-159"/>
      <point x="12" y="-194" type="curve" smooth="yes"/>
      <point x="-10" y="-203"/>
      <point x="-36" y="-191"/>
      <point x="-45" y="-169" type="curve" smooth="yes"/>
      <point x="-54" y="-147"/>
      <point x="-42" y="-121"/>
    </contour>
  </outline>
</glyph>
<glyph name="k" format="1">
  <advance width="472"/>
  <unicode hex="006B"/>
  <outline>
    <contour>
      <point x="57" y="30" type="curve" smooth="yes"/>
      <point x="57" y="567" type="line" smooth="yes"/>
      <point x="57" y="591"/>
      <point x="82" y="611"/>
      <point x="106" y="611" type="curve" smooth="yes"/>
      <point x="130" y="611"/>
      <point x="155" y="591"/>
      <point x="155" y="567" type="curve" smooth="yes"/>
      <point x="155" y="30" type="line" smooth="yes"/>
      <point x="155" y="6"/>
      <point x="130" y="-14"/>
      <point x="106" y="-14" type="curve" smooth="yes"/>
      <point x="82" y="-14"/>
      <point x="57" y="6"/>
    </contour>
    <contour>
      <point x="273" y="295" type="curve" smooth="yes"/>
      <point x="442" y="57" type="line" smooth="yes"/>
      <point x="456" y="37"/>
      <point x="450" y="8"/>
      <point x="430" y="-6" type="curve" smooth="yes"/>
      <point x="411" y="-20"/>
      <point x="381" y="-16"/>
      <point x="368" y="3" type="curve" smooth="yes"/>
      <point x="199" y="241" type="line" smooth="yes"/>
      <point x="185" y="261"/>
      <point x="191" y="290"/>
      <point x="211" y="304" type="curve" smooth="yes"/>
      <point x="230" y="318"/>
      <point x="260" y="314"/>
    </contour>
    <contour>
      <point x="418" y="354" type="curve" smooth="yes"/>
      <point x="135" y="132" type="line" smooth="yes"/>
      <point x="117" y="117"/>
      <point x="88" y="121"/>
      <point x="73" y="140" type="curve" smooth="yes"/>
      <point x="59" y="159"/>
      <point x="62" y="187"/>
      <point x="81" y="202" type="curve" smooth="yes"/>
      <point x="364" y="424" type="line" smooth="yes"/>
      <point x="382" y="439"/>
      <point x="411" y="435"/>
      <point x="426" y="416" type="curve" smooth="yes"/>
      <point x="440" y="397"/>
      <point x="437" y="369"/>
    </contour>
  </outline>
</glyph>
<glyph name="l" format="1">
  <advance width="224"/>
  <unicode hex="006C"/>
  <outline>
    <contour>
      <point x="63" y="30" type="curve" smooth="yes"/>
      <point x="63" y="567" type="line" smooth="yes"/>
      <point x="63" y="591"/>
      <point x="88" y="611"/>
      <point x="112" y="611" type="curve" smooth="yes"/>
      <point x="136" y="611"/>
      <point x="161" y="591"/>
      <point x="161" y="567" type="curve" smooth="yes"/>
      <point x="161" y="30" type="line" smooth="yes"/>
      <point x="161" y="6"/>
      <point x="136" y="-14"/>
      <point x="112" y="-14" type="curve" smooth="yes"/>
      <point x="88" y="-14"/>
      <point x="63" y="6"/>
    </contour>
  </outline>
</glyph>
<glyph name="m" format="1">
  <advance width="770"/>
  <unicode hex="006D"/>
  <outline>
    <contour>
      <point x="57" y="34" type="curve" smooth="yes"/>
      <point x="57" y="394" type="line" smooth="yes"/>
      <point x="57" y="418"/>
      <point x="82" y="438"/>
      <point x="106" y="438" type="curve" smooth="yes"/>
      <point x="130" y="438"/>
      <point x="155" y="418"/>
      <point x="155" y="394" type="curve" smooth="yes"/>
      <point x="155" y="34" type="line" smooth="yes"/>
      <point x="155" y="10"/>
      <point x="130" y="-10"/>
      <point x="106" y="-10" type="curve" smooth="yes"/>
      <point x="82" y="-10"/>
      <point x="57" y="10"/>
    </contour>
    <contour>
      <point x="342" y="34" type="curve" smooth="yes"/>
      <point x="342" y="255" type="line" smooth="yes"/>
      <point x="342" y="317"/>
      <point x="321" y="350"/>
      <point x="277" y="350" type="curve" smooth="yes"/>
      <point x="228" y="350"/>
      <point x="179" y="312"/>
      <point x="142" y="270" type="curve" smooth="yes"/>
      <point x="126" y="252"/>
      <point x="97" y="251"/>
      <point x="79" y="267" type="curve" smooth="yes"/>
      <point x="61" y="283"/>
      <point x="58" y="312"/>
      <point x="74" y="330" type="curve" smooth="yes"/>
      <point x="129" y="392"/>
      <point x="206" y="438"/>
      <point x="277" y="438" type="curve" smooth="yes"/>
      <point x="361" y="438"/>
      <point x="440" y="409"/>
      <point x="440" y="255" type="curve" smooth="yes"/>
      <point x="440" y="34" type="line" smooth="yes"/>
      <point x="440" y="10"/>
      <point x="415" y="-10"/>
      <point x="391" y="-10" type="curve" smooth="yes"/>
      <point x="367" y="-10"/>
      <point x="342" y="10"/>
    </contour>
    <contour>
      <point x="626" y="34" type="curve" smooth="yes"/>
      <point x="626" y="255" type="line" smooth="yes"/>
      <point x="626" y="317"/>
      <point x="604" y="350"/>
      <point x="560" y="350" type="curve" smooth="yes"/>
      <point x="511" y="350"/>
      <point x="462" y="311"/>
      <point x="424" y="270" type="curve" smooth="yes"/>
      <point x="409" y="252"/>
      <point x="379" y="251"/>
      <point x="361" y="267" type="curve" smooth="yes"/>
      <point x="344" y="283"/>
      <point x="342" y="313"/>
      <point x="358" y="330" type="curve" smooth="yes"/>
      <point x="414" y="393"/>
      <point x="489" y="438"/>
      <point x="560" y="438" type="curve" smooth="yes"/>
      <point x="644" y="438"/>
      <point x="724" y="409"/>
      <point x="724" y="255" type="curve" smooth="yes"/>
      <point x="724" y="34" type="line" smooth="yes"/>
      <point x="724" y="10"/>
      <point x="699" y="-10"/>
      <point x="675" y="-10" type="curve" smooth="yes"/>
      <point x="651" y="-10"/>
      <point x="626" y="10"/>
    </contour>
  </outline>
</glyph>
<glyph name="n" format="1">
  <advance width="502"/>
  <unicode hex="006E"/>
  <outline>
    <contour>
      <point x="57" y="34" type="curve" smooth="yes"/>
      <point x="57" y="394" type="line" smooth="yes"/>
      <point x="57" y="418"/>
      <point x="82" y="438"/>
      <point x="106" y="438" type="curve" smooth="yes"/>
      <point x="130" y="438"/>
      <point x="155" y="418"/>
      <point x="155" y="394" type="curve" smooth="yes"/>
      <point x="155" y="34" type="line" smooth="yes"/>
      <point x="155" y="10"/>
      <point x="130" y="-10"/>
      <point x="106" y="-10" type="curve" smooth="yes"/>
      <point x="82" y="-10"/>
      <point x="57" y="10"/>
    </contour>
    <contour>
      <point x="358" y="34" type="curve" smooth="yes"/>
      <point x="358" y="244" type="line" smooth="yes"/>
      <point x="358" y="309"/>
      <point x="336" y="350"/>
      <point x="289" y="350" type="curve" smooth="yes"/>
      <point x="234" y="350"/>
      <point x="183" y="312"/>
      <point x="142" y="271" type="curve" smooth="yes"/>
      <point x="125" y="254"/>
      <point x="96" y="254"/>
      <point x="79" y="271" type="curve" smooth="yes"/>
      <point x="62" y="287"/>
      <point x="61" y="316"/>
      <point x="78" y="333" type="curve" smooth="yes"/>
      <point x="137" y="394"/>
      <point x="212" y="438"/>
      <point x="289" y="438" type="curve" smooth="yes"/>
      <point x="376" y="438"/>
      <point x="456" y="401"/>
      <point x="456" y="244" type="curve" smooth="yes"/>
      <point x="456" y="34" type="line" smooth="yes"/>
      <point x="456" y="10"/>
      <point x="431" y="-10"/>
      <point x="407" y="-10" type="curve" smooth="yes"/>
      <point x="383" y="-10"/>
      <point x="358" y="10"/>
    </contour>
  </outline>
</glyph>
<glyph name="p" format="1">
  <advance width="518"/>
  <unicode hex="0070"/>
  <outline>
    <contour>
      <point x="57" y="-181" type="curve" smooth="yes"/>
      <point x="57" y="378" type="line" smooth="yes"/>
      <point x="57" y="402"/>
      <point x="82" y="422"/>
      <point x="106" y="422" type="curve" smooth="yes"/>
      <point x="130" y="422"/>
      <point x="155" y="402"/>
      <point x="155" y="378" type="curve" smooth="yes"/>
      <point x="155" y="-181" type="line" smooth="yes"/>
      <point x="155" y="-205"/>
      <point x="130" y="-225"/>
      <point x="106" y="-225" type="curve" smooth="yes"/>
      <point x="82" y="-225"/>
      <point x="57" y="-205"/>
    </contour>
    <contour>
      <point x="134" y="121" type="curve" smooth="yes"/>
      <point x="174" y="88"/>
      <point x="221" y="63"/>
      <point x="268" y="63" type="curve" smooth="yes"/>
      <point x="346" y="63"/>
      <point x="393" y="126"/>
      <point x="393" y="199" type="curve" smooth="yes"/>
      <point x="393" y="280"/>
      <point x="345" y="334"/>
      <point x="281" y="334" type="curve" smooth="yes"/>
      <point x="226" y="334"/>
      <point x="181" y="292"/>
      <point x="145" y="240" type="curve" smooth="yes"/>
      <point x="131" y="220"/>
      <point x="101" y="216"/>
      <point x="82" y="230" type="curve" smooth="yes"/>
      <point x="62" y="244"/>
      <point x="56" y="273"/>
      <point x="69" y="292" type="curve" smooth="yes"/>
      <point x="127" y="374"/>
      <point x="200" y="422"/>
      <point x="281" y="422" type="curve" smooth="yes"/>
      <point x="387" y="422"/>
      <point x="491" y="350"/>
      <point x="491" y="199" type="curve" smooth="yes"/>
      <point x="491" y="68"/>
      <point x="396" y="-25"/>
      <point x="268" y="-25" type="curve" smooth="yes"/>
      <point x="203" y="-25"/>
      <point x="134" y="6"/>
      <point x="78" y="51" type="curve" smooth="yes"/>
      <point x="59" y="66"/>
      <point x="57" y="95"/>
      <point x="72" y="114" type="curve" smooth="yes"/>
      <point x="87" y="132"/>
      <point x="116" y="136"/>
    </contour>
  </outline>
</glyph>
<glyph name="q" format="1">
  <advance width="520"/>
  <unicode hex="0071"/>
  <outline>
    <contour>
      <point x="464" y="398" type="curve" smooth="yes"/>
      <point x="464" y="-161" type="line" smooth="yes"/>
      <point x="464" y="-185"/>
      <point x="439" y="-205"/>
      <point x="415" y="-205" type="curve" smooth="yes"/>
      <point x="391" y="-205"/>
      <point x="366" y="-185"/>
      <point x="366" y="-161" type="curve" smooth="yes"/>
      <point x="366" y="398" type="line" smooth="yes"/>
      <point x="366" y="422"/>
      <point x="391" y="442"/>
      <point x="415" y="442" type="curve" smooth="yes"/>
      <point x="439" y="442"/>
      <point x="464" y="422"/>
    </contour>
    <contour>
      <point x="391" y="318" type="curve" smooth="yes"/>
      <point x="355" y="341"/>
      <point x="314" y="354"/>
      <point x="264" y="354" type="curve" smooth="yes"/>
      <point x="187" y="354"/>
      <point x="127" y="293"/>
      <point x="127" y="203" type="curve"/>
      <point x="127" y="133"/>
      <point x="174" y="83"/>
      <point x="233" y="83" type="curve" smooth="yes"/>
      <point x="287" y="83"/>
      <point x="337" y="117"/>
      <point x="375" y="177" type="curve" smooth="yes"/>
      <point x="387" y="198"/>
      <point x="417" y="203"/>
      <point x="437" y="190" type="curve" smooth="yes"/>
      <point x="457" y="178"/>
      <point x="466" y="149"/>
      <point x="453" y="129" type="curve" smooth="yes"/>
      <point x="395" y="35"/>
      <point x="313" y="-5"/>
      <point x="233" y="-5" type="curve" smooth="yes"/>
      <point x="132" y="-5"/>
      <point x="29" y="67"/>
      <point x="29" y="203" type="curve" smooth="yes"/>
      <point x="29" y="357"/>
      <point x="141" y="442"/>
      <point x="264" y="442" type="curve" smooth="yes"/>
      <point x="334" y="442"/>
      <point x="389" y="425"/>
      <point x="439" y="392" type="curve" smooth="yes"/>
      <point x="459" y="379"/>
      <point x="465" y="351"/>
      <point x="452" y="331" type="curve" smooth="yes"/>
      <point x="439" y="311"/>
      <point x="411" y="305"/>
    </contour>
  </outline>
</glyph>
<glyph name="r" format="1">
  <advance width="364"/>
  <unicode hex="0072"/>
  <outline>
    <contour>
      <point x="57" y="34" type="curve" smooth="yes"/>
      <point x="57" y="394" type="line" smooth="yes"/>
      <point x="57" y="418"/>
      <point x="82" y="438"/>
      <point x="106" y="438" type="curve" smooth="yes"/>
      <point x="130" y="438"/>
      <point x="155" y="418"/>
      <point x="155" y="394" type="curve" smooth="yes"/>
      <point x="155" y="34" type="line" smooth="yes"/>
      <point x="155" y="10"/>
      <point x="130" y="-10"/>
      <point x="106" y="-10" type="curve" smooth="yes"/>
      <point x="82" y="-10"/>
      <point x="57" y="10"/>
    </contour>
    <contour>
      <point x="68" y="281" type="curve" smooth="yes"/>
      <point x="125" y="370"/>
      <point x="195" y="424"/>
      <point x="301" y="438" type="curve" smooth="yes"/>
      <point x="325" y="441"/>
      <point x="348" y="423"/>
      <point x="351" y="400" type="curve" smooth="yes"/>
      <point x="354" y="376"/>
      <point x="336" y="353"/>
      <point x="313" y="350" type="curve" smooth="yes"/>
      <point x="235" y="340"/>
      <point x="187" y="296"/>
      <point x="146" y="231" type="curve" smooth="yes"/>
      <point x="133" y="211"/>
      <point x="103" y="206"/>
      <point x="83" y="219" type="curve" smooth="yes"/>
      <point x="63" y="232"/>
      <point x="55" y="261"/>
    </contour>
  </outline>
</glyph>
<glyph name="s" format="1">
  <advance width="459"/>
  <unicode hex="0073"/>
  <outline>
    <contour>
      <point x="335" y="338" type="curve" smooth="yes"/>
      <point x="307" y="346"/>
      <point x="271" y="353"/>
      <point x="231" y="353" type="curve" smooth="yes"/>
      <point x="182" y="353"/>
      <point x="146" y="336"/>
      <point x="146" y="309" type="curve" smooth="yes"/>
      <point x="146" y="284"/>
      <point x="182" y="274"/>
      <point x="227" y="270" type="curve" smooth="yes"/>
      <point x="270" y="265" type="line" smooth="yes"/>
      <point x="389" y="253"/>
      <point x="429" y="189"/>
      <point x="429" y="125" type="curve" smooth="yes"/>
      <point x="429" y="59"/>
      <point x="390" y="-14"/>
      <point x="238" y="-14" type="curve" smooth="yes"/>
      <point x="182" y="-14"/>
      <point x="125" y="-3"/>
      <point x="73" y="20" type="curve" smooth="yes"/>
      <point x="52" y="29"/>
      <point x="41" y="56"/>
      <point x="51" y="78" type="curve" smooth="yes"/>
      <point x="60" y="99"/>
      <point x="87" y="110"/>
      <point x="109" y="100" type="curve" smooth="yes"/>
      <point x="149" y="83"/>
      <point x="194" y="74"/>
      <point x="238" y="74" type="curve" smooth="yes"/>
      <point x="294" y="74"/>
      <point x="331" y="93"/>
      <point x="331" y="125" type="curve" smooth="yes"/>
      <point x="331" y="153"/>
      <point x="305" y="173"/>
      <point x="260" y="177" type="curve" smooth="yes"/>
      <point x="219" y="182" type="line" smooth="yes"/>
      <point x="74" y="196"/>
      <point x="48" y="256"/>
      <point x="48" y="309" type="curve"/>
      <point x="48" y="368"/>
      <point x="86" y="441"/>
      <point x="231" y="441" type="curve" smooth="yes"/>
      <point x="279" y="441"/>
      <point x="323" y="432"/>
      <point x="357" y="424" type="curve" smooth="yes"/>
      <point x="380" y="418"/>
      <point x="395" y="393"/>
      <point x="389" y="370" type="curve" smooth="yes"/>
      <point x="383" y="347"/>
      <point x="358" y="332"/>
    </contour>
  </outline>
</glyph>
<glyph name="t" format="1">
  <advance width="352"/>
  <unicode hex="0074"/>
  <outline>
    <contour>
      <point x="180" y="523" type="curve" smooth="yes"/>
      <point x="180" y="154" type="line" smooth="yes"/>
      <point x="180" y="101"/>
      <point x="216" y="76"/>
      <point x="284" y="75" type="curve" smooth="yes"/>
      <point x="308" y="75"/>
      <point x="327" y="54"/>
      <point x="327" y="30" type="curve" smooth="yes"/>
      <point x="327" y="6"/>
      <point x="306" y="-13"/>
      <point x="282" y="-13" type="curve" smooth="yes"/>
      <point x="138" y="-10"/>
      <point x="82" y="51"/>
      <point x="82" y="154" type="curve"/>
      <point x="82" y="523" type="line" smooth="yes"/>
      <point x="82" y="547"/>
      <point x="107" y="567"/>
      <point x="131" y="567" type="curve" smooth="yes"/>
      <point x="155" y="567"/>
      <point x="180" y="547"/>
    </contour>
    <contour>
      <point x="38" y="434" type="curve" smooth="yes"/>
      <point x="297" y="434" type="line" smooth="yes"/>
      <point x="321" y="434"/>
      <point x="341" y="414"/>
      <point x="341" y="390" type="curve" smooth="yes"/>
      <point x="341" y="366"/>
      <point x="321" y="346"/>
      <point x="297" y="346" type="curve" smooth="yes"/>
      <point x="38" y="346" type="line" smooth="yes"/>
      <point x="14" y="346"/>
      <point x="-6" y="366"/>
      <point x="-6" y="390" type="curve" smooth="yes"/>
      <point x="-6" y="414"/>
      <point x="14" y="434"/>
    </contour>
  </outline>
</glyph>
<glyph name="u" format="1">
  <advance width="502"/>
  <unicode hex="0075"/>
  <outline>
    <contour>
      <point x="445" y="394" type="curve" smooth="yes"/>
      <point x="445" y="34" type="line" smooth="yes"/>
      <point x="445" y="10"/>
      <point x="420" y="-10"/>
      <point x="396" y="-10" type="curve" smooth="yes"/>
      <point x="372" y="-10"/>
      <point x="347" y="10"/>
      <point x="347" y="34" type="curve" smooth="yes"/>
      <point x="347" y="394" type="line" smooth="yes"/>
      <point x="347" y="418"/>
      <point x="372" y="438"/>
      <point x="396" y="438" type="curve" smooth="yes"/>
      <point x="420" y="438"/>
      <point x="445" y="418"/>
    </contour>
    <contour>
      <point x="144" y="394" type="curve" smooth="yes"/>
      <point x="144" y="184" type="line" smooth="yes"/>
      <point x="144" y="119"/>
      <point x="165" y="78"/>
      <point x="213" y="78" type="curve" smooth="yes"/>
      <point x="267" y="78"/>
      <point x="320" y="125"/>
      <point x="355" y="174" type="curve" smooth="yes"/>
      <point x="369" y="193"/>
      <point x="398" y="197"/>
      <point x="418" y="183" type="curve" smooth="yes"/>
      <point x="437" y="169"/>
      <point x="443" y="140"/>
      <point x="429" y="120" type="curve" smooth="yes"/>
      <point x="376" y="47"/>
      <point x="291" y="-10"/>
      <point x="213" y="-10" type="curve" smooth="yes"/>
      <point x="125" y="-10"/>
      <point x="46" y="27"/>
      <point x="46" y="184" type="curve"/>
      <point x="46" y="394" type="line" smooth="yes"/>
      <point x="46" y="418"/>
      <point x="71" y="438"/>
      <point x="95" y="438" type="curve" smooth="yes"/>
      <point x="119" y="438"/>
      <point x="144" y="418"/>
    </contour>
  </outline>
</glyph>
<glyph name="v" format="1">
  <advance width="454"/>
  <unicode hex="0076"/>
  <outline>
    <contour>
      <point x="100" y="411" type="curve" smooth="yes"/>
      <point x="161" y="253"/>
      <point x="216" y="143"/>
      <point x="270" y="54" type="curve"/>
      <point x="230" y="74" type="line"/>
      <point x="234" y="74" type="line"/>
      <point x="194" y="54" type="line"/>
      <point x="247" y="143"/>
      <point x="312" y="297"/>
      <point x="353" y="410" type="curve" smooth="yes"/>
      <point x="361" y="433"/>
      <point x="391" y="443"/>
      <point x="413" y="435" type="curve" smooth="yes"/>
      <point x="435" y="427"/>
      <point x="451" y="400"/>
      <point x="443" y="378" type="curve" smooth="yes"/>
      <point x="400" y="259"/>
      <point x="329" y="99"/>
      <point x="274" y="6" type="curve" smooth="yes"/>
      <point x="267" y="-5"/>
      <point x="249" y="-14"/>
      <point x="234" y="-14" type="curve" smooth="yes"/>
      <point x="230" y="-14" type="line" smooth="yes"/>
      <point x="215" y="-14"/>
      <point x="197" y="-5"/>
      <point x="190" y="6" type="curve" smooth="yes"/>
      <point x="134" y="99"/>
      <point x="75" y="213"/>
      <point x="12" y="377" type="curve" smooth="yes"/>
      <point x="3" y="399"/>
      <point x="18" y="427"/>
      <point x="40" y="435" type="curve" smooth="yes"/>
      <point x="62" y="444"/>
      <point x="92" y="433"/>
    </contour>
  </outline>
</glyph>
<glyph name="w" format="1">
  <advance width="714"/>
  <unicode hex="0077"/>
  <outline>
    <contour>
      <point x="113" y="406" type="curve" smooth="yes"/>
      <point x="152" y="269"/>
      <point x="199" y="140"/>
      <point x="242" y="51" type="curve"/>
      <point x="199" y="75" type="line"/>
      <point x="201" y="75" type="line"/>
      <point x="159" y="52" type="line"/>
      <point x="203" y="141"/>
      <point x="273" y="284"/>
      <point x="307" y="396" type="curve" smooth="yes"/>
      <point x="314" y="419"/>
      <point x="343" y="431"/>
      <point x="366" y="424" type="curve" smooth="yes"/>
      <point x="389" y="417"/>
      <point x="406" y="391"/>
      <point x="399" y="368" type="curve" smooth="yes"/>
      <point x="363" y="252"/>
      <point x="289" y="103"/>
      <point x="243" y="10" type="curve" smooth="yes"/>
      <point x="237" y="-3"/>
      <point x="218" y="-13"/>
      <point x="201" y="-13" type="curve" smooth="yes"/>
      <point x="199" y="-13" type="line" smooth="yes"/>
      <point x="182" y="-13"/>
      <point x="163" y="-2"/>
      <point x="156" y="11" type="curve" smooth="yes"/>
      <point x="113" y="104"/>
      <point x="60" y="237"/>
      <point x="21" y="380" type="curve" smooth="yes"/>
      <point x="14" y="403"/>
      <point x="32" y="429"/>
      <point x="55" y="435" type="curve" smooth="yes"/>
      <point x="78" y="442"/>
      <point x="107" y="429"/>
    </contour>
    <contour>
      <point x="406" y="398" type="curve" smooth="yes"/>
      <point x="454" y="260"/>
      <point x="508" y="141"/>
      <point x="555" y="52" type="curve"/>
      <point x="514" y="74" type="line"/>
      <point x="516" y="74" type="line"/>
      <point x="473" y="49" type="line"/>
      <point x="513" y="139"/>
      <point x="568" y="281"/>
      <point x="601" y="405" type="curve" smooth="yes"/>
      <point x="608" y="427"/>
      <point x="637" y="441"/>
      <point x="659" y="434" type="curve" smooth="yes"/>
      <point x="682" y="428"/>
      <point x="701" y="402"/>
      <point x="695" y="379" type="curve" smooth="yes"/>
      <point x="660" y="251"/>
      <point x="601" y="103"/>
      <point x="559" y="11" type="curve" smooth="yes"/>
      <point x="553" y="-3"/>
      <point x="534" y="-14"/>
      <point x="516" y="-14" type="curve" smooth="yes"/>
      <point x="514" y="-14" type="line" smooth="yes"/>
      <point x="498" y="-14"/>
      <point x="479" y="-4"/>
      <point x="473" y="8" type="curve" smooth="yes"/>
      <point x="424" y="101"/>
      <point x="366" y="224"/>
      <point x="316" y="366" type="curve" smooth="yes"/>
      <point x="308" y="389"/>
      <point x="324" y="416"/>
      <point x="346" y="424" type="curve" smooth="yes"/>
      <point x="369" y="431"/>
      <point x="398" y="420"/>
    </contour>
  </outline>
</glyph>
<glyph name="x" format="1">
  <advance width="449"/>
  <unicode hex="0078"/>
  <outline>
    <contour>
      <point x="22" y="64" type="curve" smooth="yes"/>
      <point x="90" y="141"/>
      <point x="255" y="320"/>
      <point x="336" y="422" type="curve" smooth="yes"/>
      <point x="351" y="441"/>
      <point x="381" y="443"/>
      <point x="399" y="428" type="curve" smooth="yes"/>
      <point x="418" y="414"/>
      <point x="422" y="384"/>
      <point x="408" y="366" type="curve" smooth="yes"/>
      <point x="325" y="262"/>
      <point x="158" y="83"/>
      <point x="90" y="4" type="curve" smooth="yes"/>
      <point x="74" y="-14"/>
      <point x="45" y="-15"/>
      <point x="27" y="1" type="curve" smooth="yes"/>
      <point x="9" y="16"/>
      <point x="6" y="46"/>
    </contour>
    <contour>
      <point x="105" y="423" type="curve" smooth="yes"/>
      <point x="187" y="326"/>
      <point x="333" y="172"/>
      <point x="427" y="64" type="curve" smooth="yes"/>
      <point x="443" y="46"/>
      <point x="440" y="16"/>
      <point x="422" y="1" type="curve" smooth="yes"/>
      <point x="404" y="-15"/>
      <point x="374" y="-14"/>
      <point x="359" y="4" type="curve" smooth="yes"/>
      <point x="265" y="114"/>
      <point x="117" y="268"/>
      <point x="35" y="365" type="curve" smooth="yes"/>
      <point x="20" y="383"/>
      <point x="23" y="412"/>
      <point x="42" y="428" type="curve" smooth="yes"/>
      <point x="60" y="443"/>
      <point x="89" y="441"/>
    </contour>
  </outline>
</glyph>
<glyph name="y" format="1">
  <advance width="453"/>
  <unicode hex="0079"/>
  <outline>
    <contour>
      <point x="34" y="-106" type="curve" smooth="yes"/>
      <point x="94" y="-71"/>
      <point x="147" y="-27"/>
      <point x="201" y="64" type="curve" smooth="yes"/>
      <point x="256" y="155"/>
      <point x="315" y="296"/>
      <point x="349" y="412" type="curve" smooth="yes"/>
      <point x="356" y="434"/>
      <point x="385" y="447"/>
      <point x="407" y="440" type="curve" smooth="yes"/>
      <point x="430" y="434"/>
      <point x="448" y="407"/>
      <point x="441" y="384" type="curve" smooth="yes"/>
      <point x="405" y="262"/>
      <point x="338" y="113"/>
      <point x="281" y="16" type="curve" smooth="yes"/>
      <point x="217" y="-93"/>
      <point x="150" y="-141"/>
      <point x="78" y="-182" type="curve" smooth="yes"/>
      <point x="57" y="-194"/>
      <point x="30" y="-187"/>
      <point x="18" y="-166" type="curve" smooth="yes"/>
      <point x="6" y="-145"/>
      <point x="13" y="-118"/>
    </contour>
    <contour>
      <point x="103" y="415" type="curve" smooth="yes"/>
      <point x="158" y="258"/>
      <point x="224" y="146"/>
      <point x="277" y="65" type="curve" smooth="yes"/>
      <point x="290" y="45"/>
      <point x="282" y="16"/>
      <point x="262" y="3" type="curve" smooth="yes"/>
      <point x="242" y="-10"/>
      <point x="212" y="-5"/>
      <point x="199" y="15" type="curve" smooth="yes"/>
      <point x="144" y="100"/>
      <point x="72" y="218"/>
      <point x="13" y="383" type="curve" smooth="yes"/>
      <point x="5" y="405"/>
      <point x="21" y="433"/>
      <point x="43" y="440" type="curve" smooth="yes"/>
      <point x="66" y="448"/>
      <point x="95" y="437"/>
    </contour>
  </outline>
</glyph>
<glyph name="z" format="1">
  <advance width="446"/>
  <unicode hex="007A"/>
  <outline>
    <contour>
      <point x="363" y="350" type="curve" smooth="yes"/>
      <point x="80" y="350" type="line" smooth="yes"/>
      <point x="56" y="350"/>
      <point x="36" y="370"/>
      <point x="36" y="394" type="curve" smooth="yes"/>
      <point x="36" y="418"/>
      <point x="56" y="438"/>
      <point x="80" y="438" type="curve" smooth="yes"/>
      <point x="363" y="438" type="line" smooth="yes"/>
      <point x="387" y="438"/>
      <point x="407" y="418"/>
      <point x="407" y="394" type="curve" smooth="yes"/>
      <point x="407" y="370"/>
      <point x="387" y="350"/>
    </contour>
    <contour>
      <point x="65" y="78" type="curve" smooth="yes"/>
      <point x="381" y="78" type="line" smooth="yes"/>
      <point x="405" y="78"/>
      <point x="425" y="58"/>
      <point x="425" y="34" type="curve" smooth="yes"/>
      <point x="425" y="10"/>
      <point x="405" y="-10"/>
      <point x="381" y="-10" type="curve" smooth="yes"/>
      <point x="65" y="-10" type="line" smooth="yes"/>
      <point x="41" y="-10"/>
      <point x="21" y="10"/>
      <point x="21" y="34" type="curve" smooth="yes"/>
      <point x="21" y="58"/>
      <point x="41" y="78"/>
    </contour>
    <contour>
      <point x="404" y="365" type="curve" smooth="yes"/>
      <point x="106" y="14" type="line" smooth="yes"/>
      <point x="90" y="-4"/>
      <point x="61" y="-6"/>
      <point x="43" y="9" type="curve" smooth="yes"/>
      <point x="24" y="25"/>
      <point x="21" y="54"/>
      <point x="36" y="72" type="curve" smooth="yes"/>
      <point x="334" y="423" type="line" smooth="yes"/>
      <point x="350" y="441"/>
      <point x="379" y="443"/>
      <point x="397" y="428" type="curve" smooth="yes"/>
      <point x="416" y="412"/>
      <point x="419" y="383"/>
    </contour>
  </outline>
</glyph>
<glyph name="braceleft" format="1">
  <advance width="413"/>
  <unicode hex="007B"/>
  <outline>
    <contour>
      <point x="316" y="596" type="curve" smooth="yes"/>
      <point x="295" y="596" type="line" smooth="yes"/>
      <point x="232" y="596"/>
      <point x="178" y="569"/>
      <point x="178" y="527" type="curve" smooth="yes"/>
      <point x="178" y="458"/>
      <point x="248" y="422"/>
      <point x="248" y="361" type="curve" smooth="yes"/>
      <point x="248" y="307"/>
      <point x="211" y="260"/>
      <point x="99" y="243" type="curve"/>
      <point x="141" y="286" type="line"/>
      <point x="141" y="280" type="line"/>
      <point x="99" y="323" type="line"/>
      <point x="211" y="306"/>
      <point x="248" y="259"/>
      <point x="248" y="205" type="curve" smooth="yes"/>
      <point x="248" y="144"/>
      <point x="178" y="108"/>
      <point x="178" y="39" type="curve" smooth="yes"/>
      <point x="178" y="-3"/>
      <point x="232" y="-30"/>
      <point x="295" y="-30" type="curve" smooth="yes"/>
      <point x="316" y="-30" type="line" smooth="yes"/>
      <point x="340" y="-30"/>
      <point x="360" y="-50"/>
      <point x="360" y="-74" type="curve" smooth="yes"/>
      <point x="360" y="-98"/>
      <point x="340" y="-118"/>
      <point x="316" y="-118" type="curve" smooth="yes"/>
      <point x="295" y="-118" type="line" smooth="yes"/>
      <point x="152" y="-118"/>
      <point x="80" y="-37"/>
      <point x="80" y="39" type="curve"/>
      <point x="80" y="108"/>
      <point x="150" y="144"/>
      <point x="150" y="205" type="curve" smooth="yes"/>
      <point x="150" y="227"/>
      <point x="115" y="232"/>
      <point x="85" y="237" type="curve" smooth="yes"/>
      <point x="62" y="240"/>
      <point x="43" y="260"/>
      <point x="43" y="280" type="curve"/>
      <point x="43" y="286" type="line"/>
      <point x="43" y="306"/>
      <point x="62" y="326"/>
      <point x="85" y="329" type="curve" smooth="yes"/>
      <point x="115" y="334"/>
      <point x="150" y="339"/>
      <point x="150" y="361" type="curve" smooth="yes"/>
      <point x="150" y="422"/>
      <point x="80" y="458"/>
      <point x="80" y="527" type="curve" smooth="yes"/>
      <point x="80" y="603"/>
      <point x="152" y="684"/>
      <point x="295" y="684" type="curve" smooth="yes"/>
      <point x="316" y="684" type="line" smooth="yes"/>
      <point x="340" y="684"/>
      <point x="360" y="664"/>
      <point x="360" y="640" type="curve" smooth="yes"/>
      <point x="360" y="616"/>
      <point x="340" y="596"/>
    </contour>
  </outline>
</glyph>
<glyph name="bar" format="1">
  <advance width="295"/>
  <unicode hex="007C"/>
  <outline>
    <contour>
      <point x="197" y="641" type="curve" smooth="yes"/>
      <point x="197" y="-75" type="line" smooth="yes"/>
      <point x="197" y="-99"/>
      <point x="172" y="-119"/>
      <point x="148" y="-119" type="curve" smooth="yes"/>
      <point x="124" y="-119"/>
      <point x="99" y="-99"/>
      <point x="99" y="-75" type="curve" smooth="yes"/>
      <point x="99" y="641" type="line" smooth="yes"/>
      <point x="99" y="665"/>
      <point x="124" y="685"/>
      <point x="148" y="685" type="curve" smooth="yes"/>
      <point x="172" y="685"/>
      <point x="197" y="665"/>
    </contour>
  </outline>
</glyph>
<glyph name="braceright" format="1">
  <advance width="413"/>
  <unicode hex="007D"/>
  <outline>
    <contour>
      <point x="97" y="684" type="curve" smooth="yes"/>
      <point x="118" y="684" type="line" smooth="yes"/>
      <point x="261" y="684"/>
      <point x="333" y="603"/>
      <point x="333" y="527" type="curve" smooth="yes"/>
      <point x="333" y="458"/>
      <point x="263" y="422"/>
      <point x="263" y="361" type="curve" smooth="yes"/>
      <point x="263" y="339"/>
      <point x="297" y="334"/>
      <point x="328" y="329" type="curve" smooth="yes"/>
      <point x="351" y="326"/>
      <point x="370" y="306"/>
      <point x="370" y="286" type="curve" smooth="yes"/>
      <point x="370" y="280" type="line" smooth="yes"/>
      <point x="370" y="260"/>
      <point x="351" y="240"/>
      <point x="328" y="237" type="curve" smooth="yes"/>
      <point x="297" y="232"/>
      <point x="263" y="227"/>
      <point x="263" y="205" type="curve" smooth="yes"/>
      <point x="263" y="144"/>
      <point x="333" y="108"/>
      <point x="333" y="39" type="curve" smooth="yes"/>
      <point x="333" y="-37"/>
      <point x="261" y="-118"/>
      <point x="118" y="-118" type="curve" smooth="yes"/>
      <point x="97" y="-118" type="line" smooth="yes"/>
      <point x="73" y="-118"/>
      <point x="53" y="-98"/>
      <point x="53" y="-74" type="curve" smooth="yes"/>
      <point x="53" y="-50"/>
      <point x="73" y="-30"/>
      <point x="97" y="-30" type="curve" smooth="yes"/>
      <point x="118" y="-30" type="line" smooth="yes"/>
      <point x="181" y="-30"/>
      <point x="235" y="-3"/>
      <point x="235" y="39" type="curve" smooth="yes"/>
      <point x="235" y="108"/>
      <point x="165" y="144"/>
      <point x="165" y="205" type="curve" smooth="yes"/>
      <point x="165" y="259"/>
      <point x="201" y="306"/>
      <point x="314" y="323" type="curve"/>
      <point x="272" y="280" type="line"/>
      <point x="272" y="286" type="line"/>
      <point x="314" y="243" type="line"/>
      <point x="201" y="260"/>
      <point x="165" y="307"/>
      <point x="165" y="361" type="curve" smooth="yes"/>
      <point x="165" y="422"/>
      <point x="235" y="458"/>
      <point x="235" y="527" type="curve" smooth="yes"/>
      <point x="235" y="569"/>
      <point x="181" y="596"/>
      <point x="118" y="596" type="curve" smooth="yes"/>
      <point x="97" y="596" type="line" smooth="yes"/>
      <point x="73" y="596"/>
      <point x="53" y="616"/>
      <point x="53" y="640" type="curve" smooth="yes"/>
      <point x="53" y="664"/>
      <point x="73" y="684"/>
    </contour>
  </outline>
</glyph>
<glyph name="asciitilde" format="1">
  <advance width="623"/>
  <unicode hex="007E"/>
  <outline>
    <contour>
      <point x="67" y="245" type="curve" smooth="yes"/>
      <point x="116" y="348"/>
      <point x="166" y="383"/>
      <point x="223" y="383" type="curve" smooth="yes"/>
      <point x="273" y="383"/>
      <point x="307" y="355"/>
      <point x="348" y="308" type="curve" smooth="yes"/>
      <point x="369" y="283"/>
      <point x="385" y="261"/>
      <point x="410" y="261" type="curve" smooth="yes"/>
      <point x="448" y="261"/>
      <point x="463" y="307"/>
      <point x="490" y="363" type="curve" smooth="yes"/>
      <point x="500" y="385"/>
      <point x="529" y="393"/>
      <point x="551" y="383" type="curve" smooth="yes"/>
      <point x="572" y="372"/>
      <point x="585" y="344"/>
      <point x="574" y="323" type="curve" smooth="yes"/>
      <point x="519" y="207"/>
      <point x="472" y="173"/>
      <point x="410" y="173" type="curve" smooth="yes"/>
      <point x="363" y="173"/>
      <point x="325" y="197"/>
      <point x="280" y="248" type="curve" smooth="yes"/>
      <point x="261" y="269"/>
      <point x="249" y="295"/>
      <point x="223" y="295" type="curve" smooth="yes"/>
      <point x="190" y="295"/>
      <point x="174" y="252"/>
      <point x="151" y="205" type="curve" smooth="yes"/>
      <point x="141" y="183"/>
      <point x="111" y="175"/>
      <point x="90" y="185" type="curve" smooth="yes"/>
      <point x="69" y="196"/>
      <point x="56" y="224"/>
    </contour>
  </outline>
</glyph>
<glyph name="exclamdown" format="1">
  <advance width="323"/>
  <unicode hex="00A1"/>
  <outline>
    <contour>
      <point x="209" y="312" type="curve" smooth="yes"/>
      <point x="216" y="20" type="line" smooth="yes"/>
      <point x="217" y="-4"/>
      <point x="192" y="-24"/>
      <point x="168" y="-25" type="curve" smooth="yes"/>
      <point x="144" y="-26"/>
      <point x="119" y="-6"/>
      <point x="118" y="18" type="curve" smooth="yes"/>
      <point x="111" y="310" type="line" smooth="yes"/>
      <point x="110" y="334"/>
      <point x="135" y="354"/>
      <point x="159" y="355" type="curve" smooth="yes"/>
      <point x="183" y="356"/>
      <point x="208" y="336"/>
    </contour>
    <contour>
      <point x="160" y="465" type="curve" smooth="yes"/>
      <point x="121" y="465"/>
      <point x="90" y="490"/>
      <point x="90" y="540" type="curve" smooth="yes"/>
      <point x="90" y="598"/>
      <point x="131" y="614"/>
      <point x="161" y="614" type="curve" smooth="yes"/>
      <point x="198" y="614"/>
      <point x="231" y="600"/>
      <point x="231" y="540" type="curve" smooth="yes"/>
      <point x="231" y="492"/>
      <point x="196" y="465"/>
    </contour>
  </outline>
</glyph>
<glyph name="cent" format="1">
  <advance width="435"/>
  <unicode hex="00A2"/>
  <outline>
    <contour>
      <point x="290" y="539" type="curve" smooth="yes"/>
      <point x="290" y="31" type="line" smooth="yes"/>
      <point x="290" y="7"/>
      <point x="265" y="-13"/>
      <point x="241" y="-13" type="curve" smooth="yes"/>
      <point x="217" y="-13"/>
      <point x="192" y="7"/>
      <point x="192" y="31" type="curve" smooth="yes"/>
      <point x="192" y="539" type="line" smooth="yes"/>
      <point x="192" y="563"/>
      <point x="217" y="583"/>
      <point x="241" y="583" type="curve" smooth="yes"/>
      <point x="265" y="583"/>
      <point x="290" y="563"/>
    </contour>
    <contour>
      <point x="343" y="397" type="curve" smooth="yes"/>
      <point x="319" y="405"/>
      <point x="289" y="410"/>
      <point x="263" y="410" type="curve" smooth="yes"/>
      <point x="169" y="410"/>
      <point x="117" y="352"/>
      <point x="117" y="275" type="curve"/>
      <point x="117" y="206"/>
      <point x="171" y="156"/>
      <point x="262" y="156" type="curve" smooth="yes"/>
      <point x="299" y="156"/>
      <point x="329" y="163"/>
      <point x="353" y="172" type="curve" smooth="yes"/>
      <point x="376" y="181"/>
      <point x="402" y="169"/>
      <point x="410" y="147" type="curve" smooth="yes"/>
      <point x="419" y="124"/>
      <point x="407" y="98"/>
      <point x="385" y="90" type="curve" smooth="yes"/>
      <point x="351" y="77"/>
      <point x="311" y="68"/>
      <point x="262" y="68" type="curve" smooth="yes"/>
      <point x="103" y="68"/>
      <point x="19" y="160"/>
      <point x="19" y="275" type="curve" smooth="yes"/>
      <point x="19" y="404"/>
      <point x="109" y="498"/>
      <point x="263" y="498" type="curve" smooth="yes"/>
      <point x="297" y="498"/>
      <point x="337" y="491"/>
      <point x="369" y="481" type="curve" smooth="yes"/>
      <point x="392" y="474"/>
      <point x="405" y="448"/>
      <point x="398" y="426" type="curve" smooth="yes"/>
      <point x="391" y="403"/>
      <point x="365" y="390"/>
    </contour>
  </outline>
</glyph>
<glyph name="sterling" format="1">
  <advance width="459"/>
  <unicode hex="00A3"/>
  <outline>
    <contour>
      <point x="29" y="73" type="curve" smooth="yes"/>
      <point x="110" y="147" type="line" smooth="yes"/>
      <point x="130" y="165"/>
      <point x="144" y="187"/>
      <point x="144" y="206" type="curve" smooth="yes"/>
      <point x="144" y="224"/>
      <point x="135" y="248"/>
      <point x="118" y="267" type="curve" smooth="yes"/>
      <point x="69" y="326"/>
      <point x="38" y="369"/>
      <point x="38" y="431" type="curve" smooth="yes"/>
      <point x="38" y="514"/>
      <point x="101" y="593"/>
      <point x="215" y="593" type="curve" smooth="yes"/>
      <point x="272" y="593"/>
      <point x="324" y="577"/>
      <point x="367" y="550" type="curve" smooth="yes"/>
      <point x="388" y="537"/>
      <point x="394" y="509"/>
      <point x="381" y="489" type="curve" smooth="yes"/>
      <point x="369" y="469"/>
      <point x="341" y="462"/>
      <point x="321" y="474" type="curve" smooth="yes"/>
      <point x="290" y="493"/>
      <point x="254" y="505"/>
      <point x="215" y="505" type="curve" smooth="yes"/>
      <point x="163" y="505"/>
      <point x="136" y="468"/>
      <point x="136" y="431" type="curve" smooth="yes"/>
      <point x="136" y="391"/>
      <point x="155" y="364"/>
      <point x="186" y="327" type="curve" smooth="yes"/>
      <point x="219" y="288"/>
      <point x="242" y="242"/>
      <point x="242" y="206" type="curve" smooth="yes"/>
      <point x="242" y="165"/>
      <point x="212" y="117"/>
      <point x="170" y="81" type="curve" smooth="yes"/>
      <point x="89" y="7" type="line" smooth="yes"/>
      <point x="72" y="-9"/>
      <point x="43" y="-7"/>
      <point x="27" y="10" type="curve" smooth="yes"/>
      <point x="10" y="28"/>
      <point x="11" y="57"/>
    </contour>
    <contour>
      <point x="379" y="-13" type="curve" smooth="yes"/>
      <point x="49" y="-13" type="line" smooth="yes"/>
      <point x="25" y="-13"/>
      <point x="5" y="7"/>
      <point x="5" y="31" type="curve" smooth="yes"/>
      <point x="5" y="55"/>
      <point x="25" y="75"/>
      <point x="49" y="75" type="curve" smooth="yes"/>
      <point x="379" y="75" type="line" smooth="yes"/>
      <point x="403" y="75"/>
      <point x="423" y="55"/>
      <point x="423" y="31" type="curve" smooth="yes"/>
      <point x="423" y="7"/>
      <point x="403" y="-13"/>
    </contour>
    <contour>
      <point x="55" y="311" type="curve" smooth="yes"/>
      <point x="369" y="311" type="line" smooth="yes"/>
      <point x="393" y="311"/>
      <point x="413" y="291"/>
      <point x="413" y="267" type="curve" smooth="yes"/>
      <point x="413" y="243"/>
      <point x="393" y="223"/>
      <point x="369" y="223" type="curve" smooth="yes"/>
      <point x="55" y="223" type="line" smooth="yes"/>
      <point x="31" y="223"/>
      <point x="11" y="243"/>
      <point x="11" y="267" type="curve" smooth="yes"/>
      <point x="11" y="291"/>
      <point x="31" y="311"/>
    </contour>
  </outline>
</glyph>
<glyph name="currency" format="1">
  <advance width="527"/>
  <unicode hex="00A4"/>
  <outline>
    <contour>
      <point x="263" y="458" type="curve" smooth="yes"/>
      <point x="391" y="458"/>
      <point x="478" y="364"/>
      <point x="478" y="242" type="curve" smooth="yes"/>
      <point x="478" y="124"/>
      <point x="391" y="36"/>
      <point x="263" y="36" type="curve" smooth="yes"/>
      <point x="135" y="36"/>
      <point x="48" y="125"/>
      <point x="48" y="244" type="curve"/>
      <point x="48" y="363"/>
      <point x="133" y="458"/>
    </contour>
    <contour>
      <point x="263" y="370" type="curve" smooth="yes"/>
      <point x="187" y="370"/>
      <point x="146" y="309"/>
      <point x="146" y="244" type="curve" smooth="yes"/>
      <point x="146" y="179"/>
      <point x="189" y="124"/>
      <point x="263" y="124" type="curve" smooth="yes"/>
      <point x="337" y="124"/>
      <point x="380" y="178"/>
      <point x="380" y="242" type="curve" smooth="yes"/>
      <point x="380" y="308"/>
      <point x="339" y="370"/>
    </contour>
    <contour>
      <point x="422" y="4" type="curve" smooth="yes"/>
      <point x="348" y="86" type="line" smooth="yes"/>
      <point x="333" y="103"/>
      <point x="335" y="133"/>
      <point x="353" y="149" type="curve" smooth="yes"/>
      <point x="370" y="165"/>
      <point x="400" y="164"/>
      <point x="416" y="146" type="curve" smooth="yes"/>
      <point x="490" y="64" type="line" smooth="yes"/>
      <point x="505" y="47"/>
      <point x="503" y="17"/>
      <point x="485" y="1" type="curve" smooth="yes"/>
      <point x="468" y="-15"/>
      <point x="438" y="-14"/>
    </contour>
    <contour>
      <point x="111" y="345" type="curve" smooth="yes"/>
      <point x="43" y="420" type="line" smooth="yes"/>
      <point x="27" y="437"/>
      <point x="29" y="467"/>
      <point x="46" y="483" type="curve" smooth="yes"/>
      <point x="64" y="499"/>
      <point x="93" y="498"/>
      <point x="109" y="480" type="curve" smooth="yes"/>
      <point x="177" y="405" type="line" smooth="yes"/>
      <point x="193" y="388"/>
      <point x="191" y="358"/>
      <point x="174" y="342" type="curve" smooth="yes"/>
      <point x="156" y="326"/>
      <point x="127" y="327"/>
    </contour>
    <contour>
      <point x="348" y="406" type="curve" smooth="yes"/>
      <point x="416" y="482" type="line" smooth="yes"/>
      <point x="432" y="500"/>
      <point x="462" y="501"/>
      <point x="479" y="485" type="curve" smooth="yes"/>
      <point x="497" y="469"/>
      <point x="499" y="440"/>
      <point x="484" y="422" type="curve" smooth="yes"/>
      <point x="416" y="346" type="line" smooth="yes"/>
      <point x="400" y="328"/>
      <point x="370" y="327"/>
      <point x="353" y="343" type="curve" smooth="yes"/>
      <point x="335" y="359"/>
      <point x="333" y="388"/>
    </contour>
    <contour>
      <point x="37" y="64" type="curve" smooth="yes"/>
      <point x="108" y="143" type="line" smooth="yes"/>
      <point x="124" y="161"/>
      <point x="154" y="162"/>
      <point x="171" y="146" type="curve" smooth="yes"/>
      <point x="189" y="130"/>
      <point x="191" y="100"/>
      <point x="176" y="83" type="curve" smooth="yes"/>
      <point x="105" y="4" type="line" smooth="yes"/>
      <point x="89" y="-14"/>
      <point x="59" y="-15"/>
      <point x="42" y="1" type="curve" smooth="yes"/>
      <point x="24" y="17"/>
      <point x="22" y="47"/>
    </contour>
  </outline>
</glyph>
<glyph name="yen" format="1">
  <advance width="568"/>
  <unicode hex="00A5"/>
  <outline>
    <contour>
      <point x="341" y="285" type="curve" smooth="yes"/>
      <point x="341" y="31" type="line" smooth="yes"/>
      <point x="341" y="7"/>
      <point x="316" y="-13"/>
      <point x="292" y="-13" type="curve" smooth="yes"/>
      <point x="268" y="-13"/>
      <point x="243" y="7"/>
      <point x="243" y="31" type="curve" smooth="yes"/>
      <point x="243" y="285" type="line" smooth="yes"/>
      <point x="243" y="309"/>
      <point x="268" y="329"/>
      <point x="292" y="329" type="curve" smooth="yes"/>
      <point x="316" y="329"/>
      <point x="341" y="309"/>
    </contour>
    <contour>
      <point x="126" y="566" type="curve" smooth="yes"/>
      <point x="175" y="495"/>
      <point x="281" y="372"/>
      <point x="320" y="334" type="curve" smooth="yes"/>
      <point x="337" y="318"/>
      <point x="337" y="288"/>
      <point x="321" y="271" type="curve" smooth="yes"/>
      <point x="304" y="254"/>
      <point x="275" y="253"/>
      <point x="258" y="270" type="curve" smooth="yes"/>
      <point x="217" y="310"/>
      <point x="103" y="439"/>
      <point x="50" y="514" type="curve" smooth="yes"/>
      <point x="37" y="533"/>
      <point x="43" y="562"/>
      <point x="63" y="576" type="curve" smooth="yes"/>
      <point x="82" y="590"/>
      <point x="112" y="586"/>
    </contour>
    <contour>
      <point x="260" y="323" type="curve" smooth="yes"/>
      <point x="312" y="374"/>
      <point x="406" y="496"/>
      <point x="456" y="566" type="curve" smooth="yes"/>
      <point x="469" y="586"/>
      <point x="499" y="590"/>
      <point x="518" y="576" type="curve" smooth="yes"/>
      <point x="538" y="562"/>
      <point x="544" y="533"/>
      <point x="530" y="514" type="curve" smooth="yes"/>
      <point x="478" y="440"/>
      <point x="378" y="314"/>
      <point x="324" y="259" type="curve" smooth="yes"/>
      <point x="307" y="242"/>
      <point x="278" y="243"/>
      <point x="261" y="260" type="curve" smooth="yes"/>
      <point x="244" y="277"/>
      <point x="243" y="306"/>
    </contour>
    <contour>
      <point x="109" y="331" type="curve" smooth="yes"/>
      <point x="474" y="331" type="line" smooth="yes"/>
      <point x="498" y="331"/>
      <point x="518" y="311"/>
      <point x="518" y="287" type="curve" smooth="yes"/>
      <point x="518" y="263"/>
      <point x="498" y="243"/>
      <point x="474" y="243" type="curve" smooth="yes"/>
      <point x="109" y="243" type="line" smooth="yes"/>
      <point x="85" y="243"/>
      <point x="65" y="263"/>
      <point x="65" y="287" type="curve" smooth="yes"/>
      <point x="65" y="311"/>
      <point x="85" y="331"/>
    </contour>
    <contour>
      <point x="109" y="182" type="curve" smooth="yes"/>
      <point x="474" y="182" type="line" smooth="yes"/>
      <point x="498" y="182"/>
      <point x="518" y="162"/>
      <point x="518" y="138" type="curve" smooth="yes"/>
      <point x="518" y="114"/>
      <point x="498" y="94"/>
      <point x="474" y="94" type="curve" smooth="yes"/>
      <point x="109" y="94" type="line" smooth="yes"/>
      <point x="85" y="94"/>
      <point x="65" y="114"/>
      <point x="65" y="138" type="curve" smooth="yes"/>
      <point x="65" y="162"/>
      <point x="85" y="182"/>
    </contour>
  </outline>
</glyph>
<glyph name="brokenbar" format="1">
  <advance width="295"/>
  <unicode hex="00A6"/>
  <outline>
    <contour>
      <point x="197" y="165" type="curve" smooth="yes"/>
      <point x="197" y="-73" type="line" smooth="yes"/>
      <point x="197" y="-97"/>
      <point x="172" y="-117"/>
      <point x="148" y="-117" type="curve" smooth="yes"/>
      <point x="124" y="-117"/>
      <point x="99" y="-97"/>
      <point x="99" y="-73" type="curve" smooth="yes"/>
      <point x="99" y="165" type="line" smooth="yes"/>
      <point x="99" y="189"/>
      <point x="124" y="209"/>
      <point x="148" y="209" type="curve" smooth="yes"/>
      <point x="172" y="209"/>
      <point x="197" y="189"/>
    </contour>
    <contour>
      <point x="197" y="570" type="curve" smooth="yes"/>
      <point x="197" y="332" type="line" smooth="yes"/>
      <point x="197" y="308"/>
      <point x="172" y="288"/>
      <point x="148" y="288" type="curve" smooth="yes"/>
      <point x="124" y="288"/>
      <point x="99" y="308"/>
      <point x="99" y="332" type="curve" smooth="yes"/>
      <point x="99" y="570" type="line" smooth="yes"/>
      <point x="99" y="594"/>
      <point x="124" y="614"/>
      <point x="148" y="614" type="curve" smooth="yes"/>
      <point x="172" y="614"/>
      <point x="197" y="594"/>
    </contour>
  </outline>
</glyph>
<glyph name="section" format="1">
  <advance width="531"/>
  <unicode hex="00A7"/>
  <outline>
    <contour>
      <point x="390" y="482" type="curve" smooth="yes"/>
      <point x="344" y="497"/>
      <point x="312" y="505"/>
      <point x="245" y="505" type="curve" smooth="yes"/>
      <point x="200" y="505"/>
      <point x="151" y="489"/>
      <point x="151" y="459" type="curve" smooth="yes"/>
      <point x="151" y="428"/>
      <point x="187" y="402"/>
      <point x="274" y="390" type="curve"/>
      <point x="448" y="354"/>
      <point x="487" y="290"/>
      <point x="487" y="221" type="curve" smooth="yes"/>
      <point x="487" y="149"/>
      <point x="438" y="76"/>
      <point x="266" y="76" type="curve" smooth="yes"/>
      <point x="242" y="76"/>
      <point x="222" y="96"/>
      <point x="222" y="120" type="curve" smooth="yes"/>
      <point x="222" y="144"/>
      <point x="242" y="164"/>
      <point x="266" y="164" type="curve" smooth="yes"/>
      <point x="334" y="164"/>
      <point x="389" y="181"/>
      <point x="389" y="221" type="curve" smooth="yes"/>
      <point x="389" y="262"/>
      <point x="342" y="286"/>
      <point x="260" y="302" type="curve"/>
      <point x="67" y="332"/>
      <point x="53" y="404"/>
      <point x="53" y="459" type="curve"/>
      <point x="53" y="521"/>
      <point x="112" y="593"/>
      <point x="245" y="593" type="curve" smooth="yes"/>
      <point x="324" y="593"/>
      <point x="362" y="583"/>
      <point x="416" y="566" type="curve" smooth="yes"/>
      <point x="439" y="559"/>
      <point x="452" y="533"/>
      <point x="445" y="511" type="curve" smooth="yes"/>
      <point x="438" y="488"/>
      <point x="412" y="475"/>
    </contour>
    <contour>
      <point x="235" y="303" type="curve" smooth="yes"/>
      <point x="183" y="303"/>
      <point x="141" y="284"/>
      <point x="141" y="242" type="curve" smooth="yes"/>
      <point x="141" y="207"/>
      <point x="174" y="179"/>
      <point x="264" y="163" type="curve" smooth="yes"/>
      <point x="443" y="133"/>
      <point x="477" y="81"/>
      <point x="477" y="11" type="curve" smooth="yes"/>
      <point x="477" y="-61"/>
      <point x="424" y="-139"/>
      <point x="256" y="-139" type="curve" smooth="yes"/>
      <point x="187" y="-139"/>
      <point x="120" y="-127"/>
      <point x="60" y="-99" type="curve" smooth="yes"/>
      <point x="38" y="-89"/>
      <point x="28" y="-62"/>
      <point x="38" y="-41" type="curve" smooth="yes"/>
      <point x="48" y="-19"/>
      <point x="75" y="-9"/>
      <point x="96" y="-19" type="curve" smooth="yes"/>
      <point x="146" y="-41"/>
      <point x="199" y="-51"/>
      <point x="256" y="-51" type="curve" smooth="yes"/>
      <point x="326" y="-51"/>
      <point x="379" y="-29"/>
      <point x="379" y="11" type="curve" smooth="yes"/>
      <point x="379" y="53"/>
      <point x="327" y="63"/>
      <point x="250" y="77" type="curve" smooth="yes"/>
      <point x="58" y="109"/>
      <point x="43" y="183"/>
      <point x="43" y="242" type="curve"/>
      <point x="43" y="328"/>
      <point x="107" y="391"/>
      <point x="235" y="391" type="curve" smooth="yes"/>
      <point x="259" y="391"/>
      <point x="279" y="371"/>
      <point x="279" y="347" type="curve" smooth="yes"/>
      <point x="279" y="323"/>
      <point x="259" y="303"/>
    </contour>
  </outline>
</glyph>
<glyph name="dieresis" format="1">
  <advance width="495"/>
  <unicode hex="00A8"/>
  <outline>
    <contour>
      <point x="148" y="632" type="curve" smooth="yes"/>
      <point x="174" y="632"/>
      <point x="213" y="618"/>
      <point x="213" y="561" type="curve" smooth="yes"/>
      <point x="213" y="504"/>
      <point x="176" y="492"/>
      <point x="148" y="492" type="curve" smooth="yes"/>
      <point x="115" y="492"/>
      <point x="81" y="509"/>
      <point x="81" y="561" type="curve"/>
      <point x="81" y="613"/>
      <point x="116" y="632"/>
    </contour>
    <contour>
      <point x="334" y="632" type="curve" smooth="yes"/>
      <point x="363" y="632"/>
      <point x="400" y="615"/>
      <point x="400" y="561" type="curve" smooth="yes"/>
      <point x="400" y="507"/>
      <point x="364" y="492"/>
      <point x="334" y="492" type="curve" smooth="yes"/>
      <point x="304" y="492"/>
      <point x="268" y="507"/>
      <point x="268" y="561" type="curve" smooth="yes"/>
      <point x="268" y="615"/>
      <point x="305" y="632"/>
    </contour>
  </outline>
</glyph>
<glyph name="copyright" format="1">
  <advance width="666"/>
  <unicode hex="00A9"/>
  <outline>
    <contour>
      <point x="335" y="593" type="curve" smooth="yes"/>
      <point x="505" y="593"/>
      <point x="641" y="465"/>
      <point x="641" y="285" type="curve" smooth="yes"/>
      <point x="641" y="113"/>
      <point x="528" y="-22"/>
      <point x="335" y="-22" type="curve" smooth="yes"/>
      <point x="152" y="-22"/>
      <point x="25" y="114"/>
      <point x="25" y="282" type="curve"/>
      <point x="25" y="465"/>
      <point x="149" y="593"/>
    </contour>
    <contour>
      <point x="396" y="366" type="curve" smooth="yes"/>
      <point x="383" y="372"/>
      <point x="363" y="378"/>
      <point x="342" y="378" type="curve" smooth="yes"/>
      <point x="292" y="378"/>
      <point x="249" y="340"/>
      <point x="249" y="284" type="curve" smooth="yes"/>
      <point x="249" y="231"/>
      <point x="286" y="193"/>
      <point x="345" y="193" type="curve" smooth="yes"/>
      <point x="366" y="193"/>
      <point x="384" y="198"/>
      <point x="399" y="205" type="curve" smooth="yes"/>
      <point x="420" y="216"/>
      <point x="446" y="207"/>
      <point x="456" y="186" type="curve" smooth="yes"/>
      <point x="467" y="165"/>
      <point x="458" y="139"/>
      <point x="437" y="129" type="curve" smooth="yes"/>
      <point x="412" y="116"/>
      <point x="380" y="107"/>
      <point x="345" y="107" type="curve" smooth="yes"/>
      <point x="230" y="107"/>
      <point x="163" y="183"/>
      <point x="163" y="284" type="curve" smooth="yes"/>
      <point x="163" y="392"/>
      <point x="248" y="464"/>
      <point x="342" y="464" type="curve" smooth="yes"/>
      <point x="379" y="464"/>
      <point x="411" y="454"/>
      <point x="434" y="442" type="curve" smooth="yes"/>
      <point x="455" y="432"/>
      <point x="464" y="406"/>
      <point x="453" y="385" type="curve" smooth="yes"/>
      <point x="443" y="364"/>
      <point x="417" y="355"/>
    </contour>
    <contour>
      <point x="335" y="507" type="curve" smooth="yes"/>
      <point x="201" y="507"/>
      <point x="111" y="415"/>
      <point x="111" y="282" type="curve"/>
      <point x="111" y="160"/>
      <point x="204" y="64"/>
      <point x="335" y="64" type="curve" smooth="yes"/>
      <point x="474" y="64"/>
      <point x="555" y="161"/>
      <point x="555" y="285" type="curve" smooth="yes"/>
      <point x="555" y="415"/>
      <point x="457" y="507"/>
    </contour>
  </outline>
</glyph>
<glyph name="ordfeminine" format="1">
  <advance width="446"/>
  <unicode hex="00AA"/>
  <outline>
    <contour>
      <point x="93" y="218" type="curve" smooth="yes"/>
      <point x="364" y="218" type="line" smooth="yes"/>
      <point x="387" y="218"/>
      <point x="407" y="198"/>
      <point x="407" y="175" type="curve" smooth="yes"/>
      <point x="407" y="152"/>
      <point x="387" y="132"/>
      <point x="364" y="132" type="curve" smooth="yes"/>
      <point x="93" y="132" type="line" smooth="yes"/>
      <point x="70" y="132"/>
      <point x="50" y="152"/>
      <point x="50" y="175" type="curve" smooth="yes"/>
      <point x="50" y="198"/>
      <point x="70" y="218"/>
    </contour>
    <contour>
      <point x="130" y="565" type="curve" smooth="yes"/>
      <point x="149" y="571"/>
      <point x="180" y="579"/>
      <point x="209" y="579" type="curve" smooth="yes"/>
      <point x="305" y="579"/>
      <point x="349" y="522"/>
      <point x="349" y="438" type="curve" smooth="yes"/>
      <point x="349" y="375" type="line" smooth="yes"/>
      <point x="349" y="351"/>
      <point x="352" y="336"/>
      <point x="363" y="324" type="curve" smooth="yes"/>
      <point x="379" y="306"/>
      <point x="377" y="278"/>
      <point x="360" y="263" type="curve" smooth="yes"/>
      <point x="342" y="247"/>
      <point x="314" y="249"/>
      <point x="299" y="266" type="curve" smooth="yes"/>
      <point x="276" y="292"/>
      <point x="263" y="323"/>
      <point x="263" y="375" type="curve" smooth="yes"/>
      <point x="263" y="438" type="line" smooth="yes"/>
      <point x="263" y="470"/>
      <point x="247" y="493"/>
      <point x="209" y="493" type="curve" smooth="yes"/>
      <point x="190" y="493"/>
      <point x="169" y="487"/>
      <point x="156" y="483" type="curve" smooth="yes"/>
      <point x="134" y="476"/>
      <point x="109" y="489"/>
      <point x="102" y="511" type="curve" smooth="yes"/>
      <point x="95" y="533"/>
      <point x="108" y="558"/>
    </contour>
    <contour>
      <point x="302" y="388" type="curve" smooth="yes"/>
      <point x="279" y="389"/>
      <point x="258" y="391"/>
      <point x="238" y="391" type="curve" smooth="yes"/>
      <point x="199" y="391"/>
      <point x="174" y="382"/>
      <point x="157" y="368" type="curve"/>
      <point x="154" y="364"/>
      <point x="153" y="359"/>
      <point x="153" y="352" type="curve" smooth="yes"/>
      <point x="153" y="343"/>
      <point x="166" y="338"/>
      <point x="178" y="338" type="curve" smooth="yes"/>
      <point x="218" y="338"/>
      <point x="246" y="353"/>
      <point x="272" y="388" type="curve" smooth="yes"/>
      <point x="285" y="406"/>
      <point x="313" y="410"/>
      <point x="332" y="396" type="curve" smooth="yes"/>
      <point x="350" y="383"/>
      <point x="354" y="355"/>
      <point x="340" y="336" type="curve" smooth="yes"/>
      <point x="296" y="277"/>
      <point x="248" y="252"/>
      <point x="178" y="252" type="curve" smooth="yes"/>
      <point x="92" y="252"/>
      <point x="67" y="311"/>
      <point x="67" y="352" type="curve"/>
      <point x="67" y="383"/>
      <point x="74" y="406"/>
      <point x="101" y="432" type="curve"/>
      <point x="130" y="458"/>
      <point x="171" y="477"/>
      <point x="238" y="477" type="curve" smooth="yes"/>
      <point x="260" y="477"/>
      <point x="281" y="475"/>
      <point x="306" y="474" type="curve" smooth="yes"/>
      <point x="329" y="473"/>
      <point x="348" y="452"/>
      <point x="347" y="429" type="curve" smooth="yes"/>
      <point x="346" y="406"/>
      <point x="325" y="387"/>
    </contour>
  </outline>
</glyph>
<glyph name="guillemotleft" format="1">
  <advance width="440"/>
  <unicode hex="00AB"/>
  <outline>
    <contour>
      <point x="280" y="236" type="curve" smooth="yes"/>
      <point x="397" y="78" type="line" smooth="yes"/>
      <point x="411" y="59"/>
      <point x="405" y="30"/>
      <point x="386" y="16" type="curve" smooth="yes"/>
      <point x="367" y="1"/>
      <point x="337" y="5"/>
      <point x="323" y="24" type="curve" smooth="yes"/>
      <point x="206" y="182" type="line" smooth="yes"/>
      <point x="192" y="201"/>
      <point x="198" y="230"/>
      <point x="217" y="244" type="curve" smooth="yes"/>
      <point x="236" y="259"/>
      <point x="266" y="255"/>
    </contour>
    <contour>
      <point x="397" y="345" type="curve" smooth="yes"/>
      <point x="280" y="187" type="line" smooth="yes"/>
      <point x="266" y="168"/>
      <point x="236" y="164"/>
      <point x="217" y="179" type="curve" smooth="yes"/>
      <point x="198" y="193"/>
      <point x="192" y="222"/>
      <point x="206" y="241" type="curve" smooth="yes"/>
      <point x="323" y="399" type="line" smooth="yes"/>
      <point x="337" y="418"/>
      <point x="367" y="422"/>
      <point x="386" y="407" type="curve" smooth="yes"/>
      <point x="405" y="393"/>
      <point x="411" y="364"/>
    </contour>
    <contour>
      <point x="102" y="236" type="curve" smooth="yes"/>
      <point x="218" y="78" type="line" smooth="yes"/>
      <point x="232" y="59"/>
      <point x="226" y="30"/>
      <point x="207" y="16" type="curve" smooth="yes"/>
      <point x="188" y="1"/>
      <point x="158" y="5"/>
      <point x="144" y="24" type="curve" smooth="yes"/>
      <point x="28" y="182" type="line" smooth="yes"/>
      <point x="14" y="201"/>
      <point x="20" y="230"/>
      <point x="39" y="244" type="curve" smooth="yes"/>
      <point x="58" y="259"/>
      <point x="88" y="255"/>
    </contour>
    <contour>
      <point x="218" y="345" type="curve" smooth="yes"/>
      <point x="102" y="187" type="line" smooth="yes"/>
      <point x="88" y="168"/>
      <point x="58" y="164"/>
      <point x="39" y="179" type="curve" smooth="yes"/>
      <point x="20" y="193"/>
      <point x="14" y="222"/>
      <point x="28" y="241" type="curve" smooth="yes"/>
      <point x="144" y="399" type="line" smooth="yes"/>
      <point x="158" y="418"/>
      <point x="188" y="422"/>
      <point x="207" y="407" type="curve" smooth="yes"/>
      <point x="226" y="393"/>
      <point x="232" y="364"/>
    </contour>
  </outline>
</glyph>
<glyph name="logicalnot" format="1">
  <advance width="485"/>
  <unicode hex="00AC"/>
  <outline>
    <contour>
      <point x="104" y="316" type="curve" smooth="yes"/>
      <point x="381" y="316" type="line" smooth="yes"/>
      <point x="405" y="316"/>
      <point x="425" y="296"/>
      <point x="425" y="272" type="curve" smooth="yes"/>
      <point x="425" y="248"/>
      <point x="405" y="228"/>
      <point x="381" y="228" type="curve" smooth="yes"/>
      <point x="104" y="228" type="line" smooth="yes"/>
      <point x="80" y="228"/>
      <point x="60" y="248"/>
      <point x="60" y="272" type="curve" smooth="yes"/>
      <point x="60" y="296"/>
      <point x="80" y="316"/>
    </contour>
    <contour>
      <point x="430" y="265" type="curve" smooth="yes"/>
      <point x="430" y="159" type="line" smooth="yes"/>
      <point x="430" y="135"/>
      <point x="405" y="115"/>
      <point x="381" y="115" type="curve" smooth="yes"/>
      <point x="357" y="115"/>
      <point x="332" y="135"/>
      <point x="332" y="159" type="curve" smooth="yes"/>
      <point x="332" y="265" type="line" smooth="yes"/>
      <point x="332" y="289"/>
      <point x="357" y="309"/>
      <point x="381" y="309" type="curve" smooth="yes"/>
      <point x="405" y="309"/>
      <point x="430" y="289"/>
    </contour>
  </outline>
</glyph>
<glyph name="registered" format="1">
  <advance width="568"/>
  <unicode hex="00AE"/>
  <outline>
    <contour>
      <point x="281" y="586" type="curve" smooth="yes"/>
      <point x="186" y="586"/>
      <point x="122" y="520"/>
      <point x="122" y="426" type="curve" smooth="yes"/>
      <point x="122" y="336"/>
      <point x="187" y="259"/>
      <point x="288" y="259" type="curve" smooth="yes"/>
      <point x="382" y="259"/>
      <point x="452" y="329"/>
      <point x="452" y="423" type="curve" smooth="yes"/>
      <point x="452" y="517"/>
      <point x="381" y="586"/>
    </contour>
    <contour>
      <point x="237" y="439" type="curve" smooth="yes"/>
      <point x="286" y="439" type="line" smooth="yes"/>
      <point x="300" y="439"/>
      <point x="309" y="446"/>
      <point x="309" y="458" type="curve" smooth="yes"/>
      <point x="309" y="471"/>
      <point x="296" y="473"/>
      <point x="286" y="473" type="curve" smooth="yes"/>
      <point x="226" y="473" type="line"/>
      <point x="269" y="516" type="line"/>
      <point x="269" y="332" type="line" smooth="yes"/>
      <point x="269" y="309"/>
      <point x="249" y="289"/>
      <point x="226" y="289" type="curve" smooth="yes"/>
      <point x="203" y="289"/>
      <point x="183" y="309"/>
      <point x="183" y="332" type="curve" smooth="yes"/>
      <point x="183" y="516" type="line" smooth="yes"/>
      <point x="183" y="540"/>
      <point x="202" y="559"/>
      <point x="226" y="559" type="curve" smooth="yes"/>
      <point x="286" y="559" type="line" smooth="yes"/>
      <point x="356" y="559"/>
      <point x="395" y="517"/>
      <point x="395" y="458" type="curve" smooth="yes"/>
      <point x="395" y="402"/>
      <point x="362" y="353"/>
      <point x="286" y="353" type="curve" smooth="yes"/>
      <point x="237" y="353" type="line" smooth="yes"/>
      <point x="214" y="353"/>
      <point x="194" y="373"/>
      <point x="194" y="396" type="curve" smooth="yes"/>
      <point x="194" y="419"/>
      <point x="214" y="439"/>
    </contour>
    <contour>
      <point x="346" y="417" type="curve" smooth="yes"/>
      <point x="396" y="360" type="line" smooth="yes"/>
      <point x="412" y="343"/>
      <point x="410" y="315"/>
      <point x="392" y="300" type="curve" smooth="yes"/>
      <point x="375" y="284"/>
      <point x="347" y="286"/>
      <point x="332" y="304" type="curve" smooth="yes"/>
      <point x="282" y="361" type="line" smooth="yes"/>
      <point x="266" y="378"/>
      <point x="268" y="406"/>
      <point x="286" y="421" type="curve" smooth="yes"/>
      <point x="303" y="437"/>
      <point x="331" y="435"/>
    </contour>
    <contour>
      <point x="281" y="672" type="curve" smooth="yes"/>
      <point x="435" y="672"/>
      <point x="538" y="565"/>
      <point x="538" y="423" type="curve" smooth="yes"/>
      <point x="538" y="279"/>
      <point x="432" y="173"/>
      <point x="288" y="173" type="curve" smooth="yes"/>
      <point x="135" y="173"/>
      <point x="36" y="290"/>
      <point x="36" y="426" type="curve" smooth="yes"/>
      <point x="36" y="572"/>
      <point x="136" y="672"/>
    </contour>
  </outline>
</glyph>
<glyph name="degree" format="1">
  <advance width="442"/>
  <unicode hex="00B0"/>
  <outline>
    <contour>
      <point x="220" y="584" type="curve" smooth="yes"/>
      <point x="333" y="584"/>
      <point x="417" y="503"/>
      <point x="417" y="393" type="curve" smooth="yes"/>
      <point x="417" y="288"/>
      <point x="334" y="208"/>
      <point x="221" y="208" type="curve" smooth="yes"/>
      <point x="107" y="208"/>
      <point x="25" y="289"/>
      <point x="25" y="393" type="curve"/>
      <point x="25" y="500"/>
      <point x="106" y="584"/>
    </contour>
    <contour>
      <point x="220" y="496" type="curve" smooth="yes"/>
      <point x="158" y="496"/>
      <point x="123" y="446"/>
      <point x="123" y="393" type="curve" smooth="yes"/>
      <point x="123" y="341"/>
      <point x="161" y="296"/>
      <point x="221" y="296" type="curve" smooth="yes"/>
      <point x="280" y="296"/>
      <point x="319" y="340"/>
      <point x="319" y="393" type="curve" smooth="yes"/>
      <point x="319" y="449"/>
      <point x="281" y="496"/>
    </contour>
  </outline>
</glyph>
<glyph name="plusminus" format="1">
  <advance width="537"/>
  <unicode hex="00B1"/>
  <outline>
    <contour>
      <point x="91" y="395" type="curve" smooth="yes"/>
      <point x="445" y="395" type="line" smooth="yes"/>
      <point x="469" y="395"/>
      <point x="489" y="375"/>
      <point x="489" y="351" type="curve" smooth="yes"/>
      <point x="489" y="327"/>
      <point x="469" y="307"/>
      <point x="445" y="307" type="curve" smooth="yes"/>
      <point x="91" y="307" type="line" smooth="yes"/>
      <point x="67" y="307"/>
      <point x="47" y="327"/>
      <point x="47" y="351" type="curve" smooth="yes"/>
      <point x="47" y="375"/>
      <point x="67" y="395"/>
    </contour>
    <contour>
      <point x="219" y="226" type="curve" smooth="yes"/>
      <point x="219" y="476" type="line" smooth="yes"/>
      <point x="219" y="500"/>
      <point x="244" y="520"/>
      <point x="268" y="520" type="curve" smooth="yes"/>
      <point x="292" y="520"/>
      <point x="317" y="500"/>
      <point x="317" y="476" type="curve" smooth="yes"/>
      <point x="317" y="226" type="line" smooth="yes"/>
      <point x="317" y="202"/>
      <point x="292" y="182"/>
      <point x="268" y="182" type="curve" smooth="yes"/>
      <point x="244" y="182"/>
      <point x="219" y="202"/>
    </contour>
    <contour>
      <point x="91" y="137" type="curve" smooth="yes"/>
      <point x="445" y="137" type="line" smooth="yes"/>
      <point x="469" y="137"/>
      <point x="489" y="117"/>
      <point x="489" y="93" type="curve" smooth="yes"/>
      <point x="489" y="69"/>
      <point x="469" y="49"/>
      <point x="445" y="49" type="curve" smooth="yes"/>
      <point x="91" y="49" type="line" smooth="yes"/>
      <point x="67" y="49"/>
      <point x="47" y="69"/>
      <point x="47" y="93" type="curve" smooth="yes"/>
      <point x="47" y="117"/>
      <point x="67" y="137"/>
    </contour>
  </outline>
</glyph>
<glyph name="acute" format="1">
  <advance width="495"/>
  <unicode hex="00B4"/>
  <outline>
    <contour>
      <point x="324" y="589" type="curve" smooth="yes"/>
      <point x="296" y="557"/>
      <point x="268" y="523"/>
      <point x="240" y="491" type="curve" smooth="yes"/>
      <point x="224" y="473"/>
      <point x="195" y="472"/>
      <point x="177" y="488" type="curve" smooth="yes"/>
      <point x="159" y="504"/>
      <point x="156" y="533"/>
      <point x="172" y="551" type="curve" smooth="yes"/>
      <point x="200" y="583"/>
      <point x="228" y="617"/>
      <point x="258" y="649" type="curve" smooth="yes"/>
      <point x="274" y="667"/>
      <point x="303" y="668"/>
      <point x="321" y="652" type="curve" smooth="yes"/>
      <point x="338" y="636"/>
      <point x="340" y="606"/>
    </contour>
  </outline>
</glyph>
